<?xml version="1.0" encoding="UTF-8"?>
<svg width="88px" height="53px" viewBox="0 0 88 53" version="1.1" xmlns="http://www.w3.org/2000/svg" xmlns:xlink="http://www.w3.org/1999/xlink">
    <!-- Generator: Sketch 53.2 (72643) - https://sketchapp.com -->
    <title>Group</title>
    <desc>Created with Sketch.</desc>
    <g id="Page-1" stroke="none" stroke-width="1" fill="none" fill-rule="evenodd">
        <g id="Group" transform="translate(0.031778, 0.300169)" fill="#360300" fill-rule="nonzero">
            <path d="M6.14698965,40.3578531 C7.08383921,39.2326887 8.34387461,39.2662641 9.44737903,40.1493737 C10.6147419,41.0847983 11.6582817,42.0811271 12.5811135,43.1422641 C14.2344233,45.0443463 15.516264,47.1759901 16.4609011,49.5715517 C17.0605472,51.0933737 17.0730073,52.0241134 15.1961932,52.0241134 L3.30061797,52.0241134 C-0.21782451,52.0241134 -0.837718315,49.2857709 1.03364452,46.7707435 C2.32249408,45.0380997 4.07704275,42.8447709 6.14698965,40.3578531 L6.14698965,40.3578531 Z" id="Fill-5-path"></path>
            <path d="M16.3137153,28.6002367 C14.4415737,30.6881545 12.6099277,32.7362504 10.927025,34.7351545 C10.1233436,35.6908805 10.4589896,36.7395244 11.2260693,37.3399764 C12.6597684,38.4612367 13.9361578,39.6660449 15.0645826,40.9637709 C17.3222109,43.5600038 18.9724056,46.5044833 20.0821401,49.86436 C20.2791666,50.4601271 20.988618,52.0241134 22.5944233,52.0241134 L32.9371489,52.0241134 C34.1489011,52.0483189 34.33191,50.8239901 34.1169719,50.1595107 C32.5937153,45.4566202 30.6725118,41.4314833 28.1508834,37.8576613 C25.7297153,34.4267298 22.7291489,31.3799627 18.9700693,28.5166887 C18.1710604,27.9092093 17.0130427,27.8201956 16.3137153,28.6002367 L16.3137153,28.6002367 Z" id="Fill-5-path"></path>
            <path d="M26.6611135,17.26036 C27.4897153,16.3733463 28.0091489,16.4287846 28.9779277,17.2017983 C33.5508127,20.8505791 37.604264,25.1396339 41.0510604,29.6965107 C45.9969719,36.2351134 49.6953082,43.3117024 51.9030958,49.8354696 C52.5409011,51.7180312 51.8836268,52.0241134 50.4592728,52.0241134 L40.1648303,52.0241134 C38.5263171,52.0241134 37.9624941,51.3729079 37.4827773,49.837812 C35.8271312,44.5329079 33.6979985,39.998675 30.8415029,35.9508942 C28.2840516,32.3270997 25.163556,29.1218257 21.3016799,26.1320586 C20.1646888,25.2520723 20.1467773,24.3377298 21.1194498,23.2687846 C22.9736799,21.2324011 24.8372551,19.2116339 26.6611135,17.26036 L26.6611135,17.26036 Z" id="Fill-5-path"></path>
            <path d="M55.6068834,7.26037366 C56.2337861,7.94437366 55.9230604,9.12263393 55.2151666,9.65281201 C50.2303171,13.3913874 45.6916976,17.6976202 41.5455737,22.5597983 C40.9202286,23.2929901 40.1874144,23.3991819 39.520795,22.6558394 C37.1307773,19.9932367 34.5304941,17.475086 31.7386357,15.181812 C30.4840516,14.1503463 30.5767242,13.121223 31.4754144,12.1756476 C35.6955206,7.73511338 39.4662817,4.04729146 42.0058215,1.83053804 C44.5142109,-0.358886618 47.9758038,-0.721968809 50.1586711,1.49478461 C51.7045118,3.06345585 53.5602994,5.03034626 55.6068834,7.26037366 L55.6068834,7.26037366 Z" id="Fill-5-path"></path>
            <path d="M66.8701047,19.9807435 C64.5579631,17.2900312 62.244264,14.6438257 60.0380339,12.1662778 C59.5069188,11.5705107 58.5225649,11.3261134 57.847379,11.8211545 C52.6725118,15.6175107 47.9929365,20.040086 43.7401224,25.0810723 C42.9566888,26.0102504 42.9535737,26.7434422 43.6770427,27.6991682 C46.0475914,30.8326065 48.144795,34.0894148 49.9452905,37.3579353 C50.5558392,38.4682641 51.2388127,38.2964833 51.9295737,37.284538 C55.223733,32.4582778 59.2935383,28.0091545 64.079025,24.3252367 C64.8032728,23.7685107 65.5423171,23.2289627 66.2984941,22.7089353 C67.0803702,22.170949 67.5515206,20.7740586 66.8701047,19.9807435 L66.8701047,19.9807435 Z" id="Fill-5-path"></path>
            <path d="M77.0749896,32.2076339 C77.8786711,33.2047435 77.5227773,35.0474833 76.4543171,35.7267983 C74.5004056,36.9698668 72.7902463,38.385497 71.2903525,39.976812 C68.6526888,42.7752778 66.6933259,46.0922093 65.2323702,49.9479079 C64.6545295,51.4712915 63.5884056,52.0241134 62.2131135,52.0241134 L57.9299277,52.0241134 C56.260264,52.0241134 55.8911312,51.4392778 55.314848,49.6465107 C54.6856091,47.6897709 53.9247596,45.6799353 53.0424233,43.6490175 C52.720795,42.9087983 52.8142463,42.0178805 53.232441,41.3416887 C56.5616445,35.951675 60.8744233,30.9676887 66.0843348,26.9581682 C66.7641932,26.4342367 67.4604056,25.9282641 68.1706357,25.4394696 C69.4236622,24.5774422 71.031025,24.8733737 71.992795,26.025086 C73.75591,28.1348668 75.4676268,30.2157572 77.0749896,32.2076339 L77.0749896,32.2076339 Z" id="Fill-5-path"></path>
            <path d="M83.7972551,52.0241134 C87.6505649,52.0241134 88.735379,48.7103052 87.1412551,45.891538 C86.2176445,44.2572778 84.5760162,41.8984148 82.4632374,39.09136 C81.480441,37.7866065 80.0662109,37.3969764 78.6364056,38.2691545 C76.7416799,39.4255517 75.1055029,40.7498257 73.6959454,42.2458805 C71.7599454,44.2994422 70.2304587,46.6934422 69.0148127,49.4349079 C68.2500693,51.1613052 69.5295737,52.0241134 70.7794852,52.0241134 L83.7972551,52.0241134 Z" id="Fill-5-path"></path>
        </g>
    </g>
</svg>
