<?xml version="1.0" encoding="UTF-8"?>
<svg width="117px" height="19px" viewBox="0 0 117 19" version="1.1" xmlns="http://www.w3.org/2000/svg" xmlns:xlink="http://www.w3.org/1999/xlink">
    <!-- Generator: Sketch 56.3 (81716) - https://sketch.com -->
    <title>logo_text_new 2</title>
    <desc>Created with Sketch.</desc>
    <g id="Page-1" stroke="none" stroke-width="1" fill="none" fill-rule="evenodd">
        <g id="logo_text_new-2" fill="#000000" fill-rule="nonzero">
            <g id="logo_text_new">
                <path d="M17.5468331,8.83217264 C17.5631898,10.7703963 17.5212077,12.6680847 17.4743187,14.605775 C17.4639595,15.0281947 17.3996235,15.1546005 16.9830749,15.1642009 C16.7099193,15.1706013 16.4482134,15.1268659 16.1963214,15.0169942 C15.6565529,14.7812498 15.0224613,14.1369531 15.0224613,13.375851 L15.0224613,12.5534127 C15.0290038,11.1085454 15.0350013,10.4114462 15.041544,8.9671123 C15.0442701,8.32281559 15.3408702,8.12173953 15.9869567,8.13400677 C16.5212729,8.14574066 16.4923762,8.15107422 17.0266926,8.16174143 C17.4688665,8.17134188 17.5435617,8.39001875 17.5468331,8.83217264 M15.0371822,5.04319614 C15.0442701,4.81225204 15.0628075,4.39996617 15.1047896,4.18342275 C15.2094719,3.6484645 15.6614599,3.03136908 16.4356733,2.92416408 C17.2998481,2.80362514 19.8313078,2.75402283 20.8067076,2.99670079 C21.4604273,3.15884169 21.9467641,3.8996762 21.9991053,4.53437243 C22.0209141,4.80105152 22.0290924,5.00692778 22.0459943,5.30080814 C22.0459943,5.88803547 21.9238649,5.9195036 21.4042695,5.89763591 C19.3247977,5.82936609 17.6422467,5.76482976 15.5622298,5.69655991 C15.1167844,5.6826926 15.0257326,5.43681447 15.0371822,5.04319614 M19.3940408,8.89937581 C19.3815007,8.46948907 19.5701471,8.23907838 19.9954193,8.22841118 C20.5984333,8.21774404 20.6415058,8.23961172 21.2025378,8.22894452 C21.8349939,8.21774404 22.0220045,8.30734823 22.0258211,8.96391207 C22.0339995,10.63439 22.0459943,11.8536467 22.0459943,13.524658 C22.0459943,14.2164235 21.5918254,14.7540485 21.1158478,14.9903262 C20.8525062,15.120999 20.4512237,15.1786016 20.1562594,15.1823351 C19.5903202,15.1892688 19.5357982,15.0767302 19.5227129,14.5172375 C19.4790952,12.6003482 19.4382037,10.8167985 19.3940408,8.89937581 M12.1360629,4.92372391 L12.0150238,9.36179736 C12.0150238,11.3112214 11.9812202,10.5186512 12.0150238,12.4659419 C12.1017139,17.0437553 14.8736159,18.0363348 18.7010653,17.9989997 C22.2864366,17.9643314 25,16.9344168 25,12.5091439 C25,9.62794304 24.9672868,7.79585768 24.8784158,4.91679025 C24.7464724,0.617389955 21.8791567,0.0162952865 18.3777494,0.000294539353 C14.8327244,-0.0157062077 12.2538305,0.607789504 12.1360629,4.92372391" id="Fill-7"></path>
                <path d="M44.4778094,11.5942463 C43.6290242,8.12898375 42.9417201,5.39093976 42.2549206,1.85480642 C42.0248099,0.671159037 41.0246361,0.134339515 40.0729066,0.219490198 C38.4989701,0.359645046 38.1310959,1.06888148 38.0120035,2.81632159 C37.6759209,7.76934111 37.2717134,12.1702035 37.0032509,17.3918972 C36.9457233,18.5157805 37.6592681,18.9854314 38.5418635,18.9679781 C39.5627271,18.9478805 39.9861104,18.5136649 40.0279947,17.3517019 L40.4236235,6.50107197 C40.4327068,6.23662883 40.680984,6.22023336 40.7516321,6.48679204 C41.4061353,8.93923751 41.9920091,11.502749 42.7701463,14.5930312 C43.0360856,15.6486882 43.8621626,16.2717162 44.7896699,16.2717162 C45.7313068,16.2717162 46.4458609,15.6878258 46.7511612,14.4544631 C47.4364468,11.6804548 48.1060889,9.20791165 48.7994486,6.47832983 C48.8706012,6.19696237 49.1188785,6.34822383 49.1163553,6.60684923 C49.0769943,10.7416817 48.944277,13.1745584 48.9271196,17.4003594 C48.9230826,18.4829895 49.7420947,19.0309156 50.5600976,18.9986535 C51.3760821,18.9669204 52.0482474,18.3708656 51.9972799,17.3321331 C52.0194836,12.4584465 51.8766736,7.20872173 51.5950909,1.92144609 C51.5950909,0.692843373 50.6383151,-0.00105536018 49.6129098,0 C48.6838887,0.00158907125 47.8265247,0.627261479 47.5636132,1.65435854 C46.6133977,5.36925542 45.8771445,8.25327204 44.9859704,11.5916019 C44.85073,12.0993327 44.5691473,11.9671112 44.4778094,11.5942463" id="Fill-9"></path>
                <path d="M27.0614114,17.048597 C27.5061308,16.2216506 28.9582225,14.3056977 29.4767154,12.9022184 C29.7603798,12.1340372 29.9042902,12.1493902 29.406059,11.5935045 C27.5539277,9.52719754 25.9101286,5.80540991 25.0612134,2.00368057 C24.818592,0.918379759 25.3204599,0.264022784 26.1553477,0.111021837 C26.8317783,-0.0133906953 27.7097872,0.210551863 27.8822719,1.14814589 C28.3820616,3.86510383 29.357223,6.84623985 30.7189163,8.35507271 C31.0451823,8.71666316 31.3314445,8.57795641 31.4945774,8.12636539 C32.2827075,5.95099905 32.5533836,3.09004021 32.9601771,0.900379651 C33.1165562,0.0591391641 33.9556003,-0.0388026168 34.576441,0.0104329809 C35.146887,0.0564920887 36.1189314,0.537730354 35.9880093,1.42608878 C35.0097307,8.06495328 33.2937166,13.234691 30.2300367,17.9538966 C29.7520673,18.8597258 28.9306874,19.0349621 28.1228151,18.9947266 C27.4557361,18.960844 26.5398013,18.1026622 27.0614114,17.048597" id="Fill-13"></path>
                <path d="M0.152474807,17.0107558 C1.13748254,14.5863697 2.31566122,12.4814968 3.8342148,9.75769941 C4.03504694,9.39745345 4.03997197,9.19167421 3.8342148,8.81608748 C2.94825507,7.19841943 1.43681544,4.68780712 0.437579821,1.72067173 C0.0835242657,0.667970809 1.18344956,0.0495751495 1.94956668,0.00355254662 C2.79448442,-0.047231015 3.55786541,0.446850719 3.8260064,1.45987698 C4.40661374,3.64357013 4.87449241,4.62697265 5.58752855,6.06531122 C5.99247618,6.88260914 6.11505492,6.89371807 6.44557973,6.20020507 C7.09349591,4.84333178 7.6270418,3.41134113 8.22461311,1.31228725 C8.48947077,0.382313279 9.31140497,0.0437561991 10.1344336,0.12363451 C10.9071176,0.198222866 11.8965031,0.711877431 11.5325974,1.7010989 C10.5497786,4.37252584 9.80883385,6.42026718 8.26346623,8.80497861 C7.953736,9.28319047 7.97288897,9.42072923 8.28261913,9.90423103 C10.0030993,12.5857089 11.0855133,14.5884857 11.9419228,17.3609507 C12.2434447,18.3380053 11.3186319,18.9775608 10.3746662,18.9987206 C9.30046045,19.0235834 8.62189963,18.6892583 8.39534781,17.7169646 C7.92965802,15.714717 7.68614228,14.54934 6.64860077,12.6375505 C6.19276108,11.7980348 6.09590199,11.8239555 5.6504596,12.6359635 C4.71306058,14.3456768 4.00932728,16.0167734 3.54090139,17.3551318 C3.08506171,18.6606925 2.75453688,18.9860247 1.55337468,18.9759738 C0.495038605,18.9664519 -0.359181985,18.2702939 0.152474807,17.0107558" id="Fill-15"></path>
                <path d="M105.156391,1.28193239 C105.209644,0.230347226 106.046309,0 106.917885,0 C107.600707,0 108.556896,0.32326507 108.527902,1.16731516 C108.463408,3.04236384 108.317849,4.92075087 108.184716,6.87592029 L108.000697,11.0666819 C107.982946,11.4672858 108.045075,11.487316 108.176433,11.0800354 C110.119578,7.03894384 111.213042,4.87623933 112.999387,1.5222947 C113.38636,0.628169123 114.253792,0.0895794744 115.219449,0.168031065 C116.148419,0.243700685 116.903429,0.622605184 116.925914,1.68643101 C117.015261,5.80486136 117.054905,11.5117974 116.86201,16.6117071 C116.822367,17.6532772 116.358473,17.9949033 115.395776,18 C114.589879,18.004362 113.725403,17.6794277 113.738421,16.7246551 C113.789307,12.9906933 113.993444,10.1107965 113.973326,6.46363213 C113.970368,5.80764334 113.915339,5.71973304 113.674517,6.40632356 C111.95326,9.87210349 110.543236,13.4230116 108.70423,16.8426108 C108.195367,17.7890374 107.619051,17.9553993 106.640377,17.9259104 C105.852822,17.9025418 105.106688,17.5520134 105.093079,16.649542 C105.0203,11.9279803 104.899,6.38351138 105.156391,1.28193239" id="Fill-11"></path>
                <path d="M86.8599477,17.9968114 C86.1026147,17.9968114 85.1318959,17.0505515 85.1012586,16.2455911 C84.9050722,11.1499186 85.0469709,6.31125477 85.0888957,1.297914 C85.0964211,0.354435757 85.6699299,-0.0338589491 86.4976749,0.00230030115 C87.3909945,0.0417973259 88.0462029,0.270435038 88.0166408,1.39081546 C87.9069919,5.56136757 88.0204033,11.7006517 88.1042526,14.6451271 C88.1332774,14.9355137 88.2665768,15.1235418 88.5493001,15.1402307 C89.5259317,15.1986418 90.3418517,15.1074092 90.8755864,15.0768129 C91.3114963,15.0523359 91.371695,14.9282819 91.3840579,14.4704501 C91.5017699,10.1407973 91.627007,5.68319642 91.6947316,1.27621845 C91.7113935,0.18865951 92.3666019,-0.046653758 93.2523964,0.0173202996 C94.1634533,0.0824069488 94.8063004,0.318276506 94.7455627,1.4698095 C94.5246516,5.64703717 94.0855173,10.1547047 94.2349413,14.4125954 C94.2456907,14.7185582 94.388665,15.0362033 94.7676006,15.0578989 C95.8592562,15.1207603 96.7396755,15.0951707 97.2900721,15.0250774 C97.488409,15.0000441 97.6609445,14.7869827 97.6743829,14.5711397 C97.9339938,10.3477395 98.1366304,6.06592818 98.0957799,1.70234129 C98.0839551,0.446780911 98.402691,0.123016565 99.5776586,0.0885262021 C100.518278,0.0601550989 101.020838,0.496291272 100.999338,1.55102873 C100.902051,6.31069844 100.881626,10.3638721 100.583853,15.3071195 C100.473665,17.1406716 99.9044569,17.9528639 98.4602026,17.9890231 C96.6332519,18.0351958 94.5187391,17.9211551 92.6573876,17.9150358 C90.7750735,17.9083603 88.7411864,17.9968114 86.8599477,17.9968114" id="Fill-17"></path>
                <path d="M73.9117435,17.0084588 C74.9725374,15.2922127 75.5515559,14.5878573 76.2967235,12.5880017 C76.5790091,11.8293754 76.4773201,11.9723472 76.0349985,11.3876214 C74.38296,9.20161051 72.867064,6.02996898 72.0496583,2.11720789 C71.8279415,1.05454749 72.3719528,0.252737842 73.2176983,0.115601544 C74.0934504,-0.0267867784 74.8275046,0.159952009 75.067003,1.38600884 C75.5648923,3.93616036 76.2772749,6.51665695 77.558118,8.29476032 C77.8381812,8.68341039 77.9532072,8.67057209 78.1110204,8.22239904 C78.8695244,6.06439894 79.5218927,3.24931177 79.9136479,1.07730629 C80.1092472,-0.00869645723 80.9060931,-0.0728879118 81.7034943,0.0397389163 C82.3002951,0.123771367 83.1193679,0.624464735 82.9854491,1.45020029 C82.001895,7.50170399 79.159034,14.9391597 77.3997495,17.601938 C76.6301322,18.7678883 76.05278,19.0713388 74.9658692,18.9867229 C74.1351265,18.9207807 73.444972,17.9806677 73.9117435,17.0084588" id="Fill-19"></path>
                <path d="M60.3675842,13.9806963 C60.8532953,17.1620453 62.9955244,19.0333928 66.2477019,18.9995487 C69.3144048,18.9668716 71.2601471,16.9799872 71.977701,13.3423259 C72.2947461,11.7370633 69.134147,10.8273562 68.647856,12.9420314 C68.2670541,14.5974766 67.3964838,15.9489081 66.0900486,15.9547432 C63.0401542,15.9687477 63.1670882,11.8986983 63.2065015,9.05520707 C63.2476536,6.0465799 63.1311526,2.9971063 66.0703419,3.03911971 C67.4022799,3.05837586 68.1835906,3.81520083 68.4948401,5.27458342 C68.8194204,6.79523558 72.0704385,6.79756963 71.6044343,4.56210595 C70.9251338,1.30723344 69.0738679,0.0129869026 65.9190644,0 C62.9642256,-0.0115209189 61.3332102,1.33465887 60.4695951,4.17348188 C59.7445061,6.55949363 59.9804063,11.4441365 60.3675842,13.9806963" id="Fill-21"></path>
            </g>
        </g>
    </g>
</svg>