<?xml version="1.0" encoding="UTF-8"?>
<svg width="118px" height="22px" viewBox="0 0 118 22" version="1.1" xmlns="http://www.w3.org/2000/svg" xmlns:xlink="http://www.w3.org/1999/xlink">
    <!-- Generator: Sketch 55.2 (78181) - https://sketchapp.com -->
    <title>Group 3</title>
    <desc>Created with Sketch.</desc>
    <g id="Mobile" stroke="none" stroke-width="1" fill="none" fill-rule="evenodd">
        <g id="MainPage" transform="translate(-45.000000, -12.000000)" fill="#360300">
            <g id="Group-3" transform="translate(45.000000, 12.000000)">
                <g id="Group-2">
                    <path d="M56.0361604,2.66051981 C56.0372335,7.17590214 56.1339829,13.5766144 56.2761417,17.7042495 C56.2922949,18.1771987 56.5806226,18.6862011 57.336318,18.7234938 C57.7524023,18.7439725 58.1644766,18.7488766 58.5737269,18.7234938 C59.422557,18.671381 59.4893157,18.3110644 59.4691526,17.6228199 C59.3308343,12.9715239 59.1133883,8.62633001 59.0479286,3.97595022 C59.0439186,3.67119546 59.088255,3.49949808 59.4028457,3.50375548 C60.6906907,3.51598879 61.8175128,3.52789874 63.1058097,3.53997037 C63.2982353,3.5447128 63.5099204,3.6470522 63.5134221,4.00268025 C63.5585492,8.63107244 63.3070461,13.0392113 63.2457094,17.5617611 C63.238367,18.1041761 63.5590575,18.6298309 64.139723,18.6651297 C64.611722,18.6940153 65.0827044,18.6891112 65.5478129,18.6651297 C66.111817,18.6361362 66.4525012,18.3603749 66.4595611,17.6734237 C66.501356,13.5830274 66.6339133,7.57884668 66.6377575,2.68067512 C66.6388835,1.45659031 66.3753502,0.927432573 64.9370438,0.8776371 C62.4440961,0.791788412 60.2999092,0.796530838 57.8575671,0.875966473 C56.5337446,0.919025545 56.005718,1.43427935 56.0361604,2.66051981" id="Fill-456"></path>
                    <path d="M112.431928,4.43240555 C112.762237,6.77549104 112.993993,9.41823513 113.315402,11.7611609 C113.382686,12.2545065 113.328693,12.221773 112.974651,12.221773 L110.500449,12.221773 C110.073367,12.2207084 110.024773,12.221773 110.11763,11.815025 C110.640179,9.5173407 111.352773,6.93937183 112.10156,4.39030432 C112.228415,3.95880656 112.366305,3.96514038 112.431928,4.43240555 Z M114.275792,17.4972783 C114.132704,16.6652237 114.073585,15.9285891 113.933655,15.1555274 C113.86904,14.7973564 113.72829,14.6717748 113.327795,14.6717748 C112.341731,14.6717748 111.187901,14.6717748 110.201486,14.6717748 C109.796079,14.6717748 109.669246,14.7049305 109.596328,15.059165 C109.429557,15.8714258 109.261675,16.6839639 109.094729,17.496502 C108.955032,18.1754191 108.513604,18.6090499 107.763721,18.6469185 C107.529353,18.6588945 107.30937,18.6579519 107.101199,18.6469185 C106.401896,18.6107687 105.893514,17.863655 106.019118,17.1941081 C106.827185,12.8822504 108.345372,6.25458979 110.1695,1.46923665 C110.423106,0.804457953 110.798048,0.182371469 111.680846,0.0697083916 C112.277116,-0.00636136381 112.744331,-0.0198898043 113.413987,0.0277369595 C114.247081,0.0869516087 114.819317,0.887125595 114.931005,1.52329496 C115.818129,6.58276536 116.353059,12.2250121 117.385845,17.1805797 C117.512326,17.7847576 117.281759,18.5689636 116.499714,18.6986481 C116.234998,18.7425047 116.141204,18.7495461 115.877306,18.7314712 C115.052691,18.6758605 114.406367,18.2535403 114.275792,17.4972783 L114.275792,17.4972783 Z" id="Fill-453"></path>
                    <path d="M11.5267006,5.53609815 L11.4163678,10.0361623 C11.4163678,11.8294953 11.3858678,11.5171986 11.4163678,13.3090453 C11.461779,15.7192049 12.412945,17.4232691 14.8881938,17.8092053 C16.3886996,18.0431163 18.0559874,18.0128167 19.7623444,17.8826051 C22.4987317,17.6741516 23.4975359,16.0740265 23.4975359,13.6263759 L23.4975359,11.6088165 C23.4607422,9.6500823 23.4467509,7.62518765 23.3873484,5.66889856 C23.2974458,2.71593519 21.8294734,1.79304424 19.5548472,1.54882572 C18.2038885,1.40423148 16.6828072,1.3619463 14.8346977,1.54882572 C12.4127998,1.79400309 11.584215,3.17920247 11.5267006,5.53609815 Z M18.2601926,9.48808498 C18.2999879,11.2515019 18.33988,13.0152064 18.3798205,14.7786712 C18.3916333,15.2934286 18.4413048,15.3967444 18.9552549,15.3906078 C19.3399429,15.3860053 19.5399845,15.3754101 19.8958669,15.3278033 C20.4226948,15.25728 20.8133859,14.9551951 20.8133859,14.1434825 C20.8133859,12.6068331 20.8021542,11.2068195 20.794747,9.67002634 C20.791697,9.06595226 20.7762049,8.98075864 20.2014483,8.99192922 C19.6915165,9.00156564 19.2334347,8.98497757 18.6854504,8.99504547 C18.2991648,9.00468189 18.2483798,9.0924644 18.2601926,9.48808498 Z M14.2043632,5.01808066 C14.1884838,5.5640965 14.1727981,5.69986934 14.1570155,6.24607695 C14.1463163,6.6085214 14.1577417,6.64860123 14.5624242,6.66178539 C16.4525561,6.72430226 18.3401705,6.78653148 20.2301571,6.84904835 C20.7019397,6.86928004 20.8133859,6.84061049 20.8133859,6.30029979 C20.7949891,5.98105144 20.7877272,5.35837572 20.7584858,5.03941502 C20.7245969,4.67222428 20.4057987,4.18378724 19.6553037,4.12644815 C18.1838456,4.01392737 16.7466153,3.99868169 15.2937477,4.11364753 C14.504232,4.1761644 14.2309902,4.4970428 14.2043632,5.01808066 Z M16.583319,9.42595165 L16.6008928,11.5685449 C16.5731523,12.7116352 16.545557,13.7175623 16.5180101,14.8603171 C16.5085212,15.2486025 16.4507648,15.3592056 16.0719832,15.3740198 C15.607172,15.392094 15.4776194,15.3749786 15.0202154,15.3120782 C14.4961471,15.239877 14.1495115,14.8183195 14.1495115,14.006607 L14.1495115,13.1107556 C14.15566,11.7819364 14.1614211,10.8636479 14.1674727,9.53468498 C14.1699417,8.94202119 14.2068323,8.89009959 14.7939341,8.90179753 C15.2794659,8.91186543 15.6260046,8.92193333 16.1117785,8.93224095 C16.5133141,8.94067881 16.5798817,9.01911255 16.583319,9.42595165 L16.583319,9.42595165 Z" id="Fill-454"></path>
                    <path d="M41.9496325,12.9726815 C41.1162065,9.75756914 40.3118765,5.72431996 39.6370991,2.44333477 C39.5198918,1.87430658 38.9723432,1.30244979 38.3300992,1.30964115 C37.6178503,1.31764753 37.6406528,1.34089959 36.9351333,1.39267737 C35.7524574,1.47950103 35.6439159,2.29193272 35.5763801,3.22800782 C35.2460597,7.82237469 34.8113129,12.7054986 34.5478021,17.5499329 C34.5103306,18.2380979 34.880059,18.6986805 35.5579832,18.7240899 C35.9260656,18.7377056 36.1323041,18.7452805 36.5350984,18.700742 C37.2991974,18.6161716 37.4882977,18.3343183 37.5175391,17.512394 L37.9190747,6.26549362 C37.9279826,6.02046008 38.0614083,6.00104342 38.1313647,6.2486179 C38.7744802,8.52401152 39.5170354,12.3558547 40.2811344,15.223193 C40.5422729,16.2024642 41.2821171,16.5101584 42.19281,16.5101584 C43.1174941,16.5101584 43.7518952,16.2285449 44.0513283,15.0840163 C44.7246049,12.510373 45.5498008,8.745793 46.2304845,6.21357202 C46.3008767,5.95209424 46.4486809,6.02482284 46.4465992,6.26549362 C46.4069491,10.1006928 46.2716354,13.7768191 46.2553203,17.6965407 C46.2524155,18.3165317 46.6472217,18.7496432 47.3334245,18.7647451 C47.661518,18.7717926 47.9869003,18.7667586 48.3030842,18.7286924 C48.8556193,18.661573 49.310409,18.4266074 49.2697906,17.633113 C49.2915764,13.1120979 49.1350094,7.53563128 48.8586209,2.63069362 C48.8586209,2.01712695 48.3778819,1.15143128 47.340396,1.14260988 C46.9877089,1.13570617 46.9158159,1.13445967 46.5749415,1.14260988 C45.8614339,1.15934177 45.2057311,1.60098704 45.0026395,2.35118951 C44.0697252,5.79800741 43.2003768,9.84415309 42.3249284,12.9418545 C42.1918417,13.4128405 42.0392446,13.3188255 41.9496325,12.9726815" id="Fill-455"></path>
                    <path d="M68.4227098,1.16360734 C68.4615524,0.347953043 68.8687766,0.0152971272 69.6863394,0.00460260537 C70.1227805,-0.00147638598 70.1603208,-0.00113866424 70.5938742,0.00330800536 C71.1992749,0.00989357933 71.7452793,0.402720252 71.7244425,1.04506701 C71.661026,2.98651673 71.518339,5.09435069 71.3885051,7.11859852 L71.2081079,11.4575349 C71.1907816,11.8722009 71.2512538,11.8929708 71.3800118,11.4717192 C72.6619303,7.2874594 73.6973172,4.88535722 75.118129,1.41267712 C75.3981806,0.728340298 75.8246563,0.234534825 76.4916616,0.190180703 C76.9709655,0.158265998 77.1637062,0.15860372 77.6988392,0.222545703 C78.4371314,0.311141373 78.7833173,0.809055795 78.7990582,1.58243858 C78.8868786,5.84617558 78.9255514,12.2447643 78.736491,17.524706 C78.7088596,18.2924601 78.5790257,18.6704833 77.8228977,18.7246876 C77.4942079,18.748497 77.0134885,18.7435438 76.6988975,18.7246876 C76.0739057,18.687876 75.6689463,18.3090647 75.6774396,17.642008 C75.7272102,13.7758258 75.9271985,10.4681228 75.9077772,6.69132423 C75.9042666,6.01278497 75.8506458,5.92182525 75.6145327,6.63244808 C74.4223032,10.2208542 73.0409002,13.8972368 71.7327659,17.4377426 C71.4548093,18.1895675 71.1418037,18.5270078 70.255672,18.5538567 C69.8566579,18.5656207 69.7814074,18.5613429 69.3812609,18.5442316 C68.6238305,18.5122044 68.3676733,17.898564 68.3604258,17.4007621 C68.2884028,12.5121836 68.1701197,6.44563167 68.4227098,1.16360734" id="Fill-457"></path>
                    <path d="M25.509668,17.4887584 C26.4041426,15.7311905 27.4232317,14.4586078 28.1271051,12.5905327 C28.3959413,11.8771979 28.4219874,12.0455716 28.0243248,11.4691123 C26.5320491,9.30475329 25.0527965,6.04260947 24.021217,2.72053765 C23.7924666,1.98371111 24.072002,1.4535642 24.7687103,1.30393601 C25.1560126,1.22061214 25.4126003,1.18149115 25.7945288,1.17549835 C26.2427343,1.16845082 26.6088802,1.48928128 26.7115153,1.92757058 C27.2589671,4.2643784 28.2162815,6.82541276 29.3771716,8.57957675 C29.6294022,8.96105432 29.7686858,8.93061091 29.9247202,8.51231358 C30.6761834,6.49585679 31.1665081,3.86674424 31.5547786,1.837343 C31.6690812,1.23926173 32.1042637,1.13105576 32.6911719,1.13719239 C33.0901416,1.14126749 33.2176125,1.15823909 33.6225854,1.21979712 C34.1903221,1.30638107 34.5416537,1.74208148 34.4417297,2.18550062 C33.1093615,8.10542654 31.2052383,13.3869037 28.6694251,18.059129 C28.3679587,18.6145416 27.9669556,18.7942296 27.3563736,18.7726076 L26.2986027,18.7211175 C25.7060302,18.698249 25.2166738,18.064163 25.509668,17.4887584" id="Fill-458"></path>
                    <path d="M0.138561546,17.2995778 C1.03056708,15.050984 2.09685863,12.6817191 3.47153962,10.1553471 C3.6536201,9.8207572 3.65831614,9.63009033 3.47192692,9.28178889 C2.66938821,7.78133601 1.30172708,5.03586728 0.396553268,2.28306337 C0.221444231,1.74994403 0.423277125,1.27186255 1.08885607,1.15891029 C1.5543934,1.07985329 2.08243162,1.06623765 2.42141793,1.11475535 C2.87567508,1.17918992 3.22013203,1.63905329 3.32412269,2.04105021 C3.8494498,4.06733519 4.48510965,5.54386481 5.1306457,6.87800556 C5.49775984,7.63674177 5.53687737,7.49876358 5.83674615,6.85556852 C6.42287972,5.59660144 7.04643637,3.99038765 7.58769129,2.04378292 C7.75156856,1.45394774 8.14211448,1.20963333 8.75075999,1.2000928 C9.17519487,1.19371646 9.47036761,1.21874239 9.90487234,1.32229794 C10.495121,1.46320062 10.7564048,2.058693 10.582264,2.5435823 C9.69229181,5.02172428 8.88099038,7.05941955 7.48229666,9.27133745 C7.20208347,9.71490041 7.21868905,9.84261893 7.49958002,10.2908323 C9.05774545,12.7780833 10.1776784,15.1919346 10.953348,17.7639477 C11.1151435,18.3007586 10.6519784,18.6800788 10.1879903,18.7227475 C9.55615506,18.7803743 9.27400536,18.7925996 8.71135199,18.7742377 C8.13127002,18.7553484 7.81135835,18.2586173 7.74222489,17.9546146 C7.31996859,16.0974224 6.91485042,14.5144607 5.97506147,12.7409759 C5.5620036,11.9617204 5.58601634,11.9466185 5.18307675,12.6997934 C4.33459431,14.2854879 3.63072085,16.3779333 3.20652804,17.6194973 C3.02454439,18.1533358 2.81007576,18.6800788 2.13776744,18.6967628 C1.70878176,18.707358 1.28071593,18.7102346 0.854780263,18.6967628 C-0.0604634068,18.667422 -0.132792105,17.9830444 0.138561546,17.2995778" id="Fill-459"></path>
                    <path d="M90.9360426,15.5991445 L91.5789013,15.6212345 C92.2059133,15.6427123 92.5994476,16.281039 92.6521419,16.8737391 C92.7768314,18.2699118 92.7761735,19.5299838 92.5692896,20.9536437 C92.4516735,21.7645167 92.3271484,21.9299408 91.6238092,21.9933728 C91.4136903,22.0122912 90.8885026,21.9881425 90.6778902,21.9533105 C89.8948243,21.8244433 89.7989219,21.148892 89.8881347,20.676991 C90.0123308,20.020525 90.1361979,19.3636138 90.2602294,18.7074817 C90.2835333,18.5823981 90.2726765,18.4074592 90.1100975,18.3992798 C87.6718514,18.279371 85.3016528,18.4253203 82.870535,18.4240406 C82.07897,18.4238736 81.5439672,17.9410668 81.5111773,17.1155599 C81.3058288,11.8997209 81.2959041,6.30139786 81.3397154,1.16913339 C81.3445407,0.547554998 81.7477256,0.0336997945 82.3928872,0.00498844805 C82.7594439,-0.0110921317 82.979652,0.0142806862 83.3559689,0.0443830863 C84.2347727,0.114770399 84.4071668,0.854977845 84.3962551,1.26411453 C84.2813805,5.53342499 84.3997095,12.1403732 84.4873322,15.154842 L84.4960506,15.2404753 C84.5075655,15.3972748 84.6409186,15.482296 84.9524232,15.5002685 C85.9720375,15.5600281 86.6707158,15.5966406 87.2224974,15.5969745 C87.6777185,15.5974196 87.7392957,15.4461843 87.7526748,14.9764533 C87.8774741,10.5432767 88.1634815,5.82014896 88.2360252,1.30823875 C88.2460047,0.699291125 88.5654053,0.182097394 89.3542286,0.16618374 C89.6609079,0.159840536 89.8108754,0.187939819 90.1181579,0.214258553 C90.9643363,0.286648983 91.2142637,0.921692776 91.2170602,1.4552453 C91.2455184,6.5586315 90.9475575,11.2706865 90.6574924,15.329614 C90.6341885,15.6567342 90.9156996,15.5877935 90.9360426,15.5991445" id="Fill-460"></path>
                    <path d="M102.779676,15.8191863 L103.416802,15.8412731 C104.486342,15.8787248 104.80121,17.0096748 104.805069,17.9870899 C104.808764,18.8940077 104.966796,19.6392564 104.971091,20.5458918 C104.974839,21.4143976 104.882998,21.9684338 103.880192,21.9988244 C103.716291,22.0039648 103.551738,21.9919329 103.388163,21.9688857 C102.329872,21.8201523 102.300418,21.2062387 102.368674,20.3093757 L102.446331,19.2890861 C102.474536,18.9188625 102.446929,18.6738733 102.079239,18.6562489 C100.699287,18.5902707 99.6075752,18.543668 98.274631,18.5376238 C97.0823285,18.5369459 95.8896999,18.5358161 94.6978322,18.5357032 C93.8330596,18.5357032 93.5415596,17.9886716 93.5529718,17.0071328 C93.5911755,13.7042685 94.0140244,5.69627724 94.1831966,1.28985975 C94.211075,0.570878111 94.5806127,0.19365 95.2494759,0.12541227 C95.5682021,0.092931563 95.9105136,0.10891772 96.2655415,0.16094334 C96.9616853,0.2625091 97.2469902,0.771354685 97.211558,1.43876261 C96.9817382,5.78050113 96.528348,10.792246 96.6833365,15.2169657 L96.6907272,15.435349 C96.7023025,15.6015373 96.649426,15.708074 96.9191885,15.7238907 C98.0485065,15.7900384 99.1177204,15.7636019 99.6867541,15.6899413 C99.892554,15.6635048 99.9130416,15.6068472 99.9268993,15.3818547 C100.19601,10.9925531 100.405233,6.05147496 100.363008,1.51688577 C100.35453,0.624033495 100.430938,0.207376629 101.399724,0.0416967777 C101.623403,0.0033977871 102.147658,-0.0103853305 102.344491,0.00819928297 C103.091446,0.0786400518 103.380772,0.530827986 103.36735,1.19507257 C103.266487,6.14225148 103.089925,10.6820941 102.779676,15.8191863" id="Fill-461"></path>
                </g>
            </g>
        </g>
    </g>
</svg>