<?xml version="1.0" encoding="UTF-8"?>
<svg width="88px" height="119px" viewBox="0 0 88 119" version="1.1" xmlns="http://www.w3.org/2000/svg" xmlns:xlink="http://www.w3.org/1999/xlink">
    <!-- Generator: Sketch 43.1 (39012) - http://www.bohemiancoding.com/sketch -->
    <title>logo</title>
    <desc>Created with Sketch.</desc>
    <defs></defs>
    <g id="Page-1" stroke="none" stroke-width="1" fill="none" fill-rule="evenodd">
        <g id="logo">
            <path d="M81.4725805,111.994501 C81.6415717,113.0381 82.4826336,113.620574 83.5557664,113.69808 C83.8999788,113.72235 84.0222442,113.712172 84.3656779,113.651889 C85.3835186,113.473389 85.6841204,112.391429 85.5198018,111.557646 C84.1756602,104.720626 83.478669,96.9363039 82.3253239,89.9552316 C82.1796956,89.0776066 81.4352,87.9729421 80.3511646,87.8915211 C79.4789522,87.8257579 78.8715186,87.8445474 78.0958726,87.9494553 C76.9464212,88.1044684 76.4589168,88.9633039 76.1287221,89.8800737 C73.7550584,96.4837908 71.7793416,105.627218 70.7280142,111.576436 C70.5644743,112.500251 71.2256425,113.531324 72.1360142,113.580646 C72.407023,113.596304 72.6936071,113.59787 72.9981027,113.580646 C73.9738903,113.528975 74.5486159,112.930061 74.7300673,111.993718 C74.9473416,110.87183 75.1661735,109.751508 75.3834478,108.630403 C75.4776779,108.141876 75.6427752,108.096468 76.1699965,108.096468 L80.2398018,108.096468 C80.7600142,108.096468 80.9422442,108.269488 81.0271292,108.763495 C81.2101381,109.829797 81.2864566,110.846778 81.4725805,111.994501 M79.2772531,93.2848829 C79.7008991,96.6521132 79.9983858,100.450718 80.4103504,103.817949 C80.4967929,104.527251 80.4274832,104.479495 79.9734655,104.479495 L76.8000142,104.479495 C76.2525451,104.477929 76.1902442,104.479495 76.3093947,103.895455 C76.9791292,100.593205 77.8933947,96.8877645 78.8536071,93.2246 C79.0163681,92.6037645 79.1931469,92.6131592 79.2772531,93.2848829" id="Fill-1" fill="#43221B"></path>
            <path d="M31.8721982,69.8802447 L31.9002336,73.2983632 C31.856623,75.1225079 31.8130124,76.7274421 31.7701805,78.5508039 C31.7553841,79.1708566 31.6634903,79.3477908 31.0685168,79.3704947 C30.3380389,79.3994618 30.1347823,79.3728434 29.4152071,79.27185 C28.5920566,79.1567645 28.0469239,78.4842579 28.0469239,77.18935 L28.0469239,75.7597842 C28.0570478,73.6397053 28.0656142,72.1741263 28.0749593,70.0540474 C28.0788531,69.1083105 28.1372602,69.0245408 29.060092,69.0441132 C29.8232779,69.0597711 30.3676319,69.0762118 31.1308177,69.0918697 C31.7623929,69.1059618 31.8675257,69.231225 31.8721982,69.8802447 M28.1333664,62.8475013 C28.1746407,62.0152842 28.6045168,61.5040539 29.8450832,61.4038434 C32.1291894,61.2198632 34.3883752,61.2449158 36.7012956,61.4241987 C37.8803398,61.5157974 38.3810832,62.2955605 38.4348177,62.8811658 C38.4807646,63.3900474 38.492446,64.3835408 38.5212602,64.8932053 C38.5212602,65.7543895 38.3460389,65.8005803 37.6046584,65.7684816 C34.633685,65.6682711 31.6666053,65.5688434 28.6964106,65.4694158 C28.0601628,65.4482776 28.0422513,65.3848632 28.0586053,64.8070868 C28.0835257,63.9341592 28.108446,63.7180803 28.1333664,62.8475013 M34.5083044,69.9788895 C34.4896142,69.3478763 34.5690478,69.2085211 35.1764814,69.1928632 C36.0377912,69.1772053 36.7573664,69.2030408 37.5594903,69.1873829 C38.4620743,69.1701592 38.4869947,69.3063829 38.4916673,70.2693434 C38.5033487,72.7213697 38.5212602,74.9549684 38.5212602,77.4069947 C38.5212602,78.7026855 37.9075965,79.1849487 37.0789947,79.2969026 C36.5198442,79.3728434 36.204446,79.3892842 35.6009062,79.3971132 C34.7925522,79.4072908 34.7146761,79.2428829 34.6959858,78.4208434 C34.6329062,75.6071197 34.5706053,72.7933961 34.5083044,69.9788895 M23.9241628,63.6726724 L23.7512779,70.8533829 C23.7512779,73.7148632 23.7029947,73.2169421 23.7512779,76.0760737 C23.8229239,79.9216526 25.3173664,82.6406461 29.2080566,83.2567842 C31.5669239,83.6294421 34.1874549,83.5816855 36.869508,83.3734355 C41.1698265,83.0414882 42.7398088,80.4884684 42.7398088,76.5826066 L42.7398088,73.3625605 C42.6821805,70.2372447 42.6603752,67.0062382 42.5661451,63.8856197 C42.4251894,59.1733763 40.1177204,57.7007513 36.5432071,57.3116526 C34.4195257,57.0799158 32.0287292,57.0133697 29.1239504,57.3116526 C25.3173664,57.7023171 24.0152779,59.9124289 23.9241628,63.6726724" id="Fill-3" fill="#43221B"></path>
            <path d="M71.7421947,75.5393993 C70.4323186,70.4090901 69.1683894,63.9736954 68.1077168,58.7384783 C67.9239292,57.8303204 67.0626195,56.918248 66.0533451,56.9292086 C64.9334867,56.9425178 64.9693097,56.9793138 63.860354,57.0623007 C62.0022301,57.2000901 61.8309027,58.4965638 61.7249912,59.990327 C61.2055575,67.3213533 60.5225841,75.1127217 60.1082832,82.8422414 C60.0490973,83.9406428 60.6308319,84.6757809 61.696177,84.7164914 C62.2747965,84.7376296 62.5987611,84.7501559 63.2318938,84.6789125 C64.4327434,84.5442546 64.7302301,84.094873 64.776177,82.7827414 L65.4077522,64.8372283 C65.4209912,64.4457809 65.6304779,64.415248 65.7402832,64.809827 C66.7518938,68.4408928 67.9184779,74.5553007 69.1193274,79.1305375 C69.5305133,80.6931954 70.6932035,81.1840704 72.1245664,81.1840704 C73.5777345,81.1840704 74.5753274,80.7346888 75.0456991,78.9081954 C76.1040354,74.8019125 77.4014513,68.7947612 78.471469,64.7542414 C78.5812743,64.3369586 78.8141239,64.452827 78.8102301,64.8372283 C78.7479292,70.9563336 78.5361062,76.8225638 78.5096283,83.0771099 C78.5057345,84.0666888 79.1256283,84.757202 80.2049912,84.7814717 C80.720531,84.7916493 81.232177,84.7846033 81.7282478,84.7235375 C82.5965664,84.6170638 83.3122478,84.2412743 83.2483894,82.9753336 C83.2818761,75.7617414 83.0365664,66.8641428 82.6020177,59.0375441 C82.6020177,58.0581428 81.8466195,56.6771164 80.2158938,56.6630243 C79.6606372,56.6520638 79.5477168,56.650498 79.0119292,56.6630243 C77.8905133,56.6896428 76.8602124,57.394248 76.5409204,58.5912941 C75.0745133,64.0911296 73.7077876,70.5468796 72.3317168,75.490077 C72.1230088,76.2416559 71.8831504,76.0913401 71.7421947,75.5393993" id="Fill-5" fill="#43221B"></path>
            <path d="M5.81368496,90.7461901 C5.81524248,97.1557493 5.94529558,106.241243 6.1368708,112.100427 C6.15867611,112.772151 6.54727788,113.494762 7.56511858,113.547216 C8.12582655,113.576184 8.68108319,113.58323 9.23244602,113.547216 C10.3756673,113.472841 10.4660035,112.961611 10.4387469,111.984559 C10.252623,105.382407 9.95980885,99.2139796 9.87103009,92.6133941 C9.86557876,92.1804533 9.92554336,91.936973 10.3491894,91.9424533 C12.0850478,91.9604599 13.6028531,91.9769007 15.3379327,91.9949072 C15.5972602,92.0019533 15.8830655,92.1460059 15.8877381,92.6517559 C15.9484814,99.2210257 15.6097204,105.478703 15.5271717,111.89844 C15.5170478,112.668026 15.9492602,113.414124 16.7311363,113.465012 C17.3673841,113.50494 18.0012956,113.498677 18.628977,113.465012 C19.388269,113.423519 19.8477381,113.032072 19.8570832,112.057368 C19.913154,106.250637 20.0914903,97.7280454 20.0969416,90.7743743 C20.0984991,89.0371309 19.7433841,88.285552 17.8050478,88.2158743 C14.4462513,88.0929599 11.5578265,88.1000059 8.26756106,88.2135257 C6.48419823,88.2745914 5.77318938,89.0050322 5.81368496,90.7461901" id="Fill-7" fill="#43221B"></path>
            <path d="M23.039646,89.6368283 C23.091823,88.5282493 23.639292,88.0765191 24.7381239,88.0608612 C25.324531,88.0538151 25.3751504,88.0538151 25.9576637,88.0592954 C26.7706903,88.0686901 27.5050619,88.6026243 27.4770265,89.475552 C27.3913628,92.1139072 27.1997876,94.9785191 27.0253451,97.7303941 L26.7823717,103.626374 C26.7590088,104.190841 26.8407788,104.218243 27.0136637,103.64673 C28.7362832,97.9597822 30.1279292,94.6951112 32.0374513,89.9750388 C32.4135929,89.0449599 32.9867611,88.3740191 33.883115,88.3145191 C34.5271504,88.270677 34.7864779,88.270677 35.5052743,88.3575783 C36.4974159,88.478927 36.963115,89.155348 36.9841416,90.2067757 C37.1025133,96.0009796 37.1546903,104.696591 36.9000354,111.872605 C36.8626549,112.916203 36.6882124,113.430565 35.672708,113.503374 C35.2303717,113.535473 34.5847788,113.52921 34.1619115,113.503374 C33.3224071,113.453269 32.7772743,112.938907 32.7897345,112.031532 C32.8559292,106.777526 33.1246018,102.282144 33.0989027,97.1494862 C33.0942301,96.2272362 33.0218053,96.1035388 32.7048496,97.068848 C31.1021593,101.946282 29.2455929,106.941934 27.4879292,111.754388 C27.1141239,112.776848 26.6935929,113.234841 25.5028673,113.270855 C24.9670796,113.287295 24.8658407,113.281032 24.3277168,113.258328 C23.3098761,113.214486 22.9656637,112.380703 22.9555398,111.704282 C22.8589735,105.059855 22.7001062,96.8151901 23.039646,89.6368283" id="Fill-9" fill="#43221B"></path>
            <path d="M45.9024354,82.7452408 C47.3088779,79.9409118 48.9100106,77.9100829 50.0166301,74.9296026 C50.4387186,73.7904908 50.4799929,74.0598066 49.8546478,73.1399053 C47.5097982,69.6865566 45.1844177,64.4818724 43.5630372,59.1808921 C43.2040283,58.0049842 43.6432496,57.158675 44.7374088,56.920675 C45.3471788,56.7875829 45.750577,56.7249513 46.350223,56.7155566 C47.0550018,56.7038132 47.6305062,57.2166092 47.7917097,57.9157342 C48.6522407,61.6438789 50.1568071,65.7305895 51.9814442,68.5294382 C52.3778336,69.1377474 52.5966655,69.0899908 52.8419752,68.4221816 C54.0233558,65.2052671 54.7935504,61.0089513 55.4040991,57.7716816 C55.5839929,56.8173329 56.2677451,56.6450961 57.190577,56.6544908 C57.8174796,56.6607539 58.0176212,56.6881553 58.653869,56.7860171 C59.5463292,56.9245895 60.0984708,57.6198 59.9419398,58.3275368 C57.8478513,67.7731618 54.8550726,76.2002408 50.8685947,83.6557474 C50.395108,84.5412013 49.7650903,84.8285237 48.8056566,84.7932934 L47.1430018,84.7118724 C46.2108248,84.6758592 45.4421876,83.6635763 45.9024354,82.7452408" id="Fill-11" fill="#43221B"></path>
            <path d="M6.02511858,82.4432783 C7.4268885,78.8552717 9.1027823,75.0754559 11.2638442,71.043548 C11.5496496,70.5103967 11.5574372,70.2058507 11.264623,69.6499954 C10.0030301,67.2559033 7.8528708,62.8756072 6.4308531,58.4827849 C6.15517168,57.6317783 6.47290619,56.8692388 7.51800354,56.689173 C8.2508177,56.563127 9.08019823,56.5412059 9.6128708,56.6187125 C10.3269947,56.7220546 10.8682336,57.455627 11.0317735,58.0968178 C11.8580389,61.3293901 12.8564106,63.6859033 13.8711363,65.8145941 C14.4481982,67.0257322 14.5104991,66.8049559 14.9808708,65.7785809 C15.9029239,63.769673 16.8826053,61.2072586 17.7330124,58.1007322 C17.9907823,57.1596928 18.6052248,56.7698112 19.5607646,56.7549362 C20.2289416,56.7447586 20.6923044,56.7846862 21.3752779,56.949877 C22.3035611,57.1745678 22.7139681,58.125002 22.440623,58.898502 C21.0411894,62.8529033 19.7663575,66.1042651 17.567915,69.6335546 C17.1271363,70.3412914 17.1536142,70.5448441 17.5943929,71.2604099 C20.0435965,75.2289033 21.8043752,79.0807454 23.0231363,83.1838967 C23.2777912,84.0411664 22.5496496,84.6455612 21.8207292,84.713673 C20.8270301,84.8068375 20.3831363,84.825627 19.4992425,84.7966599 C18.588092,84.766127 18.0850124,83.9738375 17.9767646,83.4884428 C17.3124814,80.5259691 16.6754549,77.9987849 15.1989239,75.1694033 C14.5494372,73.9261664 14.5875965,73.9026796 13.953685,75.1036401 C12.620446,77.6339559 11.5138265,80.973002 10.8472071,82.9537257 C10.560623,83.8055151 10.2241982,84.6455612 9.16741947,84.6729625 C8.49301239,84.6894033 7.82016283,84.6941007 7.15042832,84.6729625 C5.71205664,84.6259888 5.59835752,83.5346336 6.02511858,82.4432783" id="Fill-13" fill="#43221B"></path>
            <path d="M53.4249558,109.65576 L54.3174159,109.686293 C55.187292,109.716043 55.7332035,110.593668 55.8064071,111.407878 C55.979292,113.327536 55.9785133,115.060082 55.6919292,117.017319 C55.5283894,118.132161 55.3555044,118.359201 54.3797168,118.446885 C54.0876814,118.473503 53.3587611,118.439839 53.0667257,118.392082 C51.9795752,118.215148 51.8471858,117.285852 51.9710088,116.636832 C52.143115,115.734937 52.3144425,114.831477 52.4865487,113.929582 C52.5192566,113.757345 52.5044602,113.516997 52.2786195,113.505253 C48.8949027,113.340845 45.6054159,113.541266 42.231823,113.539701 C41.1337699,113.539701 40.3908319,112.875023 40.3456637,111.740609 C40.0606372,104.570076 40.0466195,96.8734375 40.1073628,89.8172072 C40.1143717,88.9630691 40.6735221,88.2561151 41.5690973,88.2169704 C42.0776283,88.1950493 42.3829027,88.2294967 42.9054513,88.2709901 C44.1257699,88.3680691 44.3648496,89.3850493 44.3492743,89.9479507 C44.1896283,95.8173125 44.3539469,104.90124 44.4754336,109.045102 L44.4878938,109.162536 C44.503469,109.378615 44.6888142,109.495266 45.1210265,109.520319 C46.5360354,109.602523 47.5055929,109.652628 48.271115,109.652628 C48.903469,109.653411 48.988354,109.445161 49.0070442,108.799273 C49.1799292,102.70522 49.5778761,96.2118914 49.6775575,90.0082336 C49.6915752,89.1713191 50.1346903,88.4604507 51.2296283,88.4385296 C51.6556106,88.4299178 51.8635398,88.4682796 52.2895221,88.5042928 C53.4638938,88.6037204 53.8104425,89.4774309 53.8143363,90.2102204 C53.8540531,97.226523 53.4413097,103.704977 53.0379115,109.284668 C53.0059823,109.735615 53.3961416,109.640102 53.4249558,109.65576" id="Fill-15" fill="#43221B"></path>
            <path d="M69.4123752,109.641981 L70.3040566,109.672514 C71.8016142,109.723402 72.2423929,111.254744 72.248623,112.577836 C72.2532956,113.806198 72.4744637,114.815349 72.4806938,116.043711 C72.4861451,117.219619 72.3568708,117.970415 70.9535434,118.010343 C70.7238088,118.017389 70.4932956,118.001731 70.2635611,117.970415 C68.7823575,117.769211 68.7410832,116.936994 68.8368708,115.723507 L68.9451186,114.340915 C68.9848354,113.839862 68.9458973,113.507915 68.4311363,113.484428 C66.4990301,113.395178 64.9703221,113.332547 63.1036319,113.323152 C61.4347469,113.322369 59.7650832,113.321586 58.0954195,113.320803 C56.8852248,113.320803 56.4763752,112.580185 56.4927292,111.251612 C56.5464637,106.778935 57.1383221,95.9334941 57.3750655,89.9662704 C57.4140035,88.9931322 57.9311009,88.481902 58.8679504,88.3895204 C59.3141805,88.3456783 59.7938973,88.3668164 60.2907469,88.437277 C61.2657558,88.5750664 61.6652602,89.2640138 61.6154195,90.1682572 C61.2937912,96.0477967 60.6591009,102.835494 60.8755965,108.826987 L60.8864991,109.122139 C60.9028531,109.347612 60.8288708,109.492448 61.2065699,109.513586 C62.7874549,109.602836 64.2842336,109.566823 65.0809062,109.467395 C65.3698265,109.431382 65.3978619,109.355441 65.417331,109.050112 C65.7942513,103.105593 66.0870655,96.4141914 66.0278796,90.273948 C66.0161982,89.0651586 66.1228885,88.5006914 67.480269,88.2760007 C67.793331,88.2243296 68.5269239,88.2055401 68.8026053,88.2305928 C69.8484814,88.3261059 70.2542159,88.9391125 70.2347469,89.8378757 C70.0937912,96.5378888 69.8469239,102.685178 69.4123752,109.641981" id="Fill-17" fill="#43221B"></path>
            <path d="M50.4457274,30.4102151 C51.2696566,30.6114191 51.6076389,32.7064454 51.5951788,33.7375178 C51.5772673,35.1725638 51.6286655,35.6947546 50.1630372,35.5099914 C49.6272496,35.4418796 47.6764531,35.0206822 46.6656212,34.479702 C45.9842053,34.114873 45.9779752,33.8682612 46.4436743,33.3523336 C47.0666832,32.6633862 47.8812673,32.062123 48.4668956,31.4804322 C49.0486301,30.9034388 49.7487363,30.240327 50.4457274,30.4102151 L50.4457274,30.4102151 Z M42.9883115,26.4307612 C43.8722053,26.2029388 45.5512142,26.2060704 46.3548956,26.8676164 C47.1920637,27.7201888 45.5956035,30.1542086 44.8557805,31.6064783 C43.9617628,33.3625112 43.289692,31.6017809 42.8971965,30.4266559 C42.582577,29.4856164 42.2297982,28.3159717 42.2251257,27.4383467 C42.2220106,26.8159454 42.3271434,26.6006493 42.9883115,26.4307612 L42.9883115,26.4307612 Z M37.9925593,30.0461691 C36.741869,30.306873 36.3750726,32.7698599 36.8516743,33.7547414 C37.2784354,34.635498 40.5679221,34.1062612 41.5172319,33.9778664 C42.5210549,33.8416428 42.1449133,33.2771757 41.6753204,32.8818138 C40.542223,31.9274651 40.2019044,31.5070507 39.1692673,30.4383993 C38.8110372,30.0680901 38.361692,29.9686625 37.9925593,30.0461691 L37.9925593,30.0461691 Z M42.0530195,36.0282678 C40.8233558,36.405623 38.8476389,37.4922809 38.7456212,38.2853533 C38.642046,39.0870375 40.662931,40.5181691 41.5966655,40.957373 C42.4517451,41.3597809 42.686931,40.853248 42.7546832,39.960748 C42.827108,38.9891757 42.9384708,37.5408204 42.9641699,36.5935178 C42.9859752,35.7777414 42.6807009,35.8348928 42.0530195,36.0282678 L42.0530195,36.0282678 Z M45.8572673,36.1096888 C46.738046,36.7547941 48.2504,38.220373 48.6171965,38.8435572 C48.8461522,39.2326559 48.9567363,39.5927875 48.6171965,39.9223862 C47.9716035,40.548702 46.3346478,41.6181362 46.047285,40.4923336 C45.9896566,40.2676428 45.2731965,37.7725572 45.1696212,36.5551559 C45.1267894,36.056452 45.3245947,35.7198072 45.8572673,36.1096888 L45.8572673,36.1096888 Z M60.254223,44.2290901 C60.026046,45.1834388 61.6334088,46.1244783 60.1841345,47.1406757 C59.0346832,47.9478401 57.0465062,46.7046033 56.3705416,44.9642283 C55.4648425,42.631202 56.3456212,40.1807414 58.2450195,38.2227217 C60.1342938,36.2748796 61.9511434,35.6759651 63.7524177,36.2224257 C66.5068956,37.0569914 65.5334442,40.3412349 64.3333735,39.871498 C63.3770549,39.6507217 63.4136566,40.7146757 64.3037805,41.3840507 C65.3333027,42.1575507 67.6594619,42.5098533 67.5177274,42.9146099 C67.7723823,43.9448993 65.0724177,47.3183928 63.8575504,46.4626888 C63.6737628,46.2340836 63.1286301,44.7614586 62.4207363,44.1562809 C61.818754,43.6419191 60.625692,42.6805243 60.254223,44.2290901 L60.254223,44.2290901 Z M26.3321699,31.4984388 C25.7044885,31.4318928 25.8711434,31.8883204 26.3866832,32.2836822 C27.8382938,33.3977414 29.8646301,33.0759717 30.7796743,31.4295441 C31.6884885,29.794077 30.3443469,27.7530704 28.8086301,27.2833336 C28.241692,27.1103138 28.2198867,27.4633993 28.466754,27.9018204 C29.5040637,29.7455375 28.574223,31.734873 26.3321699,31.4984388 L26.3321699,31.4984388 Z M28.7393204,43.0171691 C28.7315327,42.3642349 28.114754,41.6611954 27.4457982,41.6611954 C26.3750018,41.6611954 25.8096212,42.7102743 26.2690903,43.6473993 C26.8547186,44.8413138 28.7556743,44.3613993 28.7393204,43.0171691 L28.7393204,43.0171691 Z M29.2221522,46.2951493 C30.3918513,45.7017151 31.1324531,44.4576954 31.1145416,43.0171691 C31.0763823,39.9959783 27.5337982,38.0833664 25.054223,40.0304257 C22.0365239,42.3986822 24.6220106,48.625827 29.2221522,46.2951493 L29.2221522,46.2951493 Z M52.2065062,23.0369125 C51.9175858,23.7305572 51.4331965,23.5105638 51.3304,23.3414586 C48.9917805,19.4653467 46.7520637,17.0931757 40.9845593,18.3356296 C39.2074265,18.7662217 38.2331965,18.1078072 39.6497628,17.194952 C42.4937982,15.5547875 45.5068248,15.4044717 47.6554265,16.3345507 C51.0079929,17.7860375 52.7469664,21.4570309 52.2065062,23.0369125 L52.2065062,23.0369125 Z M14.6491965,45.2155375 C16.3453381,46.3076757 18.3638867,42.0651691 17.2346832,41.3378599 C16.3663646,40.7796559 12.8853027,44.0795572 14.6491965,45.2155375 L14.6491965,45.2155375 Z M44.2452319,24.1032151 C49.7253735,24.1032151 53.7204177,28.4694191 53.6526655,33.8956625 C53.5405239,42.869202 42.585692,47.5673533 36.4529487,39.5254586 C35.2614442,37.9643664 34.5660106,36.1143862 34.594046,33.8956625 C34.6586832,28.7434322 39.1521345,24.1032151 44.2452319,24.1032151 L44.2452319,24.1032151 Z M3.62816991,52.3571033 C0.109727434,52.3571033 -0.808431858,49.3609651 1.36119646,47.0897875 L42.6168425,3.92880066 C42.7056212,4.06893882 42.7990726,4.20985987 42.8971965,4.35156382 C44.3122053,6.38709013 46.8470726,8.45158355 50.7159575,9.65254408 C51.8848779,10.0150243 52.1480991,10.4276099 52.4253381,11.549498 C53.6448779,16.4950441 56.5527717,18.5861559 60.2238513,19.6571559 C62.7462584,20.393077 62.3747894,20.3312283 62.5492319,23.3171888 C62.7657274,27.034373 65.8254796,29.949873 69.3571611,30.8971757 C71.1311788,31.3723928 70.9434973,31.898498 71.0104708,33.7570901 C71.1638867,38.026998 72.8631434,40.8109717 76.6525947,43.1541757 C77.7319575,43.8219849 77.4850903,44.5970507 77.3371257,45.955373 C77.0388602,48.7033336 78.1330195,50.3990836 79.1345062,52.3571033 L3.62816991,52.3571033 Z M80.4560637,52.3571033 L84.1255858,52.3571033 C87.9781168,52.3571033 88.4375858,49.3092941 87.4695858,46.208248 C81.3975858,26.7423533 66.9764885,10.9043928 52.5842053,1.69363618 C49.9613381,0.0151098684 46.7357097,-0.381034868 44.430577,2.03028092 L43.6354619,2.86249803 C45.3837805,5.86333355 47.9645947,6.98757039 51.2034619,8.06405066 C52.7142584,8.56588618 53.497692,8.54239934 53.9135504,10.5333007 C54.7257982,14.4211559 57.8299398,17.0916099 61.6038159,17.9848928 C64.4494088,18.6589651 64.3333735,19.2015112 64.5342938,21.8218599 C64.8146478,25.4646691 67.8050903,28.4013072 71.1802407,29.6179257 C72.4737628,30.083748 73.1030018,30.6959717 73.0259044,32.9460112 C72.8966301,36.7508796 75.0833912,40.5596625 78.1836389,42.1411099 C79.6609487,42.8950375 79.6866478,43.7601362 79.2933735,45.4449257 C78.7887363,47.6025836 79.5051965,50.366202 80.4560637,52.3571033 L80.4560637,52.3571033 Z" id="Fill-19" fill="#43221B"></path>
            <path d="M82.8570619,11.7135928 C82.8570619,10.7412375 82.5159646,9.91136908 81.8306549,9.22242171 C81.1469027,8.53425724 80.3206372,8.18978355 79.3534159,8.18978355 C78.3869735,8.18978355 77.5622655,8.53425724 76.8769558,9.22242171 C76.1939823,9.91136908 75.8521062,10.7412375 75.8521062,11.7135928 C75.8521062,12.685948 76.1939823,13.5173822 76.8769558,14.2055467 C77.5622655,14.8944941 78.3869735,15.2381849 79.3534159,15.2381849 C80.3206372,15.2381849 81.1469027,14.8944941 81.8306549,14.2055467 C82.5159646,13.5173822 82.8570619,12.685948 82.8570619,11.7135928 M83.7136991,11.7730928 C83.7136991,12.5685138 83.5143363,13.3099151 83.1195044,13.994948 C82.7254513,14.6815467 82.1865487,15.2217441 81.5035752,15.6186717 C80.8221593,16.0140336 80.0862301,16.2128888 79.2950088,16.2128888 C78.5092389,16.2128888 77.7748673,16.0140336 77.0926726,15.6186717 C76.4096991,15.2217441 75.8707965,14.6815467 75.4751858,13.994948 C75.0811327,13.3099151 74.8841062,12.5685138 74.8841062,11.7730928 C74.8841062,10.983152 75.0811327,10.2417507 75.4751858,9.55515197 C75.8707965,8.86620461 76.4096991,8.32444145 77.0926726,7.9298625 C77.7748673,7.53215197 78.5092389,7.33564539 79.2950088,7.33564539 C80.0862301,7.33564539 80.8221593,7.53215197 81.5035752,7.9298625 C82.1865487,8.32444145 82.7254513,8.86620461 83.1195044,9.55515197 C83.5143363,10.2417507 83.7136991,10.983152 83.7136991,11.7730928" id="Fill-21" fill="#5E4036"></path>
            <path d="M78.8810973,11.3485289 L79.0368496,11.3485289 C79.4270088,11.3485289 79.9417699,11.2584961 79.9822655,10.7284763 C80.0227611,10.1835816 79.508,10.0755421 79.0851327,10.0755421 L78.9348319,10.0755421 C78.7969912,10.0755421 78.7432566,10.076325 78.7378053,10.2563908 C78.7269027,10.5773776 78.7284602,10.8913184 78.7378053,11.2005618 C78.7409204,11.3046868 78.7837522,11.3485289 78.8810973,11.3485289 M78.0345841,9.18930526 C78.5135221,9.17991053 78.9932389,9.17991053 79.4737345,9.18930526 C80.4066903,9.20809474 81.2080354,9.57135789 81.2080354,10.6924632 C81.2080354,11.474575 80.8646018,11.8378382 80.2431504,12.0233842 C80.1863009,12.039825 80.1800708,12.0907132 80.2267965,12.1282921 C80.7618053,12.5635816 80.9930973,12.9425026 81.3186195,13.5562921 C81.4315398,13.7708053 81.4097345,14.0643908 81.212708,14.16695 C81.072531,14.2397592 80.9097699,14.2789039 80.7547965,14.2789039 C80.3404956,14.2789039 80.2244602,14.1465947 80.0476814,13.7856803 C79.716708,13.110825 79.4869735,12.6958908 79.3584779,12.5432263 C79.2011681,12.3537658 79.0438584,12.2582526 78.8865487,12.2582526 C78.7105487,12.2582526 78.7284602,12.2793908 78.7284602,12.4344039 C78.7276814,12.8775224 78.7494867,13.3856211 78.7494867,13.8122987 C78.7494867,14.0675224 78.5602478,14.2781211 78.2915752,14.2789039 L78.0135575,14.2789039 C77.7456637,14.2789039 77.5385133,14.0745684 77.5315044,13.8107329 C77.4995752,12.5338316 77.5073628,11.0940882 77.5424071,9.81718684 C77.5540885,9.39050921 77.6467611,9.19713421 78.0345841,9.18930526" id="Fill-23" fill="#5E4036"></path>
        </g>
    </g>
</svg>