<?xml version="1.0" encoding="UTF-8"?>
<svg width="88px" height="53px" viewBox="0 0 88 53" version="1.1" xmlns="http://www.w3.org/2000/svg" xmlns:xlink="http://www.w3.org/1999/xlink">
    <!-- Generator: Sketch 53.2 (72643) - https://sketchapp.com -->
    <title>Group</title>
    <desc>Created with Sketch.</desc>
    <g id="Page-1" stroke="none" stroke-width="1" fill="none" fill-rule="evenodd">
        <g id="Group" transform="translate(0.195761, 0.328187)" fill="#360300" fill-rule="nonzero">
            <path d="M3.43240896,52.0289166 C-0.0860335137,52.0289166 -1.00419281,49.0327784 1.16543551,46.7616008 L42.4210816,3.60061398 C42.5098603,3.74075214 42.6033117,3.88167319 42.7014356,4.02337714 C44.1164444,6.05890345 46.6513117,8.12339687 50.5201966,9.3243574 C51.689117,9.68683762 51.9523382,10.0994232 52.2295772,11.2213113 C53.449117,16.1668574 56.3570108,18.2579692 60.0280904,19.3289692 C62.5504975,20.0648903 62.1790285,20.0030416 62.353471,22.9890021 C62.5699665,26.7061863 65.6297187,29.6216863 69.1614002,30.568989 C70.9354179,31.0442061 70.7477364,31.5703113 70.8147099,33.4289034 C70.9681258,37.6988113 72.6673825,40.482785 76.4568338,42.825989 C77.5361966,43.4937982 77.2893294,44.268864 77.1413648,45.6271863 C76.8430993,48.3751469 77.9372586,50.0708969 78.9387453,52.0289166 L3.43240896,52.0289166 Z M60.0584621,43.9009034 C60.4299311,42.3523376 61.6229931,43.3137324 62.2249754,43.8280942 C62.9328692,44.4332719 63.4780019,45.9058969 63.6617895,46.1345021 C64.8766568,46.9902061 67.5766214,43.6167126 67.3219665,42.5864232 C67.463701,42.1816666 65.1375418,41.829364 64.1080196,41.055864 C63.2178957,40.386489 63.181294,39.322535 64.1376126,39.5433113 C65.3376833,40.0130482 66.3111347,36.7288047 63.5566568,35.894239 C61.7553825,35.3477784 59.9385329,35.9466929 58.0492586,37.894535 C56.1498603,39.8525547 55.2690816,42.3030153 56.1747807,44.6360416 C56.8507453,46.3764166 58.8389223,47.6196534 59.9883736,46.812489 C61.4376479,45.7962916 59.8302851,44.8552521 60.0584621,43.9009034 Z M26.136409,31.1702521 C25.5087276,31.1037061 25.6753825,31.5601337 26.1909223,31.9554955 C27.6425329,33.0695547 29.6688692,32.747785 30.5839134,31.1013574 C31.4927276,29.4658903 30.148586,27.4248837 28.6128692,26.9551469 C28.0459311,26.7821271 28.0241258,27.1352126 28.2709931,27.5736337 C29.3083028,29.4173508 28.3784621,31.4066863 26.136409,31.1702521 Z M29.0263913,45.9669626 C30.1960904,45.3735284 30.9366922,44.1295087 30.9187807,42.6889824 C30.8806214,39.6677916 27.3380373,37.7551797 24.8584621,39.702239 C21.840763,42.0704955 24.4262497,48.2976403 29.0263913,45.9669626 Z M52.0107453,22.7087258 C52.5512055,21.1288442 50.812232,17.4578508 47.4596656,16.006364 C45.3110639,15.076285 42.2980373,15.2266008 39.4540019,16.8667653 C38.0374356,17.7796205 39.0116656,18.438035 40.7887984,18.0074429 C46.5563028,16.764989 48.7960196,19.13716 51.1346391,23.0132719 C51.2374356,23.1823771 51.7218249,23.4023705 52.0107453,22.7087258 Z M14.4534356,44.8873508 C16.1495772,45.979489 18.1681258,41.7369824 17.0389223,41.0096732 C16.1706037,40.4514692 12.6895418,43.7513705 14.4534356,44.8873508 Z M44.049471,23.7750284 C38.9563736,23.7750284 34.4629223,28.4152455 34.3982851,33.5674758 C34.3702497,35.7861995 35.0656833,37.6361797 36.2571878,39.1972719 C42.3899311,47.2391666 53.344763,42.5410153 53.4569046,33.5674758 C53.5246568,28.1412324 49.5296126,23.7750284 44.049471,23.7750284 Z M50.2499665,30.0820284 C51.0738957,30.2832324 51.411878,32.3782587 51.3994179,33.4093311 C51.3815064,34.8443771 51.4329046,35.3665679 49.9672763,35.1818047 C49.4314887,35.1136929 47.4806922,34.6924955 46.4698603,34.1515153 C45.7884444,33.7866863 45.7822143,33.5400745 46.2479134,33.0241469 C46.8709223,32.3351995 47.6855064,31.7339363 48.2711347,31.1522455 C48.8528692,30.5752521 49.5529754,29.9121403 50.2499665,30.0820284 Z M42.7925506,26.1025745 C43.6764444,25.8747521 45.3554533,25.8778837 46.1591347,26.5394297 C46.9963028,27.3920021 45.3998426,29.8260219 44.6600196,31.2782916 C43.7660019,33.0343245 43.0939311,31.2735942 42.7014356,30.0984692 C42.3868161,29.1574297 42.0340373,27.987785 42.0293648,27.11016 C42.0262497,26.4877587 42.1313825,26.2724626 42.7925506,26.1025745 Z M37.7967984,29.7179824 C38.1659311,29.6404758 38.6152763,29.7399034 38.9735064,30.1102126 C40.0061435,31.178864 40.3464621,31.5992784 41.4795595,32.5536271 C41.9491524,32.948989 42.325294,33.5134561 41.321471,33.6496797 C40.3721612,33.7780745 37.0826745,34.3073113 36.6559134,33.4265547 C36.1793117,32.4416732 36.5461081,29.9786863 37.7967984,29.7179824 Z M41.8572586,35.7000811 C42.48494,35.5067061 42.7902143,35.4495547 42.768409,36.2653311 C42.7427099,37.2126337 42.6313471,38.660989 42.5589223,39.6325613 C42.4911701,40.5250613 42.2559842,41.0315942 41.4009046,40.6291863 C40.4671701,40.1899824 38.4462851,38.7588508 38.5498603,37.9571666 C38.651878,37.1640942 40.6275949,36.0774363 41.8572586,35.7000811 Z M45.6615064,35.7815021 C46.5422851,36.4266074 48.0546391,37.8921863 48.4214356,38.5153705 C48.6503913,38.9044692 48.7609754,39.2646008 48.4214356,39.5941995 C47.7758426,40.2205153 46.1388869,41.2899495 45.8515241,40.1641469 C45.7938957,39.9394561 45.0774356,37.4443705 44.9738603,36.2269692 C44.9310285,35.7282653 45.1288338,35.3916205 45.6615064,35.7815021 Z" id="Combined-Shape"></path>
            <path d="M28.5435595,42.6889824 C28.5357718,42.0360482 27.9189931,41.3330087 27.2500373,41.3330087 C26.1792409,41.3330087 25.6138603,42.3820876 26.0733294,43.3192126 C26.6589577,44.5131271 28.5599134,44.0332126 28.5435595,42.6889824 L28.5435595,42.6889824 Z" id="Fill-19-path"></path>
            <path d="M80.2603028,52.0289166 L83.9298249,52.0289166 C87.7823559,52.0289166 88.2418249,48.9811074 87.2738249,45.8800613 C81.2018249,26.4141666 66.7807276,10.5762061 52.3884444,1.3654495 C49.7655772,-0.313076816 46.5399488,-0.709221552 44.2348161,1.70209424 L43.439701,2.53431135 C45.1880196,5.53514687 47.7688338,6.65938371 51.007701,7.73586398 C52.5184975,8.2376995 53.3019311,8.21421266 53.7177895,10.205114 C54.5300373,14.0929692 57.6341789,16.7634232 61.408055,17.6567061 C64.2536479,18.3307784 64.1376126,18.8733245 64.3385329,21.4936732 C64.6188869,25.1364824 67.6093294,28.0731205 70.9844798,29.289739 C72.2780019,29.7555613 72.9072409,30.367785 72.8301435,32.6178245 C72.7008692,36.4226929 74.8876303,40.2314758 77.987878,41.8129232 C79.4651878,42.5668508 79.4908869,43.4319495 79.0976126,45.116739 C78.5929754,47.2743969 79.3094356,50.0380153 80.2603028,52.0289166 L80.2603028,52.0289166 Z" id="Fill-19-path"></path>
        </g>
    </g>
</svg>
