<?xml version="1.0" encoding="UTF-8"?>
<svg width="88px" height="114px" viewBox="0 0 88 114" version="1.1" xmlns="http://www.w3.org/2000/svg" xmlns:xlink="http://www.w3.org/1999/xlink">
    <!-- Generator: Sketch 43.1 (39012) - http://www.bohemiancoding.com/sketch -->
    <title>logo</title>
    <desc>Created with Sketch.</desc>
    <defs></defs>
    <g id="Page-1" stroke="none" stroke-width="1" fill="none" fill-rule="evenodd">
        <g id="logo" fill="#F36C2D">
            <path d="M82.612531,11.7882247 C82.612531,10.8184438 82.2714336,9.9907726 81.5861239,9.30364932 C80.9031504,8.61730685 80.0761062,8.27374521 79.108885,8.27374521 C78.1432212,8.27374521 77.3177345,8.61730685 76.6324248,9.30364932 C75.9486726,9.9907726 75.6075752,10.8184438 75.6075752,11.7882247 C75.6075752,12.7580055 75.9486726,13.5872384 76.6324248,14.2735808 C77.3177345,14.9607041 78.1432212,15.3034849 79.108885,15.3034849 C80.0761062,15.3034849 80.9031504,14.9607041 81.5861239,14.2735808 C82.2714336,13.5872384 82.612531,12.7580055 82.612531,11.7882247 M83.4699469,11.8475671 C83.4699469,12.6408822 83.2698053,13.3803205 82.8749735,14.0635397 C82.4801416,14.7483205 81.9420177,15.2870877 81.2590442,15.6829644 C80.5784071,16.0772795 79.8416991,16.2756082 79.0504779,16.2756082 C78.264708,16.2756082 77.531115,16.0772795 76.8481416,15.6829644 C76.1651681,15.2870877 75.6254867,14.7483205 75.2306549,14.0635397 C74.8366018,13.3803205 74.6395752,12.6408822 74.6395752,11.8475671 C74.6395752,11.058937 74.8366018,10.3202795 75.2306549,9.63549863 C75.6254867,8.94837534 76.1651681,8.40804658 76.8481416,8.01373151 C77.531115,7.61785479 78.264708,7.42186849 79.0504779,7.42186849 C79.8416991,7.42186849 80.5784071,7.61785479 81.2590442,8.01373151 C81.9420177,8.40804658 82.4801416,8.94837534 82.8749735,9.63549863 C83.2698053,10.3202795 83.4699469,11.058937 83.4699469,11.8475671" id="Fill-1"></path>
            <path d="M78.6366442,11.423737 L78.7923965,11.423737 C79.1825558,11.423737 79.6973168,11.3347233 79.7370336,10.805326 C79.778308,10.261874 79.2635469,10.1549014 78.8406796,10.1549014 L78.6903788,10.1549014 C78.5525381,10.1549014 78.4988035,10.1549014 78.4925735,10.3344904 C78.4824496,10.6546274 78.4840071,10.9685178 78.4925735,11.2761616 C78.4956885,11.3807918 78.5392991,11.423737 78.6366442,11.423737 M77.790131,9.27101096 C78.2682903,9.26086027 78.7487858,9.2616411 79.2300602,9.27101096 C80.1622372,9.28975068 80.9628035,9.65127123 80.9628035,10.770189 C80.9628035,11.5494493 80.6201487,11.9125315 79.9979186,12.0968055 C79.9418478,12.1132027 79.9356177,12.1639562 79.9823434,12.2014356 C80.5165735,12.6355726 80.7486442,13.0134904 81.0741664,13.6264356 C81.1870867,13.8396 81.1645027,14.1324082 80.9682549,14.2346959 C80.8280779,14.3080932 80.6653168,14.3463534 80.5095646,14.3463534 C80.0952637,14.3463534 79.9807858,14.2143945 79.8024496,13.8552164 C79.4714761,13.1821479 79.2417416,12.7683123 79.113246,12.6160521 C78.9559363,12.4270932 78.7994053,12.3310521 78.6420956,12.3310521 C78.4660956,12.3310521 78.4840071,12.3521342 78.4840071,12.506737 C78.4832283,12.9486822 78.5042549,13.4562164 78.5042549,13.8809836 C78.5042549,14.1355315 78.3165735,14.3455726 78.0463434,14.3463534 L77.7698832,14.3463534 C77.5004319,14.3463534 77.2932814,14.1433397 77.2878301,13.8794219 C77.2559009,12.6059014 77.2629097,11.1707507 77.297954,9.89644932 C77.3104142,9.47090137 77.4015292,9.27881918 77.790131,9.27101096" id="Fill-3"></path>
            <path d="M6.17876814,40.6580219 C7.1156177,39.5328575 8.3756531,39.5664329 9.47915752,40.4495425 C10.6465204,41.3849671 11.6900602,42.3812959 12.612892,43.4424329 C14.2662018,45.3445151 15.5480425,47.4761589 16.4926796,49.8717205 C17.0923257,51.3935425 17.1047858,52.3242822 15.2279717,52.3242822 L3.33239646,52.3242822 C-0.186046018,52.3242822 -0.805939823,49.5859397 1.06542301,47.0709123 C2.35427257,45.3382685 4.10882124,43.1449397 6.17876814,40.6580219 L6.17876814,40.6580219 Z M16.3454938,28.9004055 C14.4733522,30.9883233 12.6417062,33.0364192 10.9588035,35.0353233 C10.1551221,35.9910493 10.4907681,37.0396932 11.2578478,37.6401452 C12.6915469,38.7614055 13.9679363,39.9662137 15.0963611,41.2639397 C17.3539894,43.8601726 19.0041841,46.8046521 20.1139186,50.1645288 C20.3109451,50.7602959 21.0203965,52.3242822 22.6262018,52.3242822 L32.9689274,52.3242822 C34.1806796,52.3484877 34.3636885,51.1241589 34.1487504,50.4596795 C32.6254938,45.756789 30.7042903,41.7316521 28.1826619,38.1578301 C25.7614938,34.7268986 22.7609274,31.6801315 19.0018478,28.8168575 C18.2028389,28.2093781 17.0448212,28.1203644 16.3454938,28.9004055 L16.3454938,28.9004055 Z M26.692892,17.5605288 C27.5214938,16.6735151 28.0409274,16.7289534 29.0097062,17.5019671 C33.5825912,21.1507479 37.6360425,25.4398027 41.0828389,29.9966795 C46.0287504,36.5352822 49.7270867,43.6118712 51.9348743,50.1356384 C52.5726796,52.0182 51.9154053,52.3242822 50.4910513,52.3242822 L40.1966088,52.3242822 C38.5580956,52.3242822 37.9942726,51.6730767 37.5145558,50.1379808 C35.8589097,44.8330767 33.729777,40.2988438 30.8732814,36.251063 C28.3158301,32.6272685 25.1953345,29.4219945 21.3334584,26.4322274 C20.1964673,25.5522411 20.1785558,24.6378986 21.1512283,23.5689534 C23.0054584,21.5325699 24.8690336,19.5118027 26.692892,17.5605288 L26.692892,17.5605288 Z M55.6386619,7.56054247 C56.2655646,8.24454247 55.9548389,9.42280274 55.2469451,9.95298082 C50.2620956,13.6915562 45.7234761,17.997789 41.5773522,22.8599671 C40.9520071,23.5931589 40.2191929,23.6993507 39.5525735,22.9560082 C37.1625558,20.2934055 34.5622726,17.7752548 31.7704142,15.4819808 C30.5158301,14.4505151 30.6085027,13.4213918 31.5071929,12.4758164 C35.7272991,8.03528219 39.4980602,4.34746027 42.0376,2.13070685 C44.5459894,-0.0587178082 48.0075823,-0.4218 50.1904496,1.79495342 C51.7362903,3.36362466 53.5920779,5.33051507 55.6386619,7.56054247 L55.6386619,7.56054247 Z M66.9018832,20.2809123 C64.5897416,17.5902 62.2760425,14.9439945 60.0698124,12.4664466 C59.5386973,11.8706795 58.5543434,11.6262822 57.8791575,12.1213233 C52.7042903,15.9176795 48.024715,20.3402548 43.7719009,25.3812411 C42.9884673,26.3104192 42.9853522,27.043611 43.7088212,27.999337 C46.0793699,31.1327753 48.1765735,34.3895836 49.977069,37.6581041 C50.5876177,38.7684329 51.2705912,38.5966521 51.9613522,37.5847068 C55.2555115,32.7584466 59.3253168,28.3093233 64.1108035,24.6254055 C64.8350513,24.0686795 65.5740956,23.5291315 66.3302726,23.0091041 C67.1121487,22.4711178 67.5832991,21.0742274 66.9018832,20.2809123 L66.9018832,20.2809123 Z M77.1067681,32.5078027 C77.9104496,33.5049123 77.5545558,35.3476521 76.4860956,36.0269671 C74.5321841,37.2700356 72.8220248,38.6856658 71.322131,40.2769808 C68.6844673,43.0754466 66.7251044,46.3923781 65.2641487,50.2480767 C64.686308,51.7714603 63.6201841,52.3242822 62.244892,52.3242822 L57.9617062,52.3242822 C56.2920425,52.3242822 55.9229097,51.7394466 55.3466265,49.9466795 C54.7173876,47.9899397 53.9565381,45.9801041 53.0742018,43.9491863 C52.7525735,43.2089671 52.8460248,42.3180493 53.2642195,41.6418575 C56.593423,36.2518438 60.9062018,31.2678575 66.1161133,27.258337 C66.7959717,26.7344055 67.4921841,26.2284329 68.2024142,25.7396384 C69.4554407,24.877611 71.0628035,25.1735425 72.0245735,26.3252548 C73.7876885,28.4350356 75.4994053,30.515926 77.1067681,32.5078027 L77.1067681,32.5078027 Z M83.8290336,52.3242822 C87.6823434,52.3242822 88.7671575,49.010474 87.1730336,46.1917068 C86.249423,44.5574466 84.6077947,42.1985836 82.4950159,39.3915288 C81.5122195,38.0867753 80.0979894,37.6971452 78.6681841,38.5693233 C76.7734584,39.7257205 75.1372814,41.0499945 73.7277239,42.5460493 C71.7917239,44.599611 70.2622372,46.993611 69.0465912,49.7350767 C68.2818478,51.461474 69.5613522,52.3242822 70.8112637,52.3242822 L83.8290336,52.3242822 Z" id="Fill-5"></path>
            <path d="M30.8595752,70.3891438 C30.8829381,73.2266507 30.8229735,76.0048151 30.756,78.8415411 C30.7412035,79.4599521 30.6493097,79.6450068 30.0543363,79.6590616 C29.664177,79.6684315 29.2903717,79.6044041 28.9305841,79.4435548 C28.1596106,79.0984315 27.2539115,78.1551986 27.2539115,77.0409658 L27.2539115,75.8369384 C27.2632566,73.7216918 27.271823,72.7011575 27.2811681,70.5866918 C27.2850619,69.6434589 27.708708,69.349089 28.6315398,69.3670479 C29.3947257,69.384226 29.3534513,69.3920342 30.1166372,69.4076507 C30.7482124,69.4217055 30.8549027,69.7418425 30.8595752,70.3891438 M27.2749381,64.8421849 C27.2850619,64.504089 27.3115398,63.9005137 27.3715044,63.5835 C27.5210265,62.8003356 28.1666195,61.8969247 29.2724602,61.7399795 C30.5067965,61.5635137 34.1225841,61.4908973 35.5157876,61.8461712 C36.4495221,62.0835411 37.144177,63.1681027 37.2189381,64.0972808 C37.2500885,64.4876918 37.2617699,64.789089 37.2859115,65.2193219 C37.2859115,66.0790068 37.111469,66.1250753 36.3693097,66.0930616 C33.399115,65.9931164 30.9958584,65.898637 28.024885,65.7986918 C27.3886372,65.7783904 27.2585841,65.4184315 27.2749381,64.8421849 M33.4980177,70.4875274 C33.4801062,69.8581849 33.7495575,69.5208699 34.3569912,69.5052534 C35.2183009,69.489637 35.279823,69.5216507 36.0811681,69.5060342 C36.984531,69.489637 37.251646,69.6208151 37.2570973,70.5820068 C37.2687788,73.0275411 37.2859115,74.8125 37.2859115,77.2588151 C37.2859115,78.2715411 36.6372035,79.0586096 35.9573451,79.4045137 C35.5812035,79.5958151 35.0080354,79.6801438 34.5867257,79.6856096 C33.7783717,79.6957603 33.7004956,79.5310068 33.6818053,78.7119247 C33.6195044,75.9056507 33.5610973,73.2945822 33.4980177,70.4875274 M23.1311504,64.6672808 L22.9582655,71.1645 C22.9582655,74.0184041 22.9099823,72.8581027 22.9582655,75.7088836 C23.0820885,82.4106781 27.0413097,83.8637877 32.5082124,83.8091301 C37.6293451,83.7583767 41.5052389,82.2506096 41.5052389,75.7721301 C41.5052389,71.5541301 41.4585133,68.8720068 41.3315752,64.6571301 C41.143115,58.3629247 37.0476106,57.4829384 32.0464071,57.4595137 C26.9829027,57.436089 23.2993628,58.3488699 23.1311504,64.6672808" id="Fill-7"></path>
            <path d="M71.0702796,73.726689 C69.7604035,68.6107438 68.699731,64.5684288 67.6398372,59.3478534 C67.2847221,57.600374 65.7412177,56.8078397 64.2724743,56.9335521 C61.8435186,57.1404699 61.2758018,58.1875521 61.0920142,60.7673877 C60.5733593,68.0797849 59.9495717,74.5770041 59.5352708,82.2860589 C59.446492,83.9453055 60.5476602,84.6386753 61.9097133,84.6129082 C63.4851469,84.583237 64.1385274,83.9421822 64.2031646,82.2267164 L64.8137133,66.207374 C64.827731,65.816963 65.2108814,65.7927575 65.319908,66.1862918 C66.3299611,69.806963 67.2341027,73.5916068 68.4349522,78.1539493 C68.8453593,79.7124699 70.1201912,80.6322781 71.551554,80.6322781 C73.0047221,80.6322781 74.1074478,79.7702507 74.5785982,77.949374 C75.6361558,73.853963 76.6695717,70.2036205 77.7395894,66.1737986 C77.8493947,65.7584014 78.2325451,65.9817164 78.2286513,66.3635384 C78.167908,72.4680041 77.9630938,76.0597849 77.9366159,82.2985521 C77.9303858,83.8968945 79.194315,84.705826 80.4566867,84.6581959 C81.7159434,84.6113466 82.7532531,83.7313603 82.6745982,82.197826 C82.7088637,75.0025521 82.4884743,67.2521137 82.0539257,59.446237 C82.0539257,57.6323877 80.5773947,56.6079493 78.9949522,56.609511 C77.5612531,56.6118534 76.2381381,57.5355658 75.8324035,59.0519219 C74.3659965,64.5364151 73.2297841,68.794237 71.854492,73.7227849 C71.6457841,74.472374 71.2112354,74.2771685 71.0702796,73.726689" id="Fill-9"></path>
            <path d="M67.0913558,89.8570644 C67.1614442,88.381311 68.2626124,88.0580507 69.4097274,88.0580507 C70.3084177,88.0580507 71.5668956,88.5117082 71.5287363,89.6962151 C71.4438513,92.3275849 71.2522761,94.9636397 71.0770549,97.7074479 L70.8348602,103.588599 C70.8114973,104.15079 70.8932673,104.1789 71.0661522,103.607338 C73.6236035,97.9362288 75.062754,94.901174 77.4138336,90.1943795 C77.9231434,88.9395986 79.0648071,88.183763 80.3357451,88.2938589 C81.5584,88.4000507 82.5520991,88.9317904 82.581692,90.4247219 C82.699285,96.2043658 82.7514619,104.213256 82.4975858,111.37027 C82.4454088,112.831968 81.8348602,113.311393 80.5678159,113.318421 C79.5071434,113.324667 78.3693735,112.868667 78.3865062,111.528777 C78.4534796,106.288681 78.7221522,102.247147 78.6956743,97.1288589 C78.6917805,96.2082699 78.6193558,96.0849 78.3024,97.0484342 C76.0369841,101.912174 74.1811965,106.895379 71.7608071,111.694311 C71.0910726,113.022489 70.3325593,113.255955 69.0444885,113.214571 C68.0079575,113.181777 67.0259398,112.689859 67.0080283,111.423366 C66.9122407,104.797311 66.7525947,97.0164205 67.0913558,89.8570644" id="Fill-11"></path>
            <path d="M45.5468531,81.7682178 C46.2134726,80.548574 48.3901097,77.7227795 49.1673133,75.6528205 C49.5925168,74.5198479 49.8082336,74.5424918 49.0614018,73.7226288 C46.2851186,70.6750808 43.8211186,65.1859027 42.548623,59.5788205 C42.1849416,57.9781356 42.9372248,57.0130397 44.1886938,56.7873822 C45.2026407,56.603889 46.5187469,56.9341767 46.7772956,58.3170123 C47.5264637,62.3241904 48.9881982,66.7209986 51.029331,68.9463411 C51.5183929,69.4796425 51.9474903,69.2750671 52.1920212,68.609026 C53.3734018,65.4006288 53.7791363,61.1810671 54.3889062,57.9515877 C54.6233133,56.7108616 55.8810124,56.5664096 56.8116319,56.639026 C57.6667115,56.7069575 59.1237735,57.4167247 58.9275257,58.7269438 C57.4611186,68.5184507 54.8888708,76.1431767 50.2965168,83.1034233 C49.5800566,84.4394096 48.3488354,84.6978616 47.1378619,84.6385192 C46.1379327,84.5885466 44.764977,83.3228342 45.5468531,81.7682178" id="Fill-13"></path>
            <path d="M5.45171681,81.7209781 C6.85348673,78.1424712 8.53015929,75.0355808 10.6912212,71.0151288 C10.9770265,70.483389 10.9840354,70.1796493 10.6912212,69.6252658 C9.43040708,67.2375123 7.27946903,63.5317315 5.85745133,59.1521014 C5.35359292,57.5982658 6.91890265,56.6854849 8.00916814,56.6175534 C9.21157522,56.5425945 10.2979469,57.2718822 10.6795398,58.7671562 C11.5058053,61.990389 12.171646,63.441937 13.1863717,65.5649918 C13.7626549,66.7713616 13.9370973,66.7877589 14.407469,65.7641014 C15.3295221,63.7612932 16.0888142,61.6476082 16.9392212,58.5493068 C17.3161416,57.1766219 18.4858407,56.6768959 19.6570973,56.7948 C20.756708,56.9048959 22.164708,57.663074 21.6468319,59.123211 C20.248177,63.0663616 19.1937345,66.0889233 16.9945133,69.6088685 C16.5537345,70.3147315 16.5809912,70.5177452 17.0217699,71.2314164 C19.4701947,75.1894027 21.0105841,78.1455945 22.2293451,82.2378822 C22.6584425,83.6800603 21.3423363,84.624074 19.9989735,84.6553068 C18.4702655,84.6920055 17.5046018,84.198526 17.1821947,82.7633753 C16.519469,79.8079644 16.1729204,78.0878137 14.6963894,75.2659233 C14.0476814,74.0267589 13.9098407,74.0650192 13.2759292,75.2635808 C11.9419115,77.7871973 10.9404248,80.2538137 10.2738053,82.2292932 C9.62509735,84.1563616 9.15472566,84.6365671 7.44534513,84.6217315 C5.93922124,84.6076767 4.72357522,83.5801151 5.45171681,81.7209781" id="Fill-15"></path>
            <path d="M42.7888708,113.321388 C41.6915965,113.321388 40.285154,111.99321 40.2407646,110.86336 C39.9565168,103.711032 40.1621097,96.9194425 40.2228531,89.8826753 C40.2337558,88.5584014 41.0646938,88.0133877 42.2639858,88.0641411 C43.5582867,88.1195795 44.5075965,88.4404973 44.4647646,90.0130726 C44.3058973,95.8668945 44.4702159,104.484045 44.5917027,108.616936 C44.6337558,109.024525 44.8268885,109.288442 45.2365168,109.311867 C46.6515257,109.393853 47.833685,109.265799 48.6069947,109.222853 C49.2385699,109.188497 49.3257912,109.014374 49.3437027,108.371758 C49.5142513,102.294621 49.6957027,96.0378945 49.7938265,89.8522233 C49.8179681,88.3257164 50.7672779,87.9954288 52.0506761,88.0852233 C53.3706761,88.1765795 54.3020743,88.5076479 54.2140743,90.1239493 C53.8940035,95.9871411 53.2577558,102.314141 53.4742513,108.290552 C53.4898265,108.720004 53.696977,109.165853 54.2460035,109.196305 C55.8276673,109.284538 57.1032779,109.248621 57.9007292,109.150237 C58.188092,109.1151 58.4380743,108.816045 58.4575434,108.513086 C58.833685,102.585086 59.1272779,96.5751 59.068092,90.4503329 C59.0509593,88.6880178 59.5127646,88.2335795 61.2151363,88.1851685 C62.5779681,88.1453466 63.3061097,88.757511 63.2749593,90.2379493 C63.1340035,96.9186616 63.1044106,102.60773 62.672977,109.546114 C62.513331,112.119703 61.688623,113.259703 59.596092,113.310456 C56.9490832,113.375264 53.8854372,113.215196 51.1885876,113.206607 C48.4613664,113.197237 45.5145345,113.321388 42.7888708,113.321388" id="Fill-17"></path>
            <path d="M25.1679221,110.820259 C26.654577,108.523862 27.466046,107.58141 28.5103646,104.905533 C28.9059752,103.890464 28.7634619,104.081766 28.1435681,103.299382 C25.8283115,100.374423 23.7038513,96.1306562 22.5582938,90.8952452 C22.2475681,89.4733685 23.0099752,88.4005192 24.1952496,88.217026 C25.422577,88.0265055 26.4513204,88.2763685 26.7869664,89.9168753 C27.4847363,93.3290671 28.483108,96.7818616 30.2781522,99.161026 C30.6706478,99.6810534 30.8318513,99.6638753 31.0530195,99.0642041 C32.1160283,96.1767247 33.0302938,92.4100397 33.5793204,89.5038205 C33.8534442,88.050711 34.9701876,87.9648205 36.0877097,88.1155192 C36.9240991,88.2279575 38.0719929,88.8979027 37.8843115,90.0027658 C36.5059044,98.099889 32.5217628,108.051464 30.0562053,111.614355 C28.9776212,113.174437 28.1684885,113.580464 26.6452319,113.467245 C25.4809841,113.379012 24.5137628,112.121108 25.1679221,110.820259" id="Fill-19"></path>
            <path d="M5.97457699,106.689711 C6.62717876,110.946752 9.50547965,113.450848 13.875108,113.40556 C17.9955327,113.361834 20.6098336,110.703136 21.5739398,105.835492 C21.9999221,103.687451 17.7533381,102.470149 17.0999575,105.299848 C16.5883115,107.51504 15.4186124,109.323423 13.663285,109.331232 C9.56544425,109.349971 9.73599292,103.903738 9.78894867,100.098793 C9.84424071,96.0728753 9.68770973,91.9923 13.6368071,92.0485192 C15.4264,92.0742863 16.4761699,93.0870123 16.8943646,95.0398479 C17.3304708,97.0746699 21.6985416,97.0777932 21.0724177,94.0864644 C20.1597097,89.7310397 17.6723469,87.9991767 13.4335504,87.9819986 C9.46342655,87.9663822 7.27199292,89.7677384 6.11163894,93.566437 C5.13740885,96.7592178 5.4543646,103.295478 5.97457699,106.689711" id="Fill-21"></path>
        </g>
    </g>
</svg>