<?xml version="1.0" encoding="UTF-8"?>
<svg width="375px" height="42px" viewBox="0 0 375 42" version="1.1" xmlns="http://www.w3.org/2000/svg" xmlns:xlink="http://www.w3.org/1999/xlink">
    <!-- Generator: Sketch 56.2 (81672) - https://sketch.com -->
    <title>ХоумПиццаПёчетсяотебе 2</title>
    <desc>Created with Sketch.</desc>
    <g id="Page-1" stroke="none" stroke-width="1" fill="none" fill-rule="evenodd">
        <g id="ХоумПиццаПёчетсяотебе-2" transform="translate(0.852873, 0.810222)" fill="#360300" fill-rule="nonzero">
            <path d="M15.6611267,30.1197778 C15.7071267,30.7177778 15.2931267,31.5457778 14.6491267,31.6837778 C13.5451267,32.0057778 12.4871267,31.7297778 11.7971267,30.7177778 C11.4291267,30.1657778 11.3831267,29.3377778 10.7851267,28.5097778 C9.91112672,27.0377778 9.58912672,25.9797778 8.80712672,24.2317778 C8.71512672,24.0477778 8.20912672,22.4837778 7.97912672,22.0697778 C7.74912672,22.6217778 7.51912672,23.4037778 7.38112672,23.8177778 C6.69112672,25.5197778 5.77112672,27.3597778 4.98912672,29.0617778 C4.80512672,29.8897778 4.39112672,30.9017778 3.83912672,31.7297778 C3.19512672,33.0177778 1.53912672,33.2937778 0.711126716,32.0517778 C0.297126716,31.6377778 0.205126716,31.4997778 0.0211267156,30.9477778 C-0.0708732844,30.4417778 0.159126716,29.8897778 0.297126716,29.4297778 C1.90712672,24.9217778 3.83912672,20.1377778 5.72512672,15.9517778 C5.49512672,15.1237778 5.17312672,14.3877778 4.80512672,13.3297778 C3.70112672,10.0637778 2.64312672,7.99377778 1.53912672,4.68177778 C1.53912672,4.49777778 1.21712672,3.25577778 1.21712672,3.07177778 C0.987126716,1.41577778 1.95312672,0.725777778 3.47112672,0.679777778 C4.75912672,0.679777778 5.81712672,2.10577778 6.27712672,3.76177778 C6.69112672,5.41777778 8.11712672,8.68377778 8.57712672,10.3397778 C8.94512672,9.69577778 9.58912672,7.80977778 9.77312672,7.16577778 C10.1871267,6.06177778 10.8311267,4.91177778 11.4751267,3.80777778 C11.8431267,2.97977778 12.6711267,2.56577778 13.4991267,2.33577778 C14.5111267,1.92177778 15.3391267,2.47377778 15.3391267,3.53177778 C15.3851267,4.35977778 15.3851267,5.18777778 15.0171267,6.06177778 C13.6371267,8.72977778 12.4411267,11.1677778 11.7051267,13.8357778 C11.4291267,14.7097778 11.0611267,15.1697778 10.8771267,16.0897778 C11.3371267,17.7457778 12.2111267,20.4597778 12.8091267,22.1617778 C13.5451267,24.1397778 14.1431267,25.8417778 14.9251267,27.9577778 C15.1091267,28.5097778 15.6151267,29.4297778 15.6611267,30.1197778 Z M16.8571267,21.7937778 C16.7651267,19.3097778 17.1331267,17.1477778 17.8691267,14.8477778 C17.9611267,13.6057778 19.1111267,12.1337778 19.8931267,11.5357778 C21.0891267,10.5697778 22.1471267,10.1097778 23.6191267,10.1097778 C26.5171267,10.2937778 30.5651267,12.5937778 31.1631267,16.3197778 C31.4391267,18.1597778 31.7611267,20.9657778 31.2551267,23.0357778 C30.8411267,24.6917778 30.3811267,26.3477778 29.5991267,28.0037778 C29.0471267,29.2457778 28.2191267,30.0737778 27.2531267,30.9017778 C24.6311267,33.1557778 21.3191267,32.3277778 19.1111267,30.0737778 C18.0531267,28.8317778 17.0871267,26.1177778 16.9951267,24.4617778 C16.9491267,23.6337778 16.9031267,22.8057778 16.8571267,21.7937778 Z M23.3431267,28.0497778 C24.1711267,27.8197778 24.7691267,27.1757778 25.1831267,26.5777778 C26.6551267,24.4617778 26.9311267,20.8737778 26.8391267,18.1137778 C26.7931267,17.1017778 26.7931267,15.9057778 26.3331267,14.8477778 C26.1031267,14.4337778 25.6891267,14.0197778 25.2751267,13.8357778 C23.9871267,13.6057778 22.9751267,14.0197778 22.6071267,15.2617778 C22.1011267,16.9177778 21.9631267,19.4937778 21.8711267,21.1497778 C21.6871267,23.5417778 22.5151267,27.3597778 23.3431267,28.0497778 Z M38.7071267,26.4397778 C40.3631267,26.4397778 40.5931267,26.0717778 41.6051267,27.0377778 C41.6051267,24.9677778 41.5131267,22.4837778 41.4211267,20.2297778 C41.3291267,18.1597778 41.1451267,16.2737778 40.9611267,14.0197778 C40.9151267,13.4217778 40.5931267,12.1337778 42.0191267,11.3057778 C42.7091267,10.8917778 43.4911267,11.0757778 44.0891267,11.5357778 C44.7331267,12.0877778 45.3311267,12.7777778 45.3311267,13.7897778 C45.3311267,14.8477778 45.6071267,16.0897778 45.6531267,17.1017778 C45.8371267,20.8737778 45.9291267,24.3697778 45.9291267,28.0957778 C45.9291267,31.9597778 45.8831267,35.5937778 43.6291267,38.2617778 C42.1111267,40.0097778 40.0411267,41.1137778 37.7871267,41.1137778 C37.5571267,41.1137778 36.7291267,40.9297778 36.4991267,40.8377778 C35.0271267,40.1017778 35.1191267,38.7677778 35.8551267,38.0777778 C36.7291267,37.2497778 37.2351267,37.5717778 38.5231267,37.0197778 C39.2131267,36.6057778 39.8111267,36.2377778 40.3171267,35.4557778 C41.4671267,33.7077778 41.4211267,32.0977778 41.6051267,29.9357778 C41.2371267,30.3957778 40.6851267,31.7757778 39.0751267,31.4077778 C35.6251267,30.8097778 33.9231267,27.2217778 33.5091267,24.1397778 C33.1411267,21.6557778 33.2331267,19.4017778 33.3251267,17.1017778 C33.4171267,14.8937778 33.6931267,13.0077778 33.9231267,11.9497778 C34.2451267,10.4777778 34.9351267,8.95977778 36.4071267,9.05177778 C38.4771267,9.18977778 39.1671267,11.1217778 38.7071267,13.1917778 C38.1551267,15.6757778 37.8791267,18.3437778 38.0631267,21.0577778 C38.0631267,22.2997778 38.0171267,23.7257778 38.2931267,25.1977778 C38.3851267,25.6577778 38.4771267,26.0257778 38.7071267,26.4397778 Z M59.1771267,19.8617778 C60.4651267,16.3657778 61.1091267,13.3297778 62.8571267,10.3857778 C63.3631267,9.51177778 64.1911267,9.23577778 64.6051267,9.23577778 C65.5251267,9.23577778 66.1691267,9.64977778 66.9051267,10.0637778 C68.0091267,10.7077778 68.4691267,11.3977778 68.6991267,12.4557778 C69.1131267,14.2497778 69.0671267,15.9517778 69.2971267,17.7457778 C69.6191267,20.2297778 69.8031267,22.6677778 69.9411267,25.0597778 C70.0791267,27.1757778 69.9871267,29.2917778 70.3551267,31.4077778 C70.4931267,32.5577778 69.2511267,33.5237778 68.3311267,33.2477778 C67.5951267,33.2017778 66.8131267,32.9717778 66.3071267,32.4197778 C66.0311267,32.0057778 65.8011267,31.5917778 65.6631267,31.2237778 C65.4791267,28.5557778 65.3871267,25.7957778 65.1571267,23.1277778 C65.0651267,21.6097778 64.9271267,20.0917778 64.8811267,18.7577778 C64.8811267,18.5737778 64.7431267,17.5617778 64.7431267,17.1477778 C63.3631267,20.2297778 62.0751267,23.4497778 61.4771267,26.5317778 C61.3391267,27.2677778 61.1551267,28.0497778 60.9251267,28.6017778 C60.6951267,29.1077778 60.2811267,29.8437778 59.9131267,29.9817778 C59.0851267,30.3957778 58.3031267,30.2577778 57.4291267,29.9817778 C56.9231267,29.7977778 56.2331267,28.4637778 56.2791267,27.7277778 C56.1411267,26.8077778 56.0031267,25.7957778 55.9111267,24.9217778 C55.5891267,23.3577778 55.2671267,22.1157778 54.9451267,20.7357778 C54.7151267,20.0457778 54.1631267,16.4577778 53.7951267,16.4577778 C53.5191267,17.7457778 53.2431267,20.3217778 53.1511267,21.7017778 C53.0131267,22.9897778 52.9671267,24.5077778 52.9671267,25.8417778 C52.9671267,26.9917778 52.6911267,28.0957778 53.1971267,29.2917778 C53.3351267,29.7977778 53.2431267,30.3957778 52.6911267,30.8557778 C52.3231267,31.1777778 51.5871267,31.3157778 51.0811267,31.4077778 C49.6551267,31.3157778 49.5171267,31.3157778 48.9651267,30.1197778 C48.8731267,29.9357778 48.6431267,29.5217778 48.6431267,29.3837778 C48.2751267,26.3477778 48.4131267,23.3117778 48.8731267,20.3217778 C49.0571267,18.8497778 49.1031267,17.5157778 49.2411267,16.2277778 C49.3791267,15.0777778 49.8391267,14.0657778 50.4371267,13.2837778 C51.1731267,12.3177778 50.7131267,11.8577778 51.1731267,10.7537778 C51.4031267,10.0637778 52.3231267,9.18977778 53.1051267,9.32777778 C53.8411267,9.46577778 54.1631267,9.41977778 55.2671267,9.97177778 C56.0031267,10.3397778 56.6011267,10.7997778 56.8311267,11.5357778 C57.3371267,13.0537778 57.5671267,13.9277778 57.9811267,15.3997778 C58.2571267,16.3197778 58.6251267,18.5277778 59.1771267,19.8617778 Z M83.3271267,1.87577778 C84.2931267,0.0817777778 87.0531267,0.311777778 89.2611267,0.0817777778 C89.6751267,-0.102222222 89.8591267,0.0817777778 90.0431267,0.0817777778 C91.6531267,0.311777778 93.0331267,0.311777778 94.4131267,0.449777778 C95.4251267,0.679777778 96.2071267,0.863777778 96.8051267,1.64577778 C97.2191267,2.28977778 97.7711267,2.65777778 98.4151267,3.07177778 C99.1971267,3.48577778 99.3811267,4.03777778 99.3811267,4.68177778 C99.6111267,5.46377778 99.6111267,6.01577778 99.6111267,6.84377778 C99.3811267,8.82177778 99.3811267,10.7997778 99.3811267,13.0077778 L99.3811267,30.6717778 C99.3811267,31.6837778 98.9671267,32.2357778 98.1851267,32.4657778 C97.7711267,32.4657778 97.4031267,32.6497778 97.2191267,32.6497778 C96.6211267,32.8797778 96.2071267,32.6497778 95.7931267,32.6497778 C94.2291267,32.0977778 93.6311267,30.9017778 93.6311267,29.4757778 L93.6311267,28.0957778 C93.8151267,25.7037778 93.8151267,23.3577778 93.8151267,20.9657778 C93.8611267,20.2297778 94.0451267,16.4117778 94.0451267,15.7677778 C94.0911267,13.0537778 94.2291267,10.2477778 94.2291267,7.21177778 L94.2291267,5.87777778 C93.6311267,5.23377778 93.0331267,5.04977778 92.4351267,5.04977778 C91.2391267,4.81977778 89.8591267,4.45177778 88.4791267,4.68177778 L88.4791267,5.64777778 C88.8931267,6.65977778 88.8931267,7.85577778 88.8931267,9.05177778 C88.4791267,11.5817778 88.0651267,13.9737778 88.4791267,16.5957778 C88.8931267,20.5517778 88.8931267,24.3237778 89.4451267,28.2797778 C89.6751267,29.0617778 89.6751267,29.7057778 89.8591267,30.4877778 C90.0431267,31.2697778 89.6751267,31.6837778 89.2611267,32.2357778 C87.8351267,33.8457778 85.4891267,32.8797778 84.6611267,31.6837778 C84.5231267,31.2697778 84.2931267,30.4877778 84.2931267,30.0737778 C83.8791267,26.7157778 83.4651267,23.3577778 83.3271267,19.9537778 C83.3271267,18.5737778 83.3271267,17.3777778 83.0971267,15.9517778 C82.9131267,13.6057778 83.3271267,11.0297778 83.6951267,8.40777778 C83.8791267,7.02777778 83.4651267,5.46377778 83.4651267,4.03777778 C83.4651267,3.25577778 82.9591267,2.56577778 83.3271267,1.87577778 Z M104.119127,10.4777778 C104.809127,10.0637778 105.637127,10.1097778 106.327127,10.4317778 C107.155127,10.6157778 107.247127,11.7657778 107.247127,12.5477778 C107.247127,13.9277778 107.155127,15.3077778 106.971127,16.6877778 C106.833127,18.0677778 106.603127,19.1257778 106.603127,20.5057778 C106.603127,21.1497778 106.465127,22.2077778 106.465127,22.8977778 C106.465127,22.8977778 106.373127,23.5417778 106.557127,23.7717778 C106.879127,23.7717778 107.201127,22.6677778 107.385127,22.2997778 C108.213127,20.4597778 109.041127,18.4817778 109.961127,16.3197778 C110.467127,15.1237778 111.019127,13.9277778 111.479127,12.5477778 C111.801127,11.5357778 112.169127,10.5237778 112.491127,9.55777778 C112.859127,8.54577778 114.055127,8.36177778 115.067127,8.72977778 C115.757127,9.55777778 116.447127,9.00577778 116.723127,11.1217778 C116.815127,11.9037778 116.861127,12.7777778 116.861127,13.6517778 L117.091127,22.0697778 C117.137127,23.1277778 117.091127,25.0597778 117.091127,25.8417778 C117.275127,27.4057778 117.137127,28.6477778 117.137127,30.1657778 C117.137127,31.1777778 116.447127,32.0057778 115.435127,32.0057778 C114.515127,32.0057778 113.549127,31.6377778 113.365127,30.8097778 C112.721127,27.7737778 113.227127,23.9557778 112.905127,19.3557778 C112.813127,19.8157778 112.031127,21.4717778 111.801127,21.9317778 C111.479127,22.9437778 111.065127,23.8637778 110.651127,24.6457778 C109.915127,26.1637778 109.041127,28.1877778 108.213127,29.5677778 C107.523127,30.7177778 107.017127,32.1897778 105.637127,32.1897778 C104.441127,32.1897778 103.475127,30.9937778 103.337127,29.6137778 C102.969127,27.2217778 102.969127,25.0597778 102.969127,22.6677778 C102.739127,22.6677778 103.705127,14.8937778 103.291127,13.9277778 C103.153127,13.5137778 103.153127,12.7777778 103.291127,12.2717778 C103.291127,11.7657778 103.659127,10.7537778 104.119127,10.4777778 Z M133.145127,24.6917778 C133.283127,26.1177778 132.961127,27.3137778 132.961127,28.6477778 C133.927127,28.8777778 133.559127,28.6937778 134.525127,28.8777778 C135.491127,29.0617778 135.859127,30.2577778 135.859127,31.2237778 C135.859127,32.1897778 135.813127,33.4777778 135.629127,34.4437778 C135.491127,35.2717778 135.353127,35.9157778 135.307127,36.6977778 C135.215127,38.1697778 134.157127,38.7677778 133.191127,38.7677778 C131.627127,38.7677778 130.799127,37.8017778 131.121127,36.0997778 C131.305127,35.5937778 131.305127,35.0877778 131.305127,34.6277778 C131.489127,34.2597778 131.489127,33.6617778 131.489127,33.4777778 C131.673127,32.6957778 131.535127,32.6497778 130.799127,32.6037778 C129.557127,32.5117778 128.591127,32.7877778 127.073127,32.6957778 C126.153127,32.6497778 124.681127,32.9257778 123.715127,32.6957778 C122.795127,32.5577778 122.013127,32.0977778 121.277127,31.3617778 C120.495127,30.6717778 120.127127,29.7517778 120.127127,28.7397778 C120.127127,26.6697778 120.127127,24.5997778 120.357127,22.5297778 C120.495127,21.3797778 120.633127,20.2297778 120.679127,18.9417778 C121.001127,16.7797778 121.231127,14.6637778 121.553127,12.6397778 C121.737127,11.3057778 121.553127,10.1557778 122.197127,9.05177778 C123.117127,7.71777778 124.773127,8.08577778 125.647127,8.77577778 C126.199127,9.23577778 126.015127,10.0637778 126.015127,10.7997778 C125.785127,11.9497778 125.969127,12.8697778 125.785127,14.2037778 C125.601127,15.5377778 125.325127,17.0097778 125.325127,18.3437778 C125.325127,19.4937778 125.279127,20.4597778 125.095127,21.5637778 C124.819127,23.2197778 124.819127,24.8757778 124.819127,26.4857778 C124.819127,27.4057778 124.773127,27.9117778 124.957127,28.8777778 C125.739127,28.8317778 126.889127,28.8317778 127.487127,28.8317778 C127.855127,28.8317778 128.039127,28.4637778 128.177127,28.0957778 L128.177127,27.4057778 C128.361127,25.3357778 128.361127,23.2197778 128.361127,21.1957778 C128.361127,19.3097778 128.499127,17.6077778 128.591127,15.9057778 L128.591127,12.5017778 C128.591127,11.0297778 129.143127,10.0637778 130.155127,9.64977778 C130.707127,9.37377778 131.627127,9.32777778 132.225127,9.87977778 C133.375127,10.8917778 133.191127,11.7657778 133.191127,13.4677778 L133.191127,17.8377778 C133.191127,20.0457778 132.915127,22.2997778 133.145127,24.6917778 Z M150.993127,24.6917778 C151.131127,26.1177778 150.809127,27.3137778 150.809127,28.6477778 C151.775127,28.8777778 151.407127,28.6937778 152.373127,28.8777778 C153.339127,29.0617778 153.707127,30.2577778 153.707127,31.2237778 C153.707127,32.1897778 153.661127,33.4777778 153.477127,34.4437778 C153.339127,35.2717778 153.201127,35.9157778 153.155127,36.6977778 C153.063127,38.1697778 152.005127,38.7677778 151.039127,38.7677778 C149.475127,38.7677778 148.647127,37.8017778 148.969127,36.0997778 C149.153127,35.5937778 149.153127,35.0877778 149.153127,34.6277778 C149.337127,34.2597778 149.337127,33.6617778 149.337127,33.4777778 C149.521127,32.6957778 149.383127,32.6497778 148.647127,32.6037778 C147.405127,32.5117778 146.439127,32.7877778 144.921127,32.6957778 C144.001127,32.6497778 142.529127,32.9257778 141.563127,32.6957778 C140.643127,32.5577778 139.861127,32.0977778 139.125127,31.3617778 C138.343127,30.6717778 137.975127,29.7517778 137.975127,28.7397778 C137.975127,26.6697778 137.975127,24.5997778 138.205127,22.5297778 C138.343127,21.3797778 138.481127,20.2297778 138.527127,18.9417778 C138.849127,16.7797778 139.079127,14.6637778 139.401127,12.6397778 C139.585127,11.3057778 139.401127,10.1557778 140.045127,9.05177778 C140.965127,7.71777778 142.621127,8.08577778 143.495127,8.77577778 C144.047127,9.23577778 143.863127,10.0637778 143.863127,10.7997778 C143.633127,11.9497778 143.817127,12.8697778 143.633127,14.2037778 C143.449127,15.5377778 143.173127,17.0097778 143.173127,18.3437778 C143.173127,19.4937778 143.127127,20.4597778 142.943127,21.5637778 C142.667127,23.2197778 142.667127,24.8757778 142.667127,26.4857778 C142.667127,27.4057778 142.621127,27.9117778 142.805127,28.8777778 C143.587127,28.8317778 144.737127,28.8317778 145.335127,28.8317778 C145.703127,28.8317778 145.887127,28.4637778 146.025127,28.0957778 L146.025127,27.4057778 C146.209127,25.3357778 146.209127,23.2197778 146.209127,21.1957778 C146.209127,19.3097778 146.347127,17.6077778 146.439127,15.9057778 L146.439127,12.5017778 C146.439127,11.0297778 146.991127,10.0637778 148.003127,9.64977778 C148.555127,9.37377778 149.475127,9.32777778 150.073127,9.87977778 C151.223127,10.8917778 151.039127,11.7657778 151.039127,13.4677778 L151.039127,17.8377778 C151.039127,20.0457778 150.763127,22.2997778 150.993127,24.6917778 Z M162.815127,29.9357778 C162.217127,30.1657778 161.297127,30.5797778 160.699127,30.7637778 C159.871127,30.9937778 158.215127,30.9017778 157.525127,30.3957778 C156.789127,29.8437778 156.329127,29.5217778 155.731127,28.9237778 C154.673127,27.8657778 154.489127,26.8537778 154.489127,25.7957778 C154.489127,23.9557778 155.179127,22.0697778 156.651127,20.5977778 C157.893127,19.3557778 158.307127,18.8497778 160.055127,18.1597778 C161.159127,17.6997778 162.263127,17.5157778 163.367127,17.5157778 C163.597127,16.0897778 163.597127,14.6637778 163.183127,13.2377778 C162.125127,12.8237778 161.527127,13.4217778 160.699127,13.8357778 C160.285127,14.0657778 159.641127,14.2497778 159.227127,14.4797778 C158.629127,14.6637778 157.755127,14.4797778 157.249127,13.8817778 C156.881127,13.4677778 156.605127,12.9157778 156.651127,12.0417778 C156.697127,11.0297778 157.571127,10.1097778 158.629127,9.92577778 C160.055127,9.28177778 161.711127,8.68377778 163.183127,9.09777778 C165.253127,9.69577778 167.093127,10.7537778 167.507127,13.2377778 C167.921127,15.0777778 168.151127,16.6877778 168.151127,18.5737778 C168.151127,21.1037778 167.737127,23.1737778 167.737127,25.1977778 C167.737127,27.0377778 167.323127,27.4057778 167.323127,29.2917778 L167.323127,31.1777778 C167.323127,32.0057778 166.909127,32.6037778 166.081127,32.8337778 C165.483127,33.0177778 164.379127,33.0177778 163.781127,32.5117778 C163.091127,31.9597778 162.815127,31.2237778 162.815127,30.3957778 L162.815127,29.9357778 Z M163.367127,21.2417778 C161.297127,21.4717778 160.285127,22.0697778 159.457127,23.5417778 C158.813127,24.5537778 158.675127,26.4397778 159.549127,26.9457778 C160.837127,27.6817778 161.757127,27.1757778 163.183127,26.3937778 C162.953127,24.9677778 163.597127,22.8977778 163.367127,21.2417778 Z M180.755127,1.87577778 C181.721127,0.0817777778 184.481127,0.311777778 186.689127,0.0817777778 C187.103127,-0.102222222 187.287127,0.0817777778 187.471127,0.0817777778 C189.081127,0.311777778 190.461127,0.311777778 191.841127,0.449777778 C192.853127,0.679777778 193.635127,0.863777778 194.233127,1.64577778 C194.647127,2.28977778 195.199127,2.65777778 195.843127,3.07177778 C196.625127,3.48577778 196.809127,4.03777778 196.809127,4.68177778 C197.039127,5.46377778 197.039127,6.01577778 197.039127,6.84377778 C196.809127,8.82177778 196.809127,10.7997778 196.809127,13.0077778 L196.809127,30.6717778 C196.809127,31.6837778 196.395127,32.2357778 195.613127,32.4657778 C195.199127,32.4657778 194.831127,32.6497778 194.647127,32.6497778 C194.049127,32.8797778 193.635127,32.6497778 193.221127,32.6497778 C191.657127,32.0977778 191.059127,30.9017778 191.059127,29.4757778 L191.059127,28.0957778 C191.243127,25.7037778 191.243127,23.3577778 191.243127,20.9657778 C191.289127,20.2297778 191.473127,16.4117778 191.473127,15.7677778 C191.519127,13.0537778 191.657127,10.2477778 191.657127,7.21177778 L191.657127,5.87777778 C191.059127,5.23377778 190.461127,5.04977778 189.863127,5.04977778 C188.667127,4.81977778 187.287127,4.45177778 185.907127,4.68177778 L185.907127,5.64777778 C186.321127,6.65977778 186.321127,7.85577778 186.321127,9.05177778 C185.907127,11.5817778 185.493127,13.9737778 185.907127,16.5957778 C186.321127,20.5517778 186.321127,24.3237778 186.873127,28.2797778 C187.103127,29.0617778 187.103127,29.7057778 187.287127,30.4877778 C187.471127,31.2697778 187.103127,31.6837778 186.689127,32.2357778 C185.263127,33.8457778 182.917127,32.8797778 182.089127,31.6837778 C181.951127,31.2697778 181.721127,30.4877778 181.721127,30.0737778 C181.307127,26.7157778 180.893127,23.3577778 180.755127,19.9537778 C180.755127,18.5737778 180.755127,17.3777778 180.525127,15.9517778 C180.341127,13.6057778 180.755127,11.0297778 181.123127,8.40777778 C181.307127,7.02777778 180.893127,5.46377778 180.893127,4.03777778 C180.893127,3.25577778 180.387127,2.56577778 180.755127,1.87577778 Z M204.951127,24.7377778 C205.227127,27.4057778 206.883127,28.9697778 208.493127,28.0957778 C209.137127,27.8197778 210.195127,26.8997778 210.839127,27.0377778 C211.069127,27.0837778 211.299127,27.2677778 211.483127,27.4977778 C212.403127,28.5097778 212.127127,29.2917778 211.345127,30.3497778 C210.333127,31.5917778 208.447127,32.6037778 206.791127,32.4657778 C203.479127,32.2357778 202.007127,30.3037778 200.673127,27.4517778 C200.029127,25.4277778 199.845127,23.0817778 200.075127,20.9657778 C200.305127,18.8037778 200.765127,16.3657778 201.731127,14.4337778 C202.329127,13.1917778 202.973127,12.5937778 203.755127,11.3057778 C204.169127,10.6617778 204.951127,10.2017778 205.963127,10.0177778 C207.205127,9.97177778 208.263127,9.97177778 209.551127,10.5237778 C211.621127,11.3057778 212.495127,12.7317778 212.541127,14.9857778 C212.633127,16.8717778 212.449127,19.1717778 211.667127,21.1037778 C211.483127,21.7017778 211.115127,22.3457778 210.471127,22.7597778 C210.287127,22.7597778 210.057127,22.9897778 209.873127,22.9897778 C208.861127,24.4617778 207.435127,24.4617778 205.779127,24.6917778 C205.549127,24.6917778 205.365127,24.6917778 204.951127,24.7377778 Z M207.711127,20.3677778 C208.631127,16.1817778 208.815127,14.6637778 208.125127,13.4677778 C206.745127,14.1117778 206.147127,15.5837778 205.549127,16.8257778 C204.997127,18.1137778 204.859127,19.3557778 204.859127,20.5977778 C205.641127,20.6897778 206.883127,20.5517778 207.711127,20.3677778 Z M239.001127,6.36572291 C238.909127,6.04372291 238.909127,5.58372291 239.047127,5.21572291 C239.093127,4.57172291 239.737127,4.24972291 240.289127,4.29572291 C241.439127,4.34172291 242.359127,4.38772291 242.819127,5.76772291 C243.233127,6.18172291 243.187127,6.77972291 242.773127,7.28572291 C242.589127,7.46972291 242.359127,7.88372291 242.175127,8.06772291 C240.013127,8.34372291 239.645127,8.15972291 239.001127,6.36572291 Z M232.147127,5.58372291 C232.607127,4.98572291 232.653127,4.43372291 233.251127,4.24972291 C233.941127,4.01972291 234.493127,4.52572291 235.137127,4.52572291 C235.505127,4.57172291 235.689127,4.75572291 235.919127,4.98572291 C236.655127,5.39972291 236.793127,5.81372291 236.563127,6.59572291 C236.379127,6.96372291 236.241127,7.46972291 235.735127,7.83772291 C235.183127,8.15972291 234.953127,8.20572291 234.309127,8.20572291 C233.941127,8.15972291 233.435127,7.92972291 233.067127,7.74572291 C232.653127,7.33172291 232.469127,7.10172291 232.331127,6.54972291 C232.377127,6.18172291 232.147127,5.76772291 232.147127,5.58372291 Z M225.467127,34.2597778 C225.237127,34.3057778 223.719127,33.6617778 223.535127,33.5697778 C222.983127,33.2477778 222.247127,32.1437778 222.339127,31.5457778 C222.569127,29.5677778 222.707127,28.5557778 222.569127,26.7157778 C222.431127,25.9337778 222.477127,24.9677778 222.523127,23.9097778 C219.901127,24.1857778 218.153127,23.5417778 216.635127,21.6097778 C216.129127,21.0117778 215.715127,20.3677778 215.531127,19.7697778 C214.473127,17.3317778 214.657127,15.1237778 215.071127,12.5477778 C215.301127,11.1217778 215.209127,9.74177778 215.715127,8.54577778 C215.899127,7.94777778 216.313127,7.34977778 216.773127,7.39577778 C217.877127,7.48777778 218.107127,7.48777778 218.889127,7.90177778 C219.855127,8.40777778 219.993127,9.97177778 219.671127,10.9377778 C219.165127,12.5017778 219.119127,14.3417778 219.165127,15.9517778 C219.211127,17.1477778 219.625127,18.1137778 219.809127,19.3557778 C219.947127,19.9997778 220.361127,20.1837778 221.143127,19.8157778 C221.557127,19.6317778 221.925127,19.6777778 222.753127,19.3557778 L223.167127,11.2137778 C223.305127,8.72977778 225.375127,8.49977778 226.157127,9.18977778 C226.709127,9.60377778 226.249127,9.46577778 226.985127,10.0177778 C227.675127,10.5237778 227.583127,11.9497778 227.537127,12.9157778 L227.399127,23.3577778 C227.307127,24.7837778 227.307127,26.3937778 227.307127,28.0037778 C227.307127,29.7517778 227.675127,30.7637778 227.307127,32.5117778 C227.031127,33.8917778 225.927127,34.1217778 225.467127,34.2597778 Z M235.449127,24.7377778 C235.725127,27.4057778 237.381127,28.9697778 238.991127,28.0957778 C239.635127,27.8197778 240.693127,26.8997778 241.337127,27.0377778 C241.567127,27.0837778 241.797127,27.2677778 241.981127,27.4977778 C242.901127,28.5097778 242.625127,29.2917778 241.843127,30.3497778 C240.831127,31.5917778 238.945127,32.6037778 237.289127,32.4657778 C233.977127,32.2357778 232.505127,30.3037778 231.171127,27.4517778 C230.527127,25.4277778 230.343127,23.0817778 230.573127,20.9657778 C230.803127,18.8037778 231.263127,16.3657778 232.229127,14.4337778 C232.827127,13.1917778 233.471127,12.5937778 234.253127,11.3057778 C234.667127,10.6617778 235.449127,10.2017778 236.461127,10.0177778 C237.703127,9.97177778 238.761127,9.97177778 240.049127,10.5237778 C242.119127,11.3057778 242.993127,12.7317778 243.039127,14.9857778 C243.131127,16.8717778 242.947127,19.1717778 242.165127,21.1037778 C241.981127,21.7017778 241.613127,22.3457778 240.969127,22.7597778 C240.785127,22.7597778 240.555127,22.9897778 240.371127,22.9897778 C239.359127,24.4617778 237.933127,24.4617778 236.277127,24.6917778 C236.047127,24.6917778 235.863127,24.6917778 235.449127,24.7377778 Z M238.209127,20.3677778 C239.129127,16.1817778 239.313127,14.6637778 238.623127,13.4677778 C237.243127,14.1117778 236.645127,15.5837778 236.047127,16.8257778 C235.495127,18.1137778 235.357127,19.3557778 235.357127,20.5977778 C236.139127,20.6897778 237.381127,20.5517778 238.209127,20.3677778 Z M247.593127,12.8237778 C247.225127,12.8237778 246.535127,12.7777778 246.075127,12.7317778 C244.603127,12.6397778 244.189127,12.2257778 243.959127,11.2597778 C243.775127,10.4317778 243.821127,10.0637778 244.741127,9.51177778 C245.431127,9.09777778 247.271127,9.23577778 248.375127,9.28177778 C250.261127,9.37377778 251.963127,9.46577778 253.711127,9.74177778 C254.631127,9.87977778 255.505127,9.64977778 256.149127,10.3857778 C256.655127,10.9837778 256.885127,11.8577778 256.149127,12.5937778 C255.321127,13.3757778 254.539127,13.6057778 253.895127,13.4217778 C253.297127,13.2377778 252.791127,13.5137778 252.009127,13.2837778 L252.009127,18.7117778 C252.009127,21.3797778 251.963127,24.1857778 252.239127,26.8537778 C252.377127,28.0497778 252.653127,28.9697778 252.377127,30.1197778 C252.055127,31.4537778 250.261127,32.3737778 249.341127,31.8677778 C248.375127,31.2237778 247.777127,30.4877778 247.777127,29.3377778 C247.777127,28.0497778 247.593127,26.8537778 247.593127,25.7497778 C247.179127,23.4497778 247.363127,21.3797778 247.363127,19.0337778 C247.363127,16.9177778 247.639127,14.9857778 247.593127,12.8237778 Z M260.427127,11.3977778 C261.347127,10.4777778 262.819127,10.0177778 264.061127,10.1557778 C264.889127,10.2017778 265.901127,10.6157778 266.361127,11.1217778 C266.867127,11.6737778 266.821127,12.5477778 266.407127,13.1917778 C266.085127,13.6977778 264.199127,14.0197778 263.371127,13.7897778 C262.957127,15.2617778 262.543127,16.6877778 262.359127,18.1597778 C261.945127,20.2297778 261.715127,22.2997778 261.945127,24.3697778 C261.945127,24.9677778 262.037127,25.6117778 262.129127,26.2097778 C262.359127,27.4517778 263.187127,28.2797778 264.843127,28.0957778 C265.257127,28.0957778 265.625127,27.8657778 266.269127,27.8657778 C266.821127,27.8657778 267.465127,28.0957778 267.465127,29.0617778 C267.465127,29.8897778 267.511127,29.7517778 267.051127,30.7177778 C266.315127,32.1897778 263.187127,32.1897778 261.853127,31.6837778 C260.611127,31.2237778 259.829127,30.7637778 258.771127,29.5217778 C257.759127,28.2797778 257.345127,26.8537778 257.161127,25.1977778 C256.931127,23.5417778 256.931127,21.6557778 257.161127,19.9997778 C257.345127,18.1597778 257.805127,15.6757778 258.541127,14.0657778 C258.909127,13.2377778 259.645127,12.1797778 260.427127,11.3977778 Z M280.529127,33.0637778 C280.069127,33.1557778 279.977127,32.9717778 279.563127,32.9717778 C278.919127,32.9717778 278.275127,32.5117778 277.861127,32.0517778 C277.539127,31.6837778 277.769127,30.9937778 277.539127,30.5337778 C277.677127,29.0617778 277.493127,27.6357778 277.493127,26.1637778 C277.493127,25.7497778 277.493127,24.3237778 277.401127,23.9097778 C276.665127,24.5997778 276.205127,25.2897778 275.607127,25.9797778 C275.239127,26.5777778 273.721127,28.7397778 273.491127,28.9697778 C272.387127,29.9357778 272.387127,31.0397778 270.639127,30.9017778 C269.857127,30.9017778 268.753127,30.2117778 268.845127,28.6017778 L268.891127,28.1877778 C269.397127,26.8077778 270.271127,25.8417778 271.191127,24.6917778 C271.927127,23.6337778 273.031127,22.8057778 273.767127,21.8397778 C273.629127,21.6557778 272.847127,21.2877778 272.709127,21.0577778 C271.651127,20.3677778 271.283127,19.6777778 270.317127,18.7577778 C268.799127,16.9177778 268.385127,14.0197778 270.547127,12.5477778 C270.869127,11.3057778 271.973127,10.3397778 273.123127,9.92577778 C274.043127,9.60377778 277.999127,8.95977778 278.735127,9.23577778 C279.149127,9.28177778 279.241127,9.28177778 279.655127,9.32777778 C281.035127,9.46577778 281.679127,10.2937778 281.679127,11.0297778 L281.679127,11.9497778 C281.633127,12.1797778 281.679127,12.2257778 281.863127,12.3637778 C282.461127,12.8237778 281.955127,13.5137778 281.955127,13.8817778 C281.495127,13.6517778 281.817127,25.7497778 281.771127,26.7617778 C281.725127,27.5897778 281.863127,28.4177778 282.001127,29.4757778 C282.001127,30.0737778 282.093127,30.5337778 282.093127,31.1317778 C282.001127,32.5117778 281.127127,32.9257778 280.529127,33.0637778 Z M277.631127,14.5717778 C277.631127,14.3877778 277.769127,13.3757778 277.631127,13.1457778 C276.987127,13.0997778 276.527127,13.1917778 275.883127,13.2377778 C275.285127,13.2837778 274.641127,13.9737778 274.135127,14.5257778 C273.951127,14.7097778 273.767127,14.9857778 273.675127,15.3077778 C273.537127,15.7217778 273.767127,16.6417778 274.227127,17.0557778 C275.055127,17.8377778 276.527127,18.6197778 277.493127,19.3557778 C277.585127,18.4817778 277.539127,15.3537778 277.631127,14.5717778 Z M293.501127,21.7937778 C293.409127,19.3097778 293.777127,17.1477778 294.513127,14.8477778 C294.605127,13.6057778 295.755127,12.1337778 296.537127,11.5357778 C297.733127,10.5697778 298.791127,10.1097778 300.263127,10.1097778 C303.161127,10.2937778 307.209127,12.5937778 307.807127,16.3197778 C308.083127,18.1597778 308.405127,20.9657778 307.899127,23.0357778 C307.485127,24.6917778 307.025127,26.3477778 306.243127,28.0037778 C305.691127,29.2457778 304.863127,30.0737778 303.897127,30.9017778 C301.275127,33.1557778 297.963127,32.3277778 295.755127,30.0737778 C294.697127,28.8317778 293.731127,26.1177778 293.639127,24.4617778 C293.593127,23.6337778 293.547127,22.8057778 293.501127,21.7937778 Z M299.987127,28.0497778 C300.815127,27.8197778 301.413127,27.1757778 301.827127,26.5777778 C303.299127,24.4617778 303.575127,20.8737778 303.483127,18.1137778 C303.437127,17.1017778 303.437127,15.9057778 302.977127,14.8477778 C302.747127,14.4337778 302.333127,14.0197778 301.919127,13.8357778 C300.631127,13.6057778 299.619127,14.0197778 299.251127,15.2617778 C298.745127,16.9177778 298.607127,19.4937778 298.515127,21.1497778 C298.331127,23.5417778 299.159127,27.3597778 299.987127,28.0497778 Z M322.527127,12.8237778 C322.159127,12.8237778 321.469127,12.7777778 321.009127,12.7317778 C319.537127,12.6397778 319.123127,12.2257778 318.893127,11.2597778 C318.709127,10.4317778 318.755127,10.0637778 319.675127,9.51177778 C320.365127,9.09777778 322.205127,9.23577778 323.309127,9.28177778 C325.195127,9.37377778 326.897127,9.46577778 328.645127,9.74177778 C329.565127,9.87977778 330.439127,9.64977778 331.083127,10.3857778 C331.589127,10.9837778 331.819127,11.8577778 331.083127,12.5937778 C330.255127,13.3757778 329.473127,13.6057778 328.829127,13.4217778 C328.231127,13.2377778 327.725127,13.5137778 326.943127,13.2837778 L326.943127,18.7117778 C326.943127,21.3797778 326.897127,24.1857778 327.173127,26.8537778 C327.311127,28.0497778 327.587127,28.9697778 327.311127,30.1197778 C326.989127,31.4537778 325.195127,32.3737778 324.275127,31.8677778 C323.309127,31.2237778 322.711127,30.4877778 322.711127,29.3377778 C322.711127,28.0497778 322.527127,26.8537778 322.527127,25.7497778 C322.113127,23.4497778 322.297127,21.3797778 322.297127,19.0337778 C322.297127,16.9177778 322.573127,14.9857778 322.527127,12.8237778 Z M336.373127,24.7377778 C336.649127,27.4057778 338.305127,28.9697778 339.915127,28.0957778 C340.559127,27.8197778 341.617127,26.8997778 342.261127,27.0377778 C342.491127,27.0837778 342.721127,27.2677778 342.905127,27.4977778 C343.825127,28.5097778 343.549127,29.2917778 342.767127,30.3497778 C341.755127,31.5917778 339.869127,32.6037778 338.213127,32.4657778 C334.901127,32.2357778 333.429127,30.3037778 332.095127,27.4517778 C331.451127,25.4277778 331.267127,23.0817778 331.497127,20.9657778 C331.727127,18.8037778 332.187127,16.3657778 333.153127,14.4337778 C333.751127,13.1917778 334.395127,12.5937778 335.177127,11.3057778 C335.591127,10.6617778 336.373127,10.2017778 337.385127,10.0177778 C338.627127,9.97177778 339.685127,9.97177778 340.973127,10.5237778 C343.043127,11.3057778 343.917127,12.7317778 343.963127,14.9857778 C344.055127,16.8717778 343.871127,19.1717778 343.089127,21.1037778 C342.905127,21.7017778 342.537127,22.3457778 341.893127,22.7597778 C341.709127,22.7597778 341.479127,22.9897778 341.295127,22.9897778 C340.283127,24.4617778 338.857127,24.4617778 337.201127,24.6917778 C336.971127,24.6917778 336.787127,24.6917778 336.373127,24.7377778 Z M339.133127,20.3677778 C340.053127,16.1817778 340.237127,14.6637778 339.547127,13.4677778 C338.167127,14.1117778 337.569127,15.5837778 336.971127,16.8257778 C336.419127,18.1137778 336.281127,19.3557778 336.281127,20.5977778 C337.063127,20.6897778 338.305127,20.5517778 339.133127,20.3677778 Z M350.863127,9.92577778 C351.231127,9.92577778 351.829127,9.74177778 352.243127,9.51177778 C353.853127,8.95977778 355.279127,9.97177778 356.245127,11.0757778 C357.349127,12.3637778 357.993127,13.6977778 358.407127,15.3077778 C359.465127,19.4477778 359.235127,22.9437778 358.729127,25.4737778 C358.453127,26.6697778 358.131127,27.5437778 357.395127,28.1877778 C357.211127,28.8777778 357.073127,29.3837778 356.751127,29.9817778 C356.107127,31.0397778 354.957127,31.3157778 353.761127,31.3157778 C352.427127,31.3157778 350.081127,30.2117778 348.655127,28.8777778 C347.689127,27.9577778 347.137127,26.4857778 346.539127,24.9217778 C345.895127,23.2197778 345.849127,17.4697778 346.309127,15.6757778 C346.401127,15.3537778 346.953127,13.4217778 347.965127,12.2717778 C347.091127,10.2017778 346.217127,8.82177778 346.217127,6.42977778 C346.217127,5.32577778 346.677127,4.22177778 347.321127,3.07177778 C347.321127,2.84177778 347.551127,2.61177778 347.551127,2.61177778 C348.195127,0.817777778 350.311127,0.357777778 352.289127,0.771777778 C353.071127,0.909777778 354.543127,1.09377778 355.233127,0.909777778 C356.751127,0.495777778 357.441127,0.725777778 358.085127,1.50777778 C358.591127,2.24377778 358.407127,2.88777778 357.809127,3.71577778 C357.395127,4.26777778 357.165127,4.58977778 356.705127,4.58977778 C355.785127,4.58977778 354.911127,4.81977778 354.037127,4.81977778 C353.163127,4.81977778 352.703127,4.81977778 351.783127,4.58977778 L351.369127,4.58977778 C350.909127,4.58977778 350.265127,5.14177778 350.127127,5.83177778 C349.897127,7.67177778 350.449127,8.40777778 350.863127,9.92577778 Z M352.381127,13.3297778 C352.289127,13.8357778 351.967127,13.8817778 351.691127,14.0657778 C350.863127,14.6177778 350.541127,15.9517778 350.541127,16.9637778 C350.541127,18.9417778 350.863127,23.1737778 351.507127,24.9217778 C351.783127,25.6577778 352.151127,26.1637778 352.703127,26.6237778 C352.703127,26.8077778 353.209127,27.1297778 353.485127,26.8077778 C353.485127,26.3477778 353.715127,26.1637778 353.715127,25.6577778 C354.129127,24.6917778 354.911127,23.4037778 354.727127,22.2537778 L354.727127,21.7477778 C354.727127,21.4257778 354.543127,19.9537778 354.543127,19.7697778 C354.359127,17.9757778 354.267127,15.7677778 353.715127,14.2497778 C353.715127,14.0657778 352.887127,13.1917778 352.381127,13.3297778 Z M366.181127,24.7377778 C366.457127,27.4057778 368.113127,28.9697778 369.723127,28.0957778 C370.367127,27.8197778 371.425127,26.8997778 372.069127,27.0377778 C372.299127,27.0837778 372.529127,27.2677778 372.713127,27.4977778 C373.633127,28.5097778 373.357127,29.2917778 372.575127,30.3497778 C371.563127,31.5917778 369.677127,32.6037778 368.021127,32.4657778 C364.709127,32.2357778 363.237127,30.3037778 361.903127,27.4517778 C361.259127,25.4277778 361.075127,23.0817778 361.305127,20.9657778 C361.535127,18.8037778 361.995127,16.3657778 362.961127,14.4337778 C363.559127,13.1917778 364.203127,12.5937778 364.985127,11.3057778 C365.399127,10.6617778 366.181127,10.2017778 367.193127,10.0177778 C368.435127,9.97177778 369.493127,9.97177778 370.781127,10.5237778 C372.851127,11.3057778 373.725127,12.7317778 373.771127,14.9857778 C373.863127,16.8717778 373.679127,19.1717778 372.897127,21.1037778 C372.713127,21.7017778 372.345127,22.3457778 371.701127,22.7597778 C371.517127,22.7597778 371.287127,22.9897778 371.103127,22.9897778 C370.091127,24.4617778 368.665127,24.4617778 367.009127,24.6917778 C366.779127,24.6917778 366.595127,24.6917778 366.181127,24.7377778 Z M368.941127,20.3677778 C369.861127,16.1817778 370.045127,14.6637778 369.355127,13.4677778 C367.975127,14.1117778 367.377127,15.5837778 366.779127,16.8257778 C366.227127,18.1137778 366.089127,19.3557778 366.089127,20.5977778 C366.871127,20.6897778 368.113127,20.5517778 368.941127,20.3677778 Z" id="ХоумПиццаПёчетсяотебе"></path>
        </g>
    </g>
</svg>