<?xml version="1.0" encoding="UTF-8"?>
<svg width="447px" height="42px" viewBox="0 0 447 42" version="1.1" xmlns="http://www.w3.org/2000/svg" xmlns:xlink="http://www.w3.org/1999/xlink">
    <!-- Generator: Sketch 56 (81588) - https://sketch.com -->
    <title>ХоумСушПалочкиОближешь! 2</title>
    <desc>Created with Sketch.</desc>
    <g id="Page-1" stroke="none" stroke-width="1" fill="none" fill-rule="evenodd">
        <g id="Artboard-12" transform="translate(-70.000000, -179.000000)" fill="#F1612C" fill-rule="nonzero">
            <g id="ХоумСушПалочкиОближешь!-2" transform="translate(70.000000, 179.000000)">
                <path d="M15.8271732,30.7690204 C15.8736609,31.3799105 15.4552715,32.2257583 14.8044435,32.366733 C13.6887384,32.6956738 12.619521,32.4137245 11.9222053,31.3799105 C11.5503036,30.8160119 11.5038159,29.9701641 10.8994756,29.1243163 C10.0162091,27.6205868 9.69079506,26.5397812 8.90050393,24.7541024 C8.80752851,24.5661363 8.29616366,22.9684237 8.0637251,22.5454998 C7.83128653,23.1093983 7.59884796,23.9082546 7.45938483,24.3311785 C6.76206913,26.0698657 5.83231486,27.9495276 5.04202374,29.6882148 C4.85607289,30.5340627 4.43768347,31.5678767 3.87983091,32.4137245 C3.22900292,33.7294878 1.55544525,34.0114371 0.718666409,32.7426653 C0.30027699,32.3197414 0.207301564,32.1787668 0.0213507108,31.6148682 C-0.0716247157,31.0979612 0.16081385,30.5340627 0.30027699,30.0641472 C1.92734695,25.4589756 3.87983091,20.5718548 5.78582715,16.2956241 C5.55338858,15.4497762 5.22797459,14.6979115 4.85607289,13.6171059 C3.74036777,10.2807061 2.67115036,8.16608652 1.55544525,4.78269518 C1.55544525,4.59472899 1.23003125,3.32595724 1.23003125,3.13799105 C0.997592688,1.44629538 1.97383467,0.741422178 3.5079292,0.694430632 C4.80958517,0.694430632 5.87880258,2.15116857 6.34367971,3.84286425 C6.76206913,5.53455992 8.20318824,8.87095972 8.66806537,10.5626554 C9.03996707,9.90477374 9.69079506,7.97812034 9.87674591,7.32023869 C10.2951353,6.19244157 10.9459633,5.01765291 11.5967913,3.88985579 C11.968693,3.04400796 12.8054718,2.62108404 13.6422507,2.38612631 C14.6649804,1.96320239 15.5017592,2.52710094 15.5017592,3.60790651 C15.5482469,4.45375435 15.5482469,5.29960219 15.1763452,6.19244157 C13.7817138,8.91795127 12.5730333,11.4085032 11.8292299,14.1340129 C11.5503036,15.0268523 11.1784019,15.4967678 10.992451,16.4365987 C11.4573282,18.1282944 12.3405947,20.9007956 12.944935,22.6394828 C13.6887384,24.6601193 14.2930787,26.3988066 15.0833698,28.5604177 C15.2693206,29.1243163 15.7806855,30.0641472 15.8271732,30.7690204 Z M17.0358537,22.2635505 C16.9428783,19.726007 17.31478,17.5174043 18.0585834,15.167827 C18.1515589,13.8990552 19.3137517,12.3953257 20.1040428,11.7844356 C21.3127234,10.7976131 22.3819408,10.3276977 23.8695476,10.3276977 C26.7982735,10.5156638 30.8891923,12.8652412 31.4935326,16.6715564 C31.7724588,18.5512183 32.0978728,21.4177026 31.586508,23.5323222 C31.1681186,25.2240179 30.7032414,26.9157136 29.9129503,28.6074092 C29.3550977,29.876181 28.5183189,30.7220288 27.5420769,31.5678767 C24.8922773,33.8704625 21.5451619,33.0246146 19.3137517,30.7220288 C18.2445343,29.4532571 17.2682923,26.6807558 17.1753169,24.9890602 C17.1288292,24.1432123 17.0823415,23.2973645 17.0358537,22.2635505 Z M23.5906213,28.6544008 C24.4274001,28.4194431 25.0317404,27.7615614 25.4501298,27.1506713 C26.9377367,24.9890602 27.2166629,21.3237195 27.1236875,18.5042268 C27.0771998,17.4704127 27.0771998,16.2486325 26.6123227,15.167827 C26.3798841,14.744903 25.9614947,14.3219791 25.5431053,14.1340129 C24.2414493,13.8990552 23.2187196,14.3219791 22.8468179,15.5907509 C22.3354531,17.2824465 22.1959899,19.9139731 22.1030145,21.6056688 C21.9170636,24.0492292 22.7538425,27.9495276 23.5906213,28.6544008 Z M39.1175175,27.0096967 C40.7910752,27.0096967 41.0235138,26.6337643 42.0462435,27.6205868 C42.0462435,25.5059672 41.953268,22.9684237 41.8602926,20.6658379 C41.7673172,18.5512183 41.5813663,16.6245649 41.3954155,14.3219791 C41.3489278,13.711089 41.0235138,12.3953257 42.4646329,11.5494779 C43.1619486,11.126554 43.9522397,11.3145201 44.55658,11.7844356 C45.207408,12.3483342 45.8117482,13.0532074 45.8117482,14.0870214 C45.8117482,15.167827 46.0906745,16.4365987 46.1371622,17.4704127 C46.3231131,21.3237195 46.4160885,24.8950771 46.4160885,28.7013923 C46.4160885,32.6486822 46.3696008,36.3610144 44.0917028,39.0865241 C42.5576083,40.8722029 40.4656612,42 38.1877633,42 C37.9553247,42 37.1185459,41.8120338 36.8861073,41.7180507 C35.3985005,40.966186 35.4914759,39.6034311 36.2352793,38.8985579 C37.1185459,38.0527101 37.6299107,38.3816509 38.9315667,37.8177524 C39.6288824,37.3948284 40.2332226,37.0188961 40.7445875,36.2200398 C41.9067803,34.434361 41.8602926,32.7896569 42.0462435,30.5810542 C41.6743418,31.0509697 41.1164892,32.4607161 39.4894192,32.0847837 C36.0028407,31.4738936 34.2827953,27.808553 33.8644059,24.6601193 C33.4925042,22.1225758 33.5854797,19.8199901 33.6784551,17.4704127 C33.7714305,15.2148185 34.0503568,13.2881651 34.2827953,12.2073595 C34.6082093,10.70363 35.305525,9.152909 36.7931319,9.24689209 C38.885079,9.38786673 39.5823947,11.3615117 39.1175175,13.4761313 C38.559665,16.0136748 38.2807387,18.7391845 38.4666895,21.5116857 C38.4666895,22.7804575 38.4202018,24.2371954 38.6991281,25.7409249 C38.7921035,26.2108404 38.885079,26.5867727 39.1175175,27.0096967 Z M59.8045499,20.2899055 C61.1062059,16.718548 61.7570339,13.6171059 63.523567,10.6096469 C64.0349318,9.71680756 64.8717106,9.43485828 65.2901001,9.43485828 C66.2198543,9.43485828 66.8706823,9.8577822 67.6144857,10.2807061 C68.7301908,10.9385878 69.195068,11.643461 69.4275065,12.7242665 C69.845896,14.5569368 69.7994082,16.2956241 70.0318468,18.1282944 C70.3572608,20.6658379 70.5432117,23.1563899 70.6826748,25.5999503 C70.8221379,27.7615614 70.7291625,29.9231726 71.1010642,32.0847837 C71.2405274,33.2595724 69.9853591,34.2463948 69.0556048,33.9644455 C68.3118014,33.917454 67.5215103,33.6824963 67.0101455,33.1185977 C66.7312192,32.6956738 66.4987806,32.2727499 66.3593175,31.8968175 C66.1733666,29.1713078 66.0803912,26.351815 65.8479526,23.6263053 C65.7549772,22.0755843 65.6155141,20.5248633 65.5690263,19.1621084 C65.5690263,18.9741422 65.4295632,17.9403282 65.4295632,17.5174043 C64.0349318,20.6658379 62.7332758,23.9552461 62.1289356,27.1036798 C61.9894724,27.8555445 61.8035216,28.6544008 61.571083,29.2182994 C61.3386444,29.7352064 60.920255,30.4870711 60.5483533,30.6280457 C59.7115745,31.0509697 58.9212834,30.909995 58.0380168,30.6280457 C57.526652,30.4400796 56.8293363,29.0773247 56.875824,28.32546 C56.7363608,27.385629 56.5968977,26.351815 56.5039223,25.4589756 C56.1785083,23.8612631 55.8530943,22.5924913 55.5276803,21.1827449 C55.2952417,20.4778717 54.7373892,16.8125311 54.3654875,16.8125311 C54.0865612,18.1282944 53.8076349,20.759821 53.7146595,22.1695674 C53.5751963,23.4853307 53.5287086,25.0360517 53.5287086,26.3988066 C53.5287086,27.5735952 53.2497823,28.7013923 53.7611472,29.9231726 C53.9006103,30.4400796 53.8076349,31.0509697 53.2497823,31.5208851 C52.8778806,31.849826 52.1340772,31.9908006 51.6227124,32.0847837 C50.1815933,31.9908006 50.0421301,31.9908006 49.4842776,30.7690204 C49.3913021,30.5810542 49.1588636,30.1581303 49.1588636,30.0171556 C48.7869619,26.9157136 48.926425,23.8142715 49.3913021,20.759821 C49.577253,19.2560915 49.6237407,17.8933366 49.7632038,16.5775733 C49.902667,15.4027847 50.3675441,14.3689707 50.9718844,13.5701144 C51.7156878,12.5832919 51.2508107,12.1133764 51.7156878,10.9855793 C51.9481264,10.2807061 52.8778806,9.38786673 53.6681718,9.52884137 C54.4119752,9.66981601 54.7373892,9.62282447 55.8530943,10.186723 C56.5968977,10.5626554 57.201238,11.0325709 57.4336765,11.7844356 C57.9450414,13.3351566 58.1774799,14.227996 58.5958694,15.7317255 C58.8747956,16.6715564 59.2466973,18.9271507 59.8045499,20.2899055 Z M95.6930645,1.49328692 C96.6693065,1.96320239 97.227159,2.95002486 97.0412082,3.60790651 C96.8087696,4.68871208 96.3438925,5.06464446 94.8562857,4.92366982 C93.7405806,4.82968672 91.9740474,5.91049229 91.3232195,6.80333168 C90.3004898,8.21307807 89.7426372,9.62282447 89.1847847,11.4085032 C88.162055,14.1340129 87.9296164,18.3632521 87.8831287,20.8538041 C87.7901533,22.5924913 88.2085427,24.0492292 88.7663952,25.7409249 C89.5101986,28.1844853 91.7880966,29.7821979 94.15897,29.0773247 C94.5773594,29.0303332 95.0422365,28.7483839 95.4606259,28.7483839 C96.1114539,28.2784684 96.9482328,28.4194431 97.4131099,28.8893585 C97.6455485,28.8893585 97.7850116,29.8291895 97.7850116,29.8291895 C97.8314993,30.9569866 97.552573,31.3329189 96.6693065,32.0377921 C95.0422365,33.4475385 91.9275597,33.9644455 89.6961495,33.400547 C86.209571,32.4137245 84.3035748,29.1243163 83.5132836,25.4589756 C83.0019188,23.0154152 82.9089434,18.3162606 83.2343574,15.9196917 C83.7457222,12.5363003 84.1176239,10.4686723 85.4192799,7.64917951 C86.3955219,5.53455992 87.6971778,3.98383889 89.4172232,2.57409249 C90.3004898,1.91621084 91.0907809,1.39930383 92.1599983,1.58727001 C92.6248754,1.54027847 92.8108263,1.25832919 93.4616543,1.21133764 C94.15897,1.11735455 94.9492611,1.1643461 95.6930645,1.49328692 Z M104.060853,27.0096967 C105.734411,27.0096967 105.966849,26.6337643 106.989579,27.6205868 C106.989579,25.5059672 106.896603,22.9684237 106.803628,20.6658379 C106.710653,18.5512183 106.524702,16.6245649 106.338751,14.3219791 C106.292263,13.711089 105.966849,12.3953257 107.407968,11.5494779 C108.105284,11.126554 108.895575,11.3145201 109.499915,11.7844356 C110.150743,12.3483342 110.755084,13.0532074 110.755084,14.0870214 C110.755084,15.167827 111.03401,16.4365987 111.080498,17.4704127 C111.266448,21.3237195 111.359424,24.8950771 111.359424,28.7013923 C111.359424,32.6486822 111.312936,36.3610144 109.035038,39.0865241 C107.500944,40.8722029 105.408997,42 103.131099,42 C102.89866,42 102.061881,41.8120338 101.829443,41.7180507 C100.341836,40.966186 100.434811,39.6034311 101.178615,38.8985579 C102.061881,38.0527101 102.573246,38.3816509 103.874902,37.8177524 C104.572218,37.3948284 105.176558,37.0188961 105.687923,36.2200398 C106.850116,34.434361 106.803628,32.7896569 106.989579,30.5810542 C106.617677,31.0509697 106.059825,32.4607161 104.432755,32.0847837 C100.946176,31.4738936 99.2261307,27.808553 98.8077413,24.6601193 C98.4358396,22.1225758 98.528815,19.8199901 98.6217904,17.4704127 C98.7147659,15.2148185 98.9936921,13.2881651 99.2261307,12.2073595 C99.5515447,10.70363 100.24886,9.152909 101.736467,9.24689209 C103.828414,9.38786673 104.52573,11.3615117 104.060853,13.4761313 C103.503,16.0136748 103.224074,18.7391845 103.410025,21.5116857 C103.410025,22.7804575 103.363537,24.2371954 103.642463,25.7409249 C103.735439,26.2108404 103.828414,26.5867727 104.060853,27.0096967 Z M121.075356,28.0905022 C120.889405,25.4119841 121.261307,21.3707111 121.261307,18.6452014 C121.261307,17.2824465 121.726184,15.9666832 121.726184,14.6039284 C121.726184,13.8990552 121.912135,13.2881651 122.144573,12.5832919 C122.60945,11.2675286 123.911106,11.0325709 125.026812,11.9254102 C125.910078,12.3953257 126.142517,13.0532074 126.142517,13.9460467 C126.142517,16.1546494 125.910078,18.6452014 125.445201,20.8538041 C125.25925,22.8744406 125.305738,26.4927897 125.073299,28.7483839 C125.956566,28.5134262 126.839832,28.6544008 127.723099,28.6544008 C127.723099,28.2314769 127.955537,27.6205868 127.955537,27.385629 C127.955537,23.3913476 128.420415,17.9403282 128.652853,13.9460467 C128.885292,13.0532074 128.885292,12.160368 128.885292,11.2675286 C129.11773,9.71680756 130.558849,8.82396818 131.860505,9.48184983 C132.511333,9.90477374 133.069186,10.6096469 133.069186,11.2675286 C133.255137,11.9254102 133.255137,12.3953257 133.255137,12.8182496 C133.255137,14.8388861 133.255137,16.6245649 133.069186,18.4102437 C132.836747,21.9816012 132.557821,26.9627051 132.139432,30.5340627 C132.139432,31.1919443 131.906993,31.6148682 131.488604,32.0847837 C131.256165,32.3197414 131.023727,32.5077076 130.791288,32.5077076 C130.605337,32.5077076 130.14046,32.5077076 129.722071,32.7426653 C127.955537,33.6355047 126.189004,33.6355047 124.422471,33.400547 C122.841889,33.2125808 120.98238,32.7426653 119.634237,32.7426653 C117.867704,32.5077076 116.240634,31.5678767 115.357367,30.4870711 C114.009224,28.7013923 113.916248,26.7277474 113.916248,24.5191447 C113.916248,23.6263053 113.86976,21.3237195 113.86976,20.4308802 C113.86976,17.4704127 114.613564,15.0738439 114.613564,12.1133764 C114.613564,11.6904525 115.078441,11.220537 115.078441,10.7976131 C115.078441,9.57583292 116.287121,8.91795127 117.402827,9.24689209 C118.75097,9.62282447 119.401798,10.7976131 119.401798,12.160368 C119.401798,13.9460467 118.936921,15.4967678 118.936921,17.2824465 C118.704483,19.726007 118.565019,23.6263053 118.75097,26.0698657 C118.75097,26.4927897 118.983409,27.1976629 119.215847,27.6205868 C119.448286,28.0905022 120.424528,28.2784684 121.075356,28.0905022 Z M146.969012,32.6016907 C146.318184,32.1317752 145.899795,31.7088513 145.899795,30.8160119 C145.667356,29.0303332 145.899795,24.8950771 145.667356,23.1093983 C145.667356,22.6864744 145.899795,22.2165589 145.481405,21.5586773 C145.248967,21.9816012 145.248967,21.9816012 145.016528,22.2165589 C144.133262,24.2371954 143.807848,24.4721532 143.017557,26.3048235 C142.73863,26.9627051 141.297511,29.5942317 140.832634,30.2991049 C140.414245,31.3799105 139.205564,32.1787668 138.322298,32.1787668 C136.974154,32.1787668 137.25308,32.1317752 136.369814,31.0039781 C135.904936,30.5340627 135.811961,29.1713078 135.811961,28.5134262 C135.579522,25.834908 135.486547,22.9214321 135.811961,20.242914 C136.137375,17.7993536 135.997912,15.5907509 136.23035,13.1001989 C136.23035,12.4423173 136.462789,11.5494779 136.695228,10.8915962 C136.881178,10.4216808 137.346056,10.2337146 137.764445,9.99875684 C139.995855,9.52884137 140.832634,11.3145201 140.646683,13.1001989 C140.181806,16.2486325 139.949367,19.3500746 139.949367,22.4985082 L139.949367,23.1563899 C140.414245,23.3913476 140.786146,21.5586773 141.018585,21.3707111 C141.901851,19.5850323 142.320241,18.5982098 143.203507,17.0004973 C144.086774,15.4497762 144.3657,14.6979115 145.248967,13.3351566 C145.667356,12.677275 145.899795,12.0193933 145.899795,11.3145201 C145.899795,9.99875684 146.550623,9.34087519 147.666328,9.34087519 C149.432861,9.10591745 149.944226,9.7637991 150.316128,11.5494779 C150.455591,12.2073595 150.316128,13.3351566 150.316128,14.227996 C150.316128,15.7787171 150.083689,17.3764296 150.083689,18.6921929 L150.083689,23.3913476 C150.083689,25.1770264 150.037201,28.32546 150.037201,30.1581303 C150.037201,30.5810542 150.037201,31.0509697 149.85125,31.7088513 C149.618812,32.1317752 149.386373,32.7426653 148.735545,32.9776231 C147.898766,33.3065639 147.61984,32.7426653 146.969012,32.6016907 Z M163.611614,1.91621084 C164.587855,0.0835405271 167.377118,0.31849826 169.608529,0.0835405271 C170.026918,-0.104425659 170.212869,0.0835405271 170.39882,0.0835405271 C172.02589,0.31849826 173.420521,0.31849826 174.815152,0.459472899 C175.837882,0.694430632 176.628173,0.882396818 177.232513,1.68125311 C177.650903,2.33913476 178.208755,2.71506713 178.859583,3.13799105 C179.649875,3.56091497 179.835825,4.12481353 179.835825,4.78269518 C180.068264,5.58155147 180.068264,6.14545002 180.068264,6.99129786 C179.835825,9.01193436 179.835825,11.0325709 179.835825,13.2881651 L179.835825,31.3329189 C179.835825,32.366733 179.417436,32.9306315 178.627145,33.1655893 C178.208755,33.1655893 177.836854,33.3535554 177.650903,33.3535554 C177.046563,33.5885132 176.628173,33.3535554 176.209784,33.3535554 C174.629202,32.7896569 174.024861,31.5678767 174.024861,30.1111387 L174.024861,28.7013923 C174.210812,26.2578319 174.210812,23.8612631 174.210812,21.4177026 C174.2573,20.6658379 174.443251,16.7655395 174.443251,16.1076579 C174.489738,13.3351566 174.629202,10.4686723 174.629202,7.36723023 L174.629202,6.00447539 C174.024861,5.34659373 173.420521,5.15862755 172.816181,5.15862755 C171.6075,4.92366982 170.212869,4.54773744 168.818237,4.78269518 L168.818237,5.76951765 C169.236627,6.80333168 169.236627,8.02511188 169.236627,9.24689209 C168.818237,11.8314272 168.399848,14.2749876 168.818237,16.9535057 C169.236627,20.9947787 169.236627,24.8480855 169.794479,28.8893585 C170.026918,29.6882148 170.026918,30.3460965 170.212869,31.1449528 C170.39882,31.9438091 170.026918,32.366733 169.608529,32.9306315 C168.167409,34.5753357 165.796536,33.5885132 164.959757,32.366733 C164.820294,31.9438091 164.587855,31.1449528 164.587855,30.7220288 C164.169466,27.2916459 163.751077,23.8612631 163.611614,20.3838886 C163.611614,18.9741422 163.611614,17.752362 163.379175,16.2956241 C163.193224,13.8990552 163.611614,11.2675286 163.983515,8.58901044 C164.169466,7.17926405 163.751077,5.58155147 163.751077,4.12481353 C163.751077,3.32595724 163.239712,2.62108404 163.611614,1.91621084 Z M190.946389,30.5810542 C190.342049,30.8160119 189.412294,31.2389359 188.807954,31.426902 C187.971175,31.6618598 186.297618,31.5678767 185.600302,31.0509697 C184.856498,30.4870711 184.391621,30.1581303 183.787281,29.5472402 C182.718064,28.4664346 182.532113,27.4326206 182.532113,26.351815 C182.532113,24.4721532 183.229428,22.5454998 184.717035,21.0417703 C185.972204,19.7729985 186.390593,19.2560915 188.157126,18.5512183 C189.272831,18.0813028 190.388536,17.8933366 191.504241,17.8933366 C191.73668,16.4365987 191.73668,14.9798608 191.318291,13.5231228 C190.249073,13.1001989 189.644733,13.711089 188.807954,14.1340129 C188.389565,14.3689707 187.738737,14.5569368 187.320347,14.7918946 C186.716007,14.9798608 185.83274,14.7918946 185.321376,14.1810045 C184.949474,13.7580806 184.670548,13.194182 184.717035,12.3013426 C184.763523,11.2675286 185.64679,10.3276977 186.716007,10.1397315 C188.157126,9.48184983 189.830684,8.87095972 191.318291,9.29388364 C193.410238,9.90477374 195.269746,10.9855793 195.688136,13.5231228 C196.106525,15.4027847 196.338964,17.0474888 196.338964,18.9741422 C196.338964,21.5586773 195.920574,23.6732969 195.920574,25.7409249 C195.920574,27.6205868 195.502185,27.9965191 195.502185,29.9231726 L195.502185,31.849826 C195.502185,32.6956738 195.083795,33.3065639 194.247017,33.5415216 C193.642676,33.7294878 192.526971,33.7294878 191.922631,33.2125808 C191.225315,32.6486822 190.946389,31.8968175 190.946389,31.0509697 L190.946389,30.5810542 Z M191.504241,21.6996519 C189.412294,21.9346096 188.389565,22.5454998 187.552786,24.0492292 C186.901958,25.0830433 186.762495,27.0096967 187.645761,27.5266037 C188.947417,28.2784684 189.877171,27.7615614 191.318291,26.9627051 C191.085852,25.5059672 191.73668,23.3913476 191.504241,21.6996519 Z M199.221202,11.3615117 C199.26769,10.8915962 199.779054,10.3746892 200.243932,10.2807061 C202.242903,9.95176529 207.077625,9.66981601 210.006351,10.2337146 C210.517716,10.3276977 211.075569,10.6566385 211.26152,10.8446047 C211.912348,11.4554948 212.191274,12.0193933 212.330737,12.8182496 C212.656151,14.5099453 212.516688,16.2486325 212.516688,17.9403282 C212.516688,19.8199901 212.749126,21.5116857 212.749126,23.2503729 C212.749126,25.3649925 212.330737,27.1976629 212.330737,29.359274 L212.330737,31.0509697 C212.516688,31.8968175 212.005323,32.6486822 211.493958,33.1655893 C210.936106,33.7294878 210.285278,33.8234709 209.402011,33.8234709 C208.565232,33.8234709 207.728453,32.7426653 207.728453,31.7088513 C207.728453,30.4400796 207.914404,29.1713078 207.914404,27.9025361 C207.914404,27.1976629 207.914404,26.6337643 208.146843,25.9758826 C208.286306,23.2503729 208.286306,20.4778717 208.146843,17.9403282 C207.914404,16.8595226 207.914404,16.0606663 207.728453,14.9798608 C207.635478,14.4629538 207.58899,14.0870214 207.449527,13.8520636 C207.217089,13.3821482 206.473285,13.5231228 205.636506,13.5231228 C205.822457,14.3219791 206.054896,15.2148185 206.054896,16.0606663 L206.054896,19.2091 C205.822457,22.5924913 205.35758,26.2108404 204.241875,29.2182994 C203.73051,30.5340627 203.172657,31.3329189 202.10344,32.1787668 C201.08071,32.7896569 199.407153,32.7896569 198.337935,31.9908006 C197.919546,31.8028344 197.733595,31.3329189 197.919546,30.6750373 L197.919546,29.8291895 C197.919546,29.0303332 198.151984,28.842367 198.988763,28.5604177 C199.825542,28.5604177 200.011493,28.1374938 200.243932,27.5735952 C201.313149,24.3311785 201.871001,20.7128294 201.871001,17.2824465 C201.871001,16.4835903 201.638563,14.3689707 201.452612,13.7580806 C200.987735,13.4761313 201.173686,13.6640975 200.383395,13.4291397 C199.500128,13.2411735 199.081739,12.3953257 199.221202,11.3615117 Z M214.887561,22.2635505 C214.794586,19.726007 215.166487,17.5174043 215.910291,15.167827 C216.003266,13.8990552 217.165459,12.3953257 217.95575,11.7844356 C219.164431,10.7976131 220.233648,10.3276977 221.721255,10.3276977 C224.649981,10.5156638 228.7409,12.8652412 229.34524,16.6715564 C229.624166,18.5512183 229.94958,21.4177026 229.438215,23.5323222 C229.019826,25.2240179 228.554949,26.9157136 227.764658,28.6074092 C227.206805,29.876181 226.370026,30.7220288 225.393784,31.5678767 C222.743985,33.8704625 219.396869,33.0246146 217.165459,30.7220288 C216.096242,29.4532571 215.12,26.6807558 215.027024,24.9890602 C214.980537,24.1432123 214.934049,23.2973645 214.887561,22.2635505 Z M221.442329,28.6544008 C222.279108,28.4194431 222.883448,27.7615614 223.301837,27.1506713 C224.789444,24.9890602 225.06837,21.3237195 224.975395,18.5042268 C224.928907,17.4704127 224.928907,16.2486325 224.46403,15.167827 C224.231592,14.744903 223.813202,14.3219791 223.394813,14.1340129 C222.093157,13.8990552 221.070427,14.3219791 220.698525,15.5907509 C220.18716,17.2824465 220.047697,19.9139731 219.954722,21.6056688 C219.768771,24.0492292 220.60555,27.9495276 221.442329,28.6544008 Z M241.989898,34.9982596 C241.757459,35.0452511 240.223365,34.3873695 240.037414,34.2933864 C239.479561,33.9644455 238.735758,32.8366484 238.828733,32.2257583 C239.061172,30.2051218 239.200635,29.1713078 239.061172,27.2916459 C238.921709,26.4927897 238.968197,25.5059672 239.014684,24.4251616 C236.364885,24.7071109 234.598352,24.0492292 233.064257,22.0755843 C232.552892,21.4646942 232.134503,20.8068125 231.948552,20.1959224 C230.879335,17.7053705 231.065285,15.4497762 231.483675,12.8182496 C231.716113,11.3615117 231.623138,9.95176529 232.134503,8.72998508 C232.320454,8.11909498 232.738843,7.50820487 233.20372,7.55519642 C234.319425,7.64917951 234.551864,7.64917951 235.342155,8.07210343 C236.318397,8.58901044 236.45786,10.186723 236.132446,11.1735455 C235.621081,12.7712581 235.574594,14.6509199 235.621081,16.2956241 C235.667569,17.5174043 236.085958,18.5042268 236.271909,19.7729985 C236.411372,20.4308802 236.829762,20.6188463 237.620053,20.242914 C238.038442,20.0549478 238.410344,20.1019393 239.247123,19.7729985 L239.665512,11.4554948 C239.804975,8.91795127 241.896923,8.68299354 242.687214,9.38786673 C243.245066,9.81079065 242.780189,9.66981601 243.523993,10.2337146 C244.221308,10.7506216 244.128333,12.2073595 244.081845,13.194182 L243.942382,23.8612631 C243.849407,25.318001 243.849407,26.9627051 243.849407,28.6074092 C243.849407,30.393088 244.221308,31.426902 243.849407,33.2125808 C243.57048,34.6223272 242.454775,34.8572849 241.989898,34.9982596 Z M247.800862,19.7729985 L248.079788,14.2749876 C248.126276,13.4761313 248.126276,12.7242665 248.219252,11.9254102 C248.265739,11.5494779 248.405202,11.126554 248.498178,10.7506216 C248.591153,9.66981601 249.381444,9.52884137 250.218223,9.19990055 C250.450662,9.10591745 251.473391,9.29388364 251.891781,9.57583292 C252.775047,10.2337146 252.821535,11.1735455 252.72856,12.2543511 C252.682072,12.8182496 252.635584,13.3351566 252.589097,13.8990552 L252.589097,14.227996 C252.542609,15.26181 252.542609,15.9196917 252.542609,16.5775733 L252.542609,18.269269 C253.565339,17.3764296 253.983728,16.2486325 254.309142,15.684734 C254.681044,15.0268523 255.285384,13.9930383 255.750261,13.194182 C256.075675,12.6302834 257.330843,10.8915962 258.400061,10.6566385 C259.23684,10.4686723 260.027131,10.5626554 260.538496,11.3615117 C260.910397,11.9254102 261.328787,12.8652412 260.584983,13.6640975 C259.42279,14.9798608 259.004401,16.2486325 257.470306,18.3632521 C257.377331,18.5042268 256.308114,20.2899055 255.9827,20.7128294 C256.401089,21.1357534 257.005429,22.9684237 257.237868,23.3913476 C258.586012,25.5529587 259.376303,27.9965191 260.399032,30.393088 C260.956885,31.7088513 259.980643,32.9306315 258.260598,32.9776231 C257.051917,33.0246146 256.122163,31.6618598 255.517823,30.1581303 C254.35563,27.2916459 253.983728,26.0228742 252.589097,23.9082546 C252.356658,24.2371954 252.542609,24.6131278 252.542609,24.6131278 C252.542609,26.7277474 252.775047,29.0773247 252.775047,31.1919443 C252.775047,31.3799105 252.960998,31.8028344 252.960998,32.0377921 C252.960998,32.6956738 252.496121,33.0246146 251.938269,33.3065639 C251.240953,33.6824963 250.49715,33.8234709 249.613883,33.4945301 C248.823592,33.2125808 248.963055,32.5077076 248.358715,32.0377921 C247.800862,31.6148682 247.661399,29.6412233 247.661399,29.0303332 C247.661399,25.2240179 247.800862,23.5793138 247.800862,19.7729985 Z M263.978586,10.70363 C264.675902,10.2807061 265.512681,10.3276977 266.209997,10.6566385 C267.046775,10.8446047 267.139751,12.0193933 267.139751,12.8182496 C267.139751,14.227996 267.046775,15.6377424 266.860825,17.0474888 C266.721361,18.4572352 266.488923,19.5380408 266.488923,20.9477872 C266.488923,21.6056688 266.34946,22.6864744 266.34946,23.3913476 C266.34946,23.3913476 266.256484,24.0492292 266.442435,24.284187 C266.767849,24.284187 267.093263,23.1563899 267.279214,22.7804575 C268.115993,20.9007956 268.952772,18.8801591 269.882526,16.6715564 C270.393891,15.4497762 270.951743,14.227996 271.41662,12.8182496 C271.742034,11.7844356 272.113936,10.7506216 272.43935,9.7637991 C272.811252,8.72998508 274.019932,8.5420189 275.042662,8.91795127 C275.739978,9.7637991 276.437293,9.19990055 276.71622,11.3615117 C276.809195,12.160368 276.855683,13.0532074 276.855683,13.9460467 L277.088121,22.5454998 C277.134609,23.6263053 277.088121,25.5999503 277.088121,26.3988066 C277.274072,27.9965191 277.134609,29.2652909 277.134609,30.8160119 C277.134609,31.849826 276.437293,32.6956738 275.414564,32.6956738 C274.48481,32.6956738 273.508568,32.3197414 273.322617,31.4738936 C272.671789,28.3724515 273.183154,24.4721532 272.85774,19.7729985 C272.764764,20.242914 271.974473,21.9346096 271.742034,22.4045251 C271.41662,23.4383391 270.998231,24.3781701 270.579842,25.1770264 C269.836038,26.7277474 268.952772,28.7953754 268.115993,30.2051218 C267.418677,31.3799105 266.907312,32.88364 265.512681,32.88364 C264.304,32.88364 263.327758,31.6618598 263.188295,30.2521134 C262.816394,27.808553 262.816394,25.5999503 262.816394,23.1563899 C262.583955,23.1563899 263.560197,15.2148185 263.141808,14.227996 C263.002344,13.8050721 263.002344,13.0532074 263.141808,12.5363003 C263.141808,12.0193933 263.513709,10.9855793 263.978586,10.70363 Z M306.654307,17.4234212 C306.654307,20.8068125 306.18943,23.2033814 305.213188,26.1168573 C304.515872,28.3724515 302.702851,30.9569866 300.610904,32.0377921 C299.541687,32.6486822 298.518957,33.3065639 297.263789,33.0716062 C293.916674,32.6486822 291.592288,30.9569866 290.33712,27.808553 C289.31439,24.8480855 289.035464,21.6526604 289.31439,18.269269 C289.500341,16.1546494 289.732779,13.3821482 290.151169,11.0325709 C290.569558,9.152909 290.987948,7.03828941 292.429067,5.34659373 C292.661505,5.111636 292.661505,4.92366982 292.661505,4.68871208 C292.661505,3.65489806 293.17287,2.71506713 293.916674,2.15116857 C294.846428,1.44629538 295.357793,1.11735455 296.42701,1.11735455 C299.355736,1.11735455 301.633634,2.33913476 303.307192,4.87667827 C304.56236,6.75634013 305.631577,8.87095972 305.817528,10.9855793 C305.817528,11.643461 306.096455,12.7242665 306.235918,13.1471905 C306.700795,14.5569368 306.654307,16.1546494 306.654307,17.4234212 Z M296.42701,5.76951765 C296.194572,6.19244157 296.194572,6.80333168 296.008621,7.03828941 C295.357793,7.88413725 295.357793,8.91795127 295.171842,9.7637991 C294.939403,11.2675286 294.706965,12.5363003 294.521014,13.9930383 C294.288575,15.684734 294.102625,17.8463451 294.102625,19.5380408 C294.102625,21.8876181 293.916674,24.1902039 294.753452,26.5397812 C294.753452,27.1506713 295.171842,27.808553 295.357793,28.4194431 C295.776182,29.0773247 296.612961,29.2652909 297.263789,28.6544008 C297.868129,28.4194431 298.100568,27.9965191 298.518957,27.5735952 C299.68115,25.7879165 300.517929,24.0492292 301.215245,22.0755843 C301.866073,19.5380408 302.052023,16.5305818 301.866073,13.8050721 C301.866073,11.8784187 301.122269,10.0457484 300.378466,8.07210343 C300.146027,7.46121333 299.727638,6.66235704 299.123298,5.95748384 C298.47247,5.15862755 297.682178,4.68871208 296.42701,5.76951765 Z M314.138829,10.1397315 C314.510731,10.1397315 315.115071,9.95176529 315.53346,9.71680756 C317.16053,9.152909 318.601649,10.186723 319.577891,11.3145201 C320.693596,12.6302834 321.344424,13.9930383 321.762814,15.6377424 C322.832031,19.8669816 322.599593,23.4383391 322.088228,26.0228742 C321.809302,27.2446544 321.483888,28.1374938 320.740084,28.7953754 C320.554133,29.5002486 320.41467,30.0171556 320.089256,30.6280457 C319.438428,31.7088513 318.276235,31.9908006 317.067555,31.9908006 C315.719411,31.9908006 313.348538,30.8630035 311.907419,29.5002486 C310.931177,28.5604177 310.373324,27.0566882 309.768984,25.4589756 C309.118156,23.7202884 309.071668,17.8463451 309.536545,16.0136748 C309.629521,15.684734 310.187373,13.711089 311.210103,12.5363003 C310.326836,10.4216808 309.44357,9.01193436 309.44357,6.56837394 C309.44357,5.44057683 309.908447,4.31277971 310.559275,3.13799105 C310.559275,2.90303332 310.791714,2.66807558 310.791714,2.66807558 C311.442542,0.835405271 313.580976,0.365489806 315.579948,0.788413725 C316.370239,0.929388364 317.857846,1.11735455 318.555162,0.929388364 C320.089256,0.506464446 320.786572,0.741422178 321.4374,1.54027847 C321.948765,2.29214321 321.762814,2.95002486 321.158474,3.7958727 C320.740084,4.35977126 320.507646,4.68871208 320.042768,4.68871208 C319.113014,4.68871208 318.229748,4.92366982 317.346481,4.92366982 C316.463215,4.92366982 315.998337,4.92366982 315.068583,4.68871208 L314.650194,4.68871208 C314.185317,4.68871208 313.534489,5.25261064 313.395025,5.95748384 C313.162587,7.8371457 313.720439,8.58901044 314.138829,10.1397315 Z M315.672923,13.6171059 C315.579948,14.1340129 315.254534,14.1810045 314.975608,14.3689707 C314.138829,14.9328692 313.813415,16.2956241 313.813415,17.3294381 C313.813415,19.3500746 314.138829,23.6732969 314.789657,25.4589756 C315.068583,26.2108404 315.440485,26.7277474 315.998337,27.1976629 C315.998337,27.385629 316.509702,27.7145699 316.788629,27.385629 C316.788629,26.9157136 317.021067,26.7277474 317.021067,26.2108404 C317.439457,25.2240179 318.229748,23.9082546 318.043797,22.7334659 L318.043797,22.2165589 C318.043797,21.8876181 317.857846,20.3838886 317.857846,20.1959224 C317.671895,18.3632521 317.57892,16.1076579 317.021067,14.5569368 C317.021067,14.3689707 316.184288,13.4761313 315.672923,13.6171059 Z M324.366126,11.3615117 C324.412614,10.8915962 324.923978,10.3746892 325.388855,10.2807061 C327.387827,9.95176529 332.222549,9.66981601 335.151275,10.2337146 C335.66264,10.3276977 336.220493,10.6566385 336.406444,10.8446047 C337.057272,11.4554948 337.336198,12.0193933 337.475661,12.8182496 C337.801075,14.5099453 337.661612,16.2486325 337.661612,17.9403282 C337.661612,19.8199901 337.89405,21.5116857 337.89405,23.2503729 C337.89405,25.3649925 337.475661,27.1976629 337.475661,29.359274 L337.475661,31.0509697 C337.661612,31.8968175 337.150247,32.6486822 336.638882,33.1655893 C336.08103,33.7294878 335.430202,33.8234709 334.546935,33.8234709 C333.710156,33.8234709 332.873377,32.7426653 332.873377,31.7088513 C332.873377,30.4400796 333.059328,29.1713078 333.059328,27.9025361 C333.059328,27.1976629 333.059328,26.6337643 333.291767,25.9758826 C333.43123,23.2503729 333.43123,20.4778717 333.291767,17.9403282 C333.059328,16.8595226 333.059328,16.0606663 332.873377,14.9798608 C332.780402,14.4629538 332.733914,14.0870214 332.594451,13.8520636 C332.362012,13.3821482 331.618209,13.5231228 330.78143,13.5231228 C330.967381,14.3219791 331.19982,15.2148185 331.19982,16.0606663 L331.19982,19.2091 C330.967381,22.5924913 330.502504,26.2108404 329.386799,29.2182994 C328.875434,30.5340627 328.317581,31.3329189 327.248364,32.1787668 C326.225634,32.7896569 324.552077,32.7896569 323.482859,31.9908006 C323.06447,31.8028344 322.878519,31.3329189 323.06447,30.6750373 L323.06447,29.8291895 C323.06447,29.0303332 323.296908,28.842367 324.133687,28.5604177 C324.970466,28.5604177 325.156417,28.1374938 325.388855,27.5735952 C326.458073,24.3311785 327.015925,20.7128294 327.015925,17.2824465 C327.015925,16.4835903 326.783487,14.3689707 326.597536,13.7580806 C326.132659,13.4761313 326.31861,13.6640975 325.528319,13.4291397 C324.645052,13.2411735 324.226663,12.3953257 324.366126,11.3615117 Z M341.984969,10.70363 C342.682285,10.2807061 343.519064,10.3276977 344.216379,10.6566385 C345.053158,10.8446047 345.146134,12.0193933 345.146134,12.8182496 C345.146134,14.227996 345.053158,15.6377424 344.867207,17.0474888 C344.727744,18.4572352 344.495306,19.5380408 344.495306,20.9477872 C344.495306,21.6056688 344.355842,22.6864744 344.355842,23.3913476 C344.355842,23.3913476 344.262867,24.0492292 344.448818,24.284187 C344.774232,24.284187 345.099646,23.1563899 345.285597,22.7804575 C346.122376,20.9007956 346.959154,18.8801591 347.888909,16.6715564 C348.400274,15.4497762 348.958126,14.227996 349.423003,12.8182496 C349.748417,11.7844356 350.120319,10.7506216 350.445733,9.7637991 C350.817635,8.72998508 352.026315,8.5420189 353.049045,8.91795127 C353.746361,9.7637991 354.443676,9.19990055 354.722603,11.3615117 C354.815578,12.160368 354.862066,13.0532074 354.862066,13.9460467 L355.094504,22.5454998 C355.140992,23.6263053 355.094504,25.5999503 355.094504,26.3988066 C355.280455,27.9965191 355.140992,29.2652909 355.140992,30.8160119 C355.140992,31.849826 354.443676,32.6956738 353.420947,32.6956738 C352.491192,32.6956738 351.51495,32.3197414 351.328999,31.4738936 C350.678171,28.3724515 351.189536,24.4721532 350.864122,19.7729985 C350.771147,20.242914 349.980856,21.9346096 349.748417,22.4045251 C349.423003,23.4383391 349.004614,24.3781701 348.586224,25.1770264 C347.842421,26.7277474 346.959154,28.7953754 346.122376,30.2051218 C345.42506,31.3799105 344.913695,32.88364 343.519064,32.88364 C342.310383,32.88364 341.334141,31.6618598 341.194678,30.2521134 C340.822776,27.808553 340.822776,25.5999503 340.822776,23.1563899 C340.590338,23.1563899 341.56658,15.2148185 341.14819,14.227996 C341.008727,13.8050721 341.008727,13.0532074 341.14819,12.5363003 C341.14819,12.0193933 341.520092,10.9855793 341.984969,10.70363 Z M366.298043,16.9065142 L366.530482,12.0193933 C366.530482,11.1735455 366.995359,10.4686723 367.739162,10.2337146 C368.622429,9.90477374 368.482966,9.52884137 369.691646,9.99875684 C371.272228,10.5626554 370.900327,11.5024863 370.900327,14.0870214 C370.900327,14.3219791 370.853839,14.5569368 370.853839,14.7918946 C370.853839,15.4497762 370.807351,15.7787171 370.807351,16.5305818 C370.807351,16.9065142 370.900327,17.6113874 370.853839,17.9873197 C373.550126,16.0606663 373.968516,14.7918946 375.688561,11.8314272 C375.828024,11.5964694 376.339389,10.6096469 377.036705,10.1397315 C377.501582,9.81079065 378.384849,9.81079065 378.849726,9.81079065 C379.77948,9.81079065 380.38382,10.7976131 380.38382,11.5024863 C380.80221,13.2881651 378.849726,14.1810045 378.012947,15.7317255 C377.083193,17.4704127 375.642073,19.5380408 374.433393,19.9609647 C377.222656,22.0755843 378.105922,26.351815 380.430308,28.4194431 C380.895185,28.7953754 381.127624,29.6882148 381.127624,30.3460965 C381.127624,30.9569866 380.38382,31.7088513 379.640017,31.9908006 C378.477824,32.5077076 376.664803,32.1787668 375.735049,30.393088 C374.944758,28.8893585 374.247442,27.6675783 373.2712,26.1638488 C372.713348,25.2710094 371.318716,22.827449 370.528425,23.0154152 C370.481937,23.0624068 370.43545,23.5793138 370.43545,23.6263053 L370.43545,24.8950771 C370.063548,25.8818996 370.110036,29.5002486 370.110036,30.7220288 C370.110036,32.6486822 369.180281,32.7426653 368.854867,32.7426653 C368.622429,32.7426653 368.343503,32.6486822 368.064576,32.6486822 C367.18131,32.6486822 365.693703,31.6618598 365.693703,30.4870711 L365.693703,26.868722 C365.693703,26.2578319 365.926141,23.9082546 365.833166,23.2033814 C365.042875,23.7202884 364.159608,26.1638488 363.880682,27.1506713 C362.486051,31.1449528 361.742247,32.6956738 359.975714,32.6956738 C359.6503,32.88364 357.093476,32.2727499 357.465378,30.0171556 C357.651328,29.0303332 358.44162,28.6074092 358.720546,27.7615614 C359.464349,25.4589756 360.951956,21.5116857 362.486051,21.0417703 C360.301128,18.2222775 359.6503,16.0136748 359.6503,13.0062158 C358.906497,12.7712581 357.883767,12.1133764 357.883767,11.220537 C357.883767,8.96494281 360.487079,8.07210343 362.579026,9.81079065 C363.694731,10.7506216 363.880682,12.6302834 363.92717,13.9460467 C363.973657,16.2956241 365.414777,18.8801591 366.437506,18.8801591 C366.205068,18.5042268 366.298043,17.2824465 366.298043,16.9065142 Z M387.91483,25.2710094 C388.193756,27.9965191 389.867314,29.5942317 391.494384,28.7013923 C392.145212,28.4194431 393.214429,27.4796121 393.865257,27.6205868 C394.097696,27.6675783 394.330134,27.8555445 394.516085,28.0905022 C395.445839,29.1243163 395.166913,29.9231726 394.376622,31.0039781 C393.353892,32.2727499 391.447896,33.3065639 389.774338,33.1655893 C386.427223,32.9306315 384.939616,30.9569866 383.591472,28.0435107 C382.940644,25.9758826 382.754694,23.5793138 382.987132,21.4177026 C383.219571,19.2091 383.684448,16.718548 384.66069,14.744903 C385.26503,13.4761313 385.915858,12.8652412 386.706149,11.5494779 C387.124539,10.8915962 387.91483,10.4216808 388.937559,10.2337146 C390.192728,10.186723 391.261945,10.186723 392.563601,10.7506216 C394.655548,11.5494779 395.538815,13.0062158 395.585302,15.3088016 C395.678278,17.235455 395.492327,19.5850323 394.702036,21.5586773 C394.516085,22.1695674 394.144183,22.827449 393.493355,23.2503729 C393.307405,23.2503729 393.074966,23.4853307 392.889015,23.4853307 C391.866285,24.9890602 390.425166,24.9890602 388.751609,25.2240179 C388.51917,25.2240179 388.333219,25.2240179 387.91483,25.2710094 Z M390.704093,20.8068125 C391.633847,16.5305818 391.819798,14.9798608 391.122482,13.7580806 C389.727851,14.4159622 389.12351,15.9196917 388.51917,17.1884635 C387.961317,18.5042268 387.821854,19.7729985 387.821854,21.0417703 C388.612145,21.1357534 389.867314,20.9947787 390.704093,20.8068125 Z M407.532645,30.5810542 C407.160743,29.1713078 407.114255,28.0905022 407.02128,26.6337643 C406.742354,23.2033814 406.695866,20.242914 406.509915,16.8125311 C406.370452,15.0268523 406.41694,13.194182 406.184501,11.4554948 C406.230989,11.0325709 406.230989,10.7976131 406.463427,10.4216808 C406.649378,9.62282447 407.858059,9.24689209 408.601862,9.71680756 C409.438641,10.1397315 409.624592,10.70363 410.414883,11.3145201 C410.740297,11.5494779 410.926248,11.9254102 411.158686,12.7242665 C411.251662,15.7317255 411.577076,18.8801591 411.4841,21.8876181 C411.437613,23.8612631 411.437613,25.3649925 411.716539,27.4326206 C411.809514,28.3724515 412.088441,29.2652909 412.274391,30.2051218 C413.250633,30.3460965 414.273363,30.1111387 415.389068,30.3460965 C415.389068,29.9701641 415.575019,29.8291895 415.621507,29.6412233 C415.714482,25.6469418 415.621507,22.5924913 415.714482,18.8801591 C415.714482,17.2824465 415.575019,15.8727001 415.621507,14.227996 C415.667995,12.8652412 415.342581,11.4085032 415.342581,10.0457484 C415.203117,9.24689209 415.482044,9.01193436 415.946921,8.68299354 C416.318823,8.40104426 417.38804,8.4480358 417.899405,8.72998508 C419.294036,9.48184983 419.991352,9.62282447 420.177303,12.160368 C420.270278,12.9592243 420.316766,13.7580806 420.316766,14.5569368 C420.22379,17.1414719 420.549204,19.726007 420.549204,22.310542 L420.502717,31.1449528 C420.502717,33.2595724 419.479987,34.1994033 418.550233,33.9644455 C417.899405,33.9644455 417.759942,33.3535554 417.062626,33.7294878 C416.132872,34.4813526 414.970679,34.8572849 413.761998,34.6693187 C412.320879,34.3873695 410.554346,34.951268 408.834301,34.7633018 C406.045038,34.4813526 402.74441,35.2332173 401.489242,33.8234709 C399.583246,32.7426653 398.839442,30.4870711 398.560516,28.0435107 C398.235102,24.9890602 398.049151,22.5454998 398.142127,19.5850323 C398.235102,16.3896072 398.699979,13.2411735 398.792955,10.0927399 C398.792955,9.38786673 399.583246,8.5420189 400.141098,8.58901044 C401.070853,8.72998508 401.303291,8.77697663 402.186558,9.34087519 C402.604947,9.71680756 403.116312,10.9385878 403.069824,11.7374441 C403.255775,13.5231228 403.255775,15.1208354 403.1628,16.9535057 C403.116312,18.5512183 403.116312,19.9139731 403.069824,21.3237195 C403.023337,23.4853307 403.348751,25.1770264 403.302263,27.385629 C403.255775,28.3724515 403.302263,28.7953754 403.581189,29.7352064 C403.860115,30.5340627 404.324993,30.7220288 405.115284,30.7220288 C405.905575,30.7690204 406.556403,30.7690204 407.532645,30.5810542 Z M425.383927,8.77697663 C425.383927,8.77697663 425.383927,8.5420189 425.616365,8.77697663 L425.988267,8.77697663 C426.406656,8.5420189 426.918021,8.77697663 427.289923,9.152909 C427.708312,9.52884137 428.033726,10.0927399 428.033726,10.8446047 C428.033726,11.4554948 428.173189,11.7844356 428.033726,12.2073595 C427.801288,12.8182496 427.801288,15.3557931 427.847775,15.8257086 C428.033726,16.0606663 428.033726,16.0606663 428.266165,16.0606663 C429.242407,16.1076579 430.125673,16.2486325 431.473817,17.0944804 C432.496547,17.752362 433.565764,18.7391845 434.123617,19.6790154 C434.727957,20.6188463 434.86742,21.1827449 435.239322,22.1225758 C435.518248,23.1093983 435.657711,23.9552461 435.657711,24.9420686 C435.657711,27.385629 434.123617,30.1111387 432.310596,31.4738936 C431.706256,31.849826 430.172161,32.6956738 429.38187,32.6956738 C428.824017,32.6956738 428.452116,32.9306315 428.033726,33.1185977 C426.918021,33.4475385 426.034755,33.5415216 425.058513,32.7896569 C424.733099,32.5077076 424.50066,31.7088513 424.593635,31.5678767 C424.082271,31.3799105 423.989295,31.0979612 423.849832,30.909995 C423.47793,30.5340627 423.29198,29.876181 423.338467,29.5002486 C423.47793,27.7145699 423.756857,24.6131278 423.756857,22.2635505 C423.756857,19.6790154 423.89632,17.5643958 423.89632,15.4967678 C423.89632,14.1340129 424.268222,12.8182496 424.268222,11.4554948 C424.547148,10.70363 424.268222,9.52884137 425.383927,8.77697663 Z M427.708312,28.1374938 C428.77753,28.6074092 429.660796,27.385629 430.172161,26.5867727 C430.544063,26.1638488 430.683526,25.7879165 430.683526,25.2710094 C431.101915,23.2033814 430.172161,21.1827449 428.033726,20.3838886 C427.894263,20.5248633 427.847775,21.6056688 427.847775,21.9346096 L427.847775,25.7879165 C427.847775,26.5867727 428.033726,27.3386375 427.708312,28.1374938 Z M444.257938,24.3781701 C443.839549,24.6131278 443.653598,24.6131278 443.235208,24.6131278 C442.39843,24.801094 441.98004,24.801094 441.561651,24.1902039 C440.910823,22.6864744 440.306483,21.4177026 440.306483,19.726007 C440.074044,17.1884635 440.074044,14.8858777 440.074044,12.3483342 C440.074044,9.38786673 439.888093,6.4273993 439.888093,3.46693187 L439.888093,1.96320239 C439.888093,1.11735455 440.492433,0.694430632 441.143261,0.694430632 C442.584381,0.271506713 444.257938,0.694430632 444.676328,2.62108404 C444.908766,3.23197414 444.908766,3.88985579 445.094717,4.5007459 C445.094717,8.96494281 445.094717,13.194182 444.908766,17.4234212 C444.676328,18.8801591 444.676328,20.1489309 444.676328,21.4177026 C444.676328,22.4985082 444.676328,23.344356 444.257938,24.3781701 Z M446.163934,31.8028344 L446.163934,32.2257583 C446.163934,33.0716062 445.931496,33.6824963 445.327156,33.917454 C444.490377,34.3403779 443.839549,34.5283441 443.00277,34.1054202 C441.98004,33.6824963 441.143261,33.0716062 440.492433,31.9908006 C440.074044,31.1449528 440.306483,30.2991049 441.143261,29.876181 C442.165991,29.6882148 443.00277,29.6882148 444.071987,29.876181 C444.908766,30.1111387 445.513106,30.5340627 445.931496,31.3799105 C445.931496,31.5678767 446.163934,31.5678767 446.163934,31.8028344 Z" id="ХоумСушПалочкиОближешь!"></path>
            </g>
        </g>
    </g>
</svg>