<?xml version="1.0" encoding="UTF-8"?>
<svg width="17px" height="17px" viewBox="0 0 17 17" version="1.1" xmlns="http://www.w3.org/2000/svg" xmlns:xlink="http://www.w3.org/1999/xlink">
    <!-- Generator: Sketch 55.2 (78181) - https://sketchapp.com -->
    <title>Header - Cart - Button - Icon Copy 4</title>
    <desc>Created with Sketch.</desc>
    <g id="Mobile" stroke="none" stroke-width="1" fill="none" fill-rule="evenodd">
        <g id="MainPage" transform="translate(-228.000000, -14.000000)" fill="#000000">
            <g id="Header---Cart---Button---Icon-Copy-4" transform="translate(228.000000, 14.000000)">
                <path d="M13.6,13.6 C12.6565,13.6 11.9,14.3565 11.9,15.3 C11.9,16.2388841 12.6611159,17 13.6,17 C14.5388841,17 15.3,16.2388841 15.3,15.3 C15.3,14.3565 14.535,13.6 13.6,13.6 L13.6,13.6 Z M-4.08562073e-14,0 L-4.08562073e-14,1.7 L1.7,1.7 L4.76,8.1515 L3.604,10.234 C3.4765,10.472 3.4,10.7525 3.4,11.05 C3.4,11.9888841 4.16111593,12.75 5.1,12.75 L15.3,12.75 L15.3,11.05 L5.457,11.05 C5.33963949,11.05 5.2445,10.9548605 5.2445,10.8375 C5.2445,10.795 5.253,10.761 5.27,10.7355 L6.035,9.35 L12.3675,9.35 C13.005,9.35 13.566,8.993 13.855,8.4745 L16.898,2.975 C16.9575,2.839 17,2.6945 17,2.55 C17,2.08055796 16.619442,1.7 16.15,1.7 L3.5785,1.7 L2.7795,0 L-4.08562073e-14,0 Z M5.1,13.6 C4.1565,13.6 3.4,14.3565 3.4,15.3 C3.4,16.2388841 4.16111593,17 5.1,17 C6.03888407,17 6.8,16.2388841 6.8,15.3 C6.8,14.3565 6.035,13.6 5.1,13.6 L5.1,13.6 Z" id="Header---Cart---Button---Icon-Copy-3"></path>
            </g>
        </g>
    </g>
</svg>