<?xml version="1.0" encoding="UTF-8"?>
<svg width="30px" height="30px" viewBox="0 0 30 30" version="1.1" xmlns="http://www.w3.org/2000/svg" xmlns:xlink="http://www.w3.org/1999/xlink">
    <!-- Generator: Sketch 52.5 (67469) - http://www.bohemiancoding.com/sketch -->
    <title>Artboard</title>
    <desc>Created with Sketch.</desc>
    <g id="Artboard" stroke="none" stroke-width="1" fill="none" fill-rule="evenodd">
        <path d="M28,18.6694712 C28,17.2271635 27.5679451,16.0883413 26.7038352,15.2530048 C25.8397254,14.4176683 24.6915246,14 23.259233,14 L7.74076705,14 C6.30847538,14 5.16027462,14.4176683 4.29616477,15.2530048 C3.43205492,16.0883413 3,17.2271635 3,18.6694712 C3,19.3064904 3.02071496,19.9284856 3.06214489,20.5354567 C3.10357481,21.1424279 3.18643466,21.797476 3.31072443,22.500601 C3.4350142,23.203726 3.59185606,23.8557692 3.78125,24.4567308 C3.97064394,25.0576923 4.22514205,25.6436298 4.54474432,26.2145433 C4.86434659,26.7854567 5.23129735,27.2722356 5.64559659,27.6748798 C6.05989583,28.077524 6.56593277,28.3990385 7.16370739,28.6394231 C7.76148201,28.8798077 8.42140152,29 9.14346591,29 C9.25,29 9.49857955,28.8707933 9.88920455,28.6123798 C10.2798295,28.3539663 10.7207623,28.0655048 11.2120028,27.7469952 C11.7032434,27.4284856 12.3424479,27.140024 13.1296165,26.8816106 C13.916785,26.6231971 14.7069129,26.4939904 15.5,26.4939904 C16.2930871,26.4939904 17.083215,26.6231971 17.8703835,26.8816106 C18.6575521,27.140024 19.2967566,27.4284856 19.7879972,27.7469952 C20.2792377,28.0655048 20.7201705,28.3539663 21.1107955,28.6123798 C21.5014205,28.8707933 21.75,29 21.8565341,29 C22.5785985,29 23.238518,28.8798077 23.8362926,28.6394231 C24.4340672,28.3990385 24.9401042,28.077524 25.3544034,27.6748798 C25.7687027,27.2722356 26.1356534,26.7854567 26.4552557,26.2145433 C26.774858,25.6436298 27.0293561,25.0576923 27.21875,24.4567308 C27.4081439,23.8557692 27.5649858,23.203726 27.6892756,22.500601 C27.8135653,21.797476 27.8964252,21.1424279 27.9378551,20.5354567 C27.979285,19.9284856 28,19.3064904 28,18.6694712 Z" id="Path" fill="#c40022" fill-rule="nonzero" transform="translate(15.500000, 21.500000) scale(-1, 1) rotate(-180.000000) translate(-15.500000, -21.500000) "></path>
        <path d="M22,7.5 C22,5.70572917 21.3652344,4.17382813 20.0957031,2.90429688 C18.8261719,1.63476563 17.2942708,1 15.5,1 C13.7057292,1 12.1738281,1.63476563 10.9042969,2.90429688 C9.63476562,4.17382813 9,5.70572917 9,7.5 C9,9.29427083 9.63476562,10.8261719 10.9042969,12.0957031 C12.1738281,13.3652344 13.7057292,14 15.5,14 C17.2942708,14 18.8261719,13.3652344 20.0957031,12.0957031 C21.3652344,10.8261719 22,9.29427083 22,7.5 Z" id="Path" fill="#c40022" fill-rule="nonzero" transform="translate(15.500000, 7.500000) scale(-1, 1) rotate(-180.000000) translate(-15.500000, -7.500000) "></path>
    </g>
</svg>
