<?xml version="1.0" encoding="UTF-8"?>
<svg width="15px" height="17px" viewBox="0 0 15 17" version="1.1" xmlns="http://www.w3.org/2000/svg" xmlns:xlink="http://www.w3.org/1999/xlink">
    <!-- Generator: Sketch 55.2 (78181) - https://sketchapp.com -->
    <title>download 2</title>
    <desc>Created with Sketch.</desc>
    <g id="Mobile" stroke="none" stroke-width="1" fill="none" fill-rule="evenodd">
        <g id="MainPage" transform="translate(-198.000000, -14.000000)" fill="#360300" fill-rule="nonzero">
            <g id="download-2" transform="translate(198.000000, 14.000000)">
                <g id="download">
                    <path d="M15,10.7278932 C15,9.85220641 14.7407671,9.16077865 14.2223011,8.65361006 C13.7038352,8.14644147 13.0149148,7.89285714 12.1555398,7.89285714 L2.84446023,7.89285714 C1.98508523,7.89285714 1.29616477,8.14644147 0.777698862,8.65361006 C0.259232952,9.16077865 0,9.85220641 0,10.7278932 C0,11.1146549 0.012428976,11.4922948 0.037286934,11.860813 C0.062144886,12.2293312 0.111860796,12.627039 0.186434658,13.0539363 C0.26100852,13.4808336 0.355113636,13.876717 0.46875,14.2415866 C0.582386364,14.606456 0.73508523,14.9622038 0.926846592,15.3088299 C1.11860795,15.6554559 1.33877841,15.9510002 1.58735795,16.1954627 C1.8359375,16.4399253 2.13955966,16.6351305 2.49822443,16.7810783 C2.85688921,16.9270261 3.25284091,17 3.68607955,17 C3.75,17 3.89914773,16.9215531 4.13352273,16.7646592 C4.3678977,16.6077653 4.63245738,16.4326279 4.92720168,16.2392471 C5.22194604,16.0458663 5.60546874,15.8707289 6.0777699,15.713835 C6.550071,15.5569411 7.02414774,15.4784942 7.5,15.4784942 C7.97585226,15.4784942 8.449929,15.5569411 8.9222301,15.713835 C9.39453126,15.8707289 9.77805396,16.0458663 10.0727983,16.2392471 C10.3675426,16.4326279 10.6321023,16.6077653 10.8664773,16.7646592 C11.1008523,16.9215531 11.25,17 11.3139205,17 C11.7471591,17 12.1431108,16.9270261 12.5017756,16.7810783 C12.8604403,16.6351305 13.1640625,16.4399253 13.412642,16.1954627 C13.6612216,15.9510002 13.881392,15.6554559 14.0731534,15.3088299 C14.2649148,14.9622038 14.4176137,14.606456 14.53125,14.2415866 C14.6448863,13.876717 14.7389915,13.4808336 14.8135654,13.0539363 C14.8881392,12.627039 14.9378551,12.2293312 14.9627131,11.860813 C14.987571,11.4922948 15,11.1146549 15,10.7278932 Z" id="Path" transform="translate(7.500000, 12.446429) scale(-1, 1) rotate(-180.000000) translate(-7.500000, -12.446429) "></path>
                    <path d="M11.4,3.94642857 C11.4,2.85704985 11.0191406,1.92696708 10.2574219,1.15618025 C9.49570314,0.385393418 8.57656248,0 7.5,0 C6.42343752,0 5.50429686,0.385393418 4.74257814,1.15618025 C3.98085937,1.92696708 3.6,2.85704985 3.6,3.94642857 C3.6,5.03580729 3.98085937,5.96589008 4.74257814,6.73667688 C5.50429686,7.50746374 6.42343752,7.89285714 7.5,7.89285714 C8.57656248,7.89285714 9.49570314,7.50746374 10.2574219,6.73667688 C11.0191406,5.96589008 11.4,5.03580729 11.4,3.94642857 Z" id="Path" transform="translate(7.500000, 3.946429) scale(-1, 1) rotate(-180.000000) translate(-7.500000, -3.946429) "></path>
                </g>
            </g>
        </g>
    </g>
</svg>